<?xml version="1.0" encoding="UTF-8"?>
<svg width="179px" height="133px" viewBox="0 0 179 133" version="1.1" xmlns="http://www.w3.org/2000/svg" xmlns:xlink="http://www.w3.org/1999/xlink">
    <!-- Generator: Sketch 42 (36781) - http://www.bohemiancoding.com/sketch -->
    <title>Eggs</title>
    <desc>Created with Sketch.</desc>
    <defs>
        <path d="M12.9776218,98.825013 C4.91770147,88.3298573 0,74.3494423 0,59 C0,26.4151998 22.1619049,0 49.5,0 C59.2576707,0 68.3559155,3.36519099 76.0223782,9.17498696 C84.0822985,19.6701427 89,33.6505577 89,49 C89,81.5848002 66.8380951,108 39.5,108 C29.7423293,108 20.6440845,104.634809 12.9776218,98.825013 Z" id="path-1"></path>
        <mask id="mask-2" maskContentUnits="userSpaceOnUse" maskUnits="objectBoundingBox" x="0" y="0" width="89" height="108" fill="white">
            <use xlink:href="#path-1"></use>
        </mask>
        <path d="M98.825013,12.9776218 C88.3298573,4.91770147 74.3494423,-1.15380289e-14 59,-1.05981467e-14 C26.4151998,-8.60290309e-15 1.42108547e-14,22.1619049 1.42108547e-14,49.5 C1.42108547e-14,59.2576707 3.36519099,68.3559155 9.17498696,76.0223782 C19.6701427,84.0822985 33.6505577,89 49,89 C81.5848002,89 108,66.8380951 108,39.5 C108,29.7423293 104.634809,20.6440845 98.825013,12.9776218 Z" id="path-3"></path>
        <mask id="mask-4" maskContentUnits="userSpaceOnUse" maskUnits="objectBoundingBox" x="0" y="0" width="108" height="89" fill="white">
            <use xlink:href="#path-3"></use>
        </mask>
    </defs>
    <g id="Page-1" stroke="none" stroke-width="1" fill="none" fill-rule="evenodd">
        <g id="Eggs">
            <g id="Egg-1">
                <ellipse id="Oval-18" fill="#F6F6F6" cx="49.5" cy="59" rx="49.5" ry="59"></ellipse>
                <use id="Combined-Shape" stroke="#F6F6F6" mask="url(#mask-2)" stroke-width="2" stroke-linecap="square" fill="#FFFFFF" xlink:href="#path-1"></use>
            </g>
            <g id="Egg-2" transform="translate(61.000000, 34.000000)">
                <ellipse id="Oval-18-Copy-3" fill="#F6F6F6" transform="translate(59.000000, 49.500000) rotate(90.000000) translate(-59.000000, -49.500000) " cx="59" cy="49.5" rx="49.5" ry="59"></ellipse>
                <use id="Combined-Shape" stroke="#F6F6F6" mask="url(#mask-4)" stroke-width="2" stroke-linecap="square" fill="#FFFFFF" xlink:href="#path-3"></use>
            </g>
        </g>
    </g>
</svg>