<?xml version="1.0" encoding="UTF-8"?>
<svg width="106px" height="46px" viewBox="0 0 106 46" version="1.1" xmlns="http://www.w3.org/2000/svg" xmlns:xlink="http://www.w3.org/1999/xlink">
    <!-- Generator: Sketch 42 (36781) - http://www.bohemiancoding.com/sketch -->
    <title>Fish</title>
    <desc>Created with Sketch.</desc>
    <defs>
        <path d="M7.74899515,12.3896104 C8.90762317,12.3896104 6.1989384,11.2908217 6.66748188,9.74768818 C6.992199,8.67824239 9.9690095,7.39537882 9.96228057,6.11693778 C9.95646808,5.01261404 7.00918344,3.91159023 6.75605949,2.95427224 C6.30522138,1.24919686 8.98438028,0 7.74899515,0 C3.85840256,0 0,2.77350876 0,6.19480519 C0,9.61610163 3.85840256,12.3896104 7.74899515,12.3896104 Z" id="path-1"></path>
        <filter x="-50%" y="-50%" width="200%" height="200%" filterUnits="objectBoundingBox" id="filter-2">
            <feOffset dx="1" dy="1" in="SourceAlpha" result="shadowOffsetOuter1"></feOffset>
            <feColorMatrix values="0 0 0 0 0   0 0 0 0 0   0 0 0 0 0  0 0 0 0.4 0" type="matrix" in="shadowOffsetOuter1"></feColorMatrix>
        </filter>
    </defs>
    <g id="Page-1" stroke="none" stroke-width="1" fill="none" fill-rule="evenodd">
        <g id="Fish" transform="translate(0.000000, -7.000000)">
            <g id="Tail-Copy" transform="translate(35.410265, 18.382563) rotate(48.000000) translate(-35.410265, -18.382563) translate(24.910265, 3.382563)">
                <path d="M16.01459,29.5974026 C18.4090879,29.5974026 12.8111394,26.9725184 13.7794626,23.286144 C14.4505446,20.7313568 20.6026196,17.6667383 20.5887132,14.6126847 C20.5767007,11.974578 14.4856458,9.34435443 13.9625229,7.05742813 C13.0307909,2.9841925 18.5677193,-9.59232693e-14 16.01459,-9.59232693e-14 C7.97403196,-9.59232693e-14 -1.3500312e-13,6.62560425 -1.3500312e-13,14.7987013 C-1.3500312e-13,22.9717983 7.97403196,29.5974026 16.01459,29.5974026 Z" id="Oval-13" fill="#998E8F"></path>
                <path d="M6.48860052,16.0605516 C6.5997661,16.0879631 6.71273399,16.1020355 6.82717536,16.1020355 C8.51008285,16.1020355 9.87434893,13.0588801 9.87434893,9.30495761 C9.87434893,5.55103513 8.51008285,2.50787968 6.82717536,2.50787968 C6.71273399,2.50787968 6.5997661,2.52195214 6.48860052,2.54936359 C8.01217053,2.92504888 9.19719925,5.80631003 9.19719925,9.30495761 C9.19719925,12.8036052 8.01217053,15.6848663 6.48860052,16.0605516 Z" id="Combined-Shape-Copy-38" fill-opacity="0.103175951" fill="#181F26" transform="translate(8.181475, 9.304958) rotate(264.000000) translate(-8.181475, -9.304958) "></path>
                <path d="M6.48860052,27.7618503 C6.5997661,27.7892618 6.71273399,27.8033342 6.82717536,27.8033342 C8.51008285,27.8033342 9.87434893,24.7601788 9.87434893,21.0062563 C9.87434893,17.2523338 8.51008285,14.2091784 6.82717536,14.2091784 C6.71273399,14.2091784 6.5997661,14.2232508 6.48860052,14.2506623 C8.01217053,14.6263476 9.19719925,17.5076087 9.19719925,21.0062563 C9.19719925,24.5049039 8.01217053,27.386165 6.48860052,27.7618503 Z" id="Combined-Shape-Copy-40" fill-opacity="0.103175951" fill="#181F26" transform="translate(8.181475, 21.006256) scale(1, -1) rotate(264.000000) translate(-8.181475, -21.006256) "></path>
                <path d="M1.35429936,15.1428571 C3.57545004,15.5700146 6.54970442,15.8311688 9.81814474,15.8311688 C13.0865851,15.8311688 16.0608394,15.5700146 18.2819901,15.1428571 C16.0608394,14.7156997 13.0865851,14.4545455 9.81814474,14.4545455 C6.54970442,14.4545455 3.57545004,14.7156997 1.35429936,15.1428571 Z" id="Combined-Shape" fill-opacity="0.1" fill="#181F26"></path>
            </g>
            <path d="M45.7076035,53 C68.3921178,48.8701299 89.383758,45.1941529 89.383758,31.4279191 C79.9036624,21.7915555 88.3680334,26.8441558 50.7862261,13.7662338 C30.6997869,6.77644519 2.03144904,18.8831655 2.03144904,31.4279191 C2.03144904,43.9726727 17.6058917,50.9350649 45.7076035,53 Z" id="Oval-12" fill="#D0C3C3"></path>
            <path d="M14.478725,24.3662338 L11.5115446,24.3662338 L11.5115446,25.8805195 L14.478725,25.8805195 L14.478725,28.8476999 L15.9930107,28.8476999 L15.9930107,25.8805195 L18.9601911,25.8805195 L18.9601911,24.3662338 L15.9930107,24.3662338 L15.9930107,21.3990534 L14.478725,21.3990534 L14.478725,24.3662338 Z" id="Combined-Shape" fill="#181F26" transform="translate(15.235868, 25.123377) rotate(45.000000) translate(-15.235868, -25.123377) "></path>
            <g id="Scales" transform="translate(45.369029, 15.142857)" fill-opacity="0.460626132" fill="#181F26">
                <path d="M-7.64666108e-15,6.51900675 C0.111165582,6.53219201 0.224133465,6.53896104 0.338574841,6.53896104 C2.02148233,6.53896104 3.38574841,5.07516475 3.38574841,3.26948052 C3.38574841,1.46379629 2.02148233,0 0.338574841,0 C0.224133465,0 0.111165582,0.00676902775 3.45556916e-15,0.0199542855 C1.52357001,0.200663664 2.70859873,1.58658675 2.70859873,3.26948052 C2.70859873,4.95237429 1.52357001,6.33829737 -5.73152636e-15,6.51900675 Z" id="Combined-Shape"></path>
                <path d="M-7.64666108e-15,13.4021236 C0.111165582,13.4153089 0.224133465,13.4220779 0.338574841,13.4220779 C2.02148233,13.4220779 3.38574841,11.9582816 3.38574841,10.1525974 C3.38574841,8.34691317 2.02148233,6.88311688 0.338574841,6.88311688 C0.224133465,6.88311688 0.111165582,6.88988591 3.45556916e-15,6.90307117 C1.52357001,7.08378055 2.70859873,8.46970363 2.70859873,10.1525974 C2.70859873,11.8354912 1.52357001,13.2214143 -5.73152636e-15,13.4021236 Z" id="Combined-Shape-Copy-8"></path>
                <path d="M-1.72362125e-14,20.2852405 C0.111165582,20.2984258 0.224133465,20.3051948 0.338574841,20.3051948 C2.02148233,20.3051948 3.38574841,18.8413985 3.38574841,17.0357143 C3.38574841,15.2300301 2.02148233,13.7662338 0.338574841,13.7662338 C0.224133465,13.7662338 0.111165582,13.7730028 -4.4408921e-15,13.7861881 C1.52357001,13.9668974 2.70859873,15.3528205 2.70859873,17.0357143 C2.70859873,18.7186081 1.52357001,20.1045311 -1.68892678e-14,20.2852405 Z" id="Combined-Shape-Copy-9"></path>
                <path d="M-1.57374114e-14,27.1683574 C0.111165582,27.1815427 0.224133465,27.1883117 0.338574841,27.1883117 C2.02148233,27.1883117 3.38574841,25.7245154 3.38574841,23.9188312 C3.38574841,22.1131469 2.02148233,20.6493506 0.338574841,20.6493506 C0.224133465,20.6493506 0.111165582,20.6561197 -6.38378239e-16,20.6693049 C1.52357001,20.8500143 2.70859873,22.2359374 2.70859873,23.9188312 C2.70859873,25.6017249 1.52357001,26.987648 -1.32671651e-14,27.1683574 Z" id="Combined-Shape-Copy-10"></path>
                <path d="M4.74004777,9.9605652 C4.85121335,9.97375045 4.96418124,9.98051948 5.07862261,9.98051948 C6.7615301,9.98051948 8.12579618,8.51672319 8.12579618,6.71103896 C8.12579618,4.90535473 6.7615301,3.44155844 5.07862261,3.44155844 C4.96418124,3.44155844 4.85121335,3.44832747 4.74004777,3.46151273 C6.26361778,3.64222211 7.4486465,5.02814519 7.4486465,6.71103896 C7.4486465,8.39393273 6.26361778,9.77985582 4.74004777,9.9605652 Z" id="Combined-Shape-Copy-15"></path>
                <path d="M4.74004777,16.8436821 C4.85121335,16.8568673 4.96418124,16.8636364 5.07862261,16.8636364 C6.7615301,16.8636364 8.12579618,15.3998401 8.12579618,13.5941558 C8.12579618,11.7884716 6.7615301,10.3246753 5.07862261,10.3246753 C4.96418124,10.3246753 4.85121335,10.3314444 4.74004777,10.3446296 C6.26361778,10.525339 7.4486465,11.9112621 7.4486465,13.5941558 C7.4486465,15.2770496 6.26361778,16.6629727 4.74004777,16.8436821 Z" id="Combined-Shape-Copy-14"></path>
                <path d="M4.74004777,23.726799 C4.85121335,23.7399842 4.96418124,23.7467532 5.07862261,23.7467532 C6.7615301,23.7467532 8.12579618,22.282957 8.12579618,20.4772727 C8.12579618,18.6715885 6.7615301,17.2077922 5.07862261,17.2077922 C4.96418124,17.2077922 4.85121335,17.2145612 4.74004777,17.2277465 C6.26361778,17.4084559 7.4486465,18.794379 7.4486465,20.4772727 C7.4486465,22.1601665 6.26361778,23.5460896 4.74004777,23.726799 Z" id="Combined-Shape-Copy-13"></path>
                <path d="M4.74004777,30.6099158 C4.85121335,30.6231011 4.96418124,30.6298701 5.07862261,30.6298701 C6.7615301,30.6298701 8.12579618,29.1660738 8.12579618,27.3603896 C8.12579618,25.5547054 6.7615301,24.0909091 5.07862261,24.0909091 C4.96418124,24.0909091 4.85121335,24.0976781 4.74004777,24.1108634 C6.26361778,24.2915728 7.4486465,25.6774958 7.4486465,27.3603896 C7.4486465,29.0432834 6.26361778,30.4292065 4.74004777,30.6099158 Z" id="Combined-Shape-Copy-12"></path>
                <path d="M9.48009554,7.20731844 C9.59126112,7.2205037 9.70422901,7.22727273 9.81867038,7.22727273 C11.5015779,7.22727273 12.8658439,5.76347644 12.8658439,3.95779221 C12.8658439,2.15210798 11.5015779,0.688311688 9.81867038,0.688311688 C9.70422901,0.688311688 9.59126112,0.695080716 9.48009554,0.708265974 C11.0036656,0.888975353 12.1886943,2.27489844 12.1886943,3.95779221 C12.1886943,5.64068598 11.0036656,7.02660906 9.48009554,7.20731844 Z" id="Combined-Shape-Copy-19"></path>
                <path d="M9.48009554,14.0904353 C9.59126112,14.1036206 9.70422901,14.1103896 9.81867038,14.1103896 C11.5015779,14.1103896 12.8658439,12.6465933 12.8658439,10.8409091 C12.8658439,9.03522486 11.5015779,7.57142857 9.81867038,7.57142857 C9.70422901,7.57142857 9.59126112,7.5781976 9.48009554,7.59138286 C11.0036656,7.77209224 12.1886943,9.15801532 12.1886943,10.8409091 C12.1886943,12.5238029 11.0036656,13.9097259 9.48009554,14.0904353 Z" id="Combined-Shape-Copy-18"></path>
                <path d="M9.48009554,20.9735522 C9.59126112,20.9867375 9.70422901,20.9935065 9.81867038,20.9935065 C11.5015779,20.9935065 12.8658439,19.5297102 12.8658439,17.724026 C12.8658439,15.9183417 11.5015779,14.4545455 9.81867038,14.4545455 C9.70422901,14.4545455 9.59126112,14.4613145 9.48009554,14.4744997 C11.0036656,14.6552091 12.1886943,16.0411322 12.1886943,17.724026 C12.1886943,19.4069197 11.0036656,20.7928428 9.48009554,20.9735522 Z" id="Combined-Shape-Copy-17"></path>
                <path d="M9.48009554,27.8566691 C9.59126112,27.8698543 9.70422901,27.8766234 9.81867038,27.8766234 C11.5015779,27.8766234 12.8658439,26.4128271 12.8658439,24.6071429 C12.8658439,22.8014586 11.5015779,21.3376623 9.81867038,21.3376623 C9.70422901,21.3376623 9.59126112,21.3444314 9.48009554,21.3576166 C11.0036656,21.538326 12.1886943,22.9242491 12.1886943,24.6071429 C12.1886943,26.2900366 11.0036656,27.6759597 9.48009554,27.8566691 Z" id="Combined-Shape-Copy-16"></path>
                <path d="M14.2201433,11.3371886 C14.3313089,11.3503738 14.4442768,11.3571429 14.5587182,11.3571429 C16.2416256,11.3571429 17.6058917,9.89334657 17.6058917,8.08766234 C17.6058917,6.28197811 16.2416256,4.81818182 14.5587182,4.81818182 C14.4442768,4.81818182 14.3313089,4.82495085 14.2201433,4.8381361 C15.7437133,5.01884548 16.928742,6.40476857 16.928742,8.08766234 C16.928742,9.77055611 15.7437133,11.1564792 14.2201433,11.3371886 Z" id="Combined-Shape-Copy-23"></path>
                <path d="M14.2201433,18.2203055 C14.3313089,18.2334907 14.4442768,18.2402597 14.5587182,18.2402597 C16.2416256,18.2402597 17.6058917,16.7764635 17.6058917,14.9707792 C17.6058917,13.165095 16.2416256,11.7012987 14.5587182,11.7012987 C14.4442768,11.7012987 14.3313089,11.7080677 14.2201433,11.721253 C15.7437133,11.9019624 16.928742,13.2878855 16.928742,14.9707792 C16.928742,16.653673 15.7437133,18.0395961 14.2201433,18.2203055 Z" id="Combined-Shape-Copy-22"></path>
                <path d="M14.2201433,25.1034223 C14.3313089,25.1166076 14.4442768,25.1233766 14.5587182,25.1233766 C16.2416256,25.1233766 17.6058917,23.6595803 17.6058917,21.8538961 C17.6058917,20.0482119 16.2416256,18.5844156 14.5587182,18.5844156 C14.4442768,18.5844156 14.3313089,18.5911846 14.2201433,18.6043699 C15.7437133,18.7850792 16.928742,20.1710023 16.928742,21.8538961 C16.928742,23.5367899 15.7437133,24.922713 14.2201433,25.1034223 Z" id="Combined-Shape-Copy-21"></path>
                <path d="M14.2201433,31.9865392 C14.3313089,31.9997245 14.4442768,32.0064935 14.5587182,32.0064935 C16.2416256,32.0064935 17.6058917,30.5426972 17.6058917,28.737013 C17.6058917,26.9313288 16.2416256,25.4675325 14.5587182,25.4675325 C14.4442768,25.4675325 14.3313089,25.4743015 14.2201433,25.4874868 C15.7437133,25.6681961 16.928742,27.0541192 16.928742,28.737013 C16.928742,30.4199068 15.7437133,31.8058298 14.2201433,31.9865392 Z" id="Combined-Shape-Copy-20"></path>
                <path d="M9.48009554,35.4280977 C9.59126112,35.4412829 9.70422901,35.4480519 9.81867038,35.4480519 C11.5015779,35.4480519 12.8658439,33.9842557 12.8658439,32.1785714 C12.8658439,30.3728872 11.5015779,28.9090909 9.81867038,28.9090909 C9.70422901,28.9090909 9.59126112,28.9158599 9.48009554,28.9290452 C11.0036656,29.1097546 12.1886943,30.4956777 12.1886943,32.1785714 C12.1886943,33.8614652 11.0036656,35.2473883 9.48009554,35.4280977 Z" id="Combined-Shape-Copy-27"></path>
                <path d="M18.9601911,15.4670587 C19.0713567,15.480244 19.1843245,15.487013 19.2987659,15.487013 C20.9816734,15.487013 22.3459395,14.0232167 22.3459395,12.2175325 C22.3459395,10.4118482 20.9816734,8.94805195 19.2987659,8.94805195 C19.1843245,8.94805195 19.0713567,8.95482098 18.9601911,8.96800623 C20.4837611,9.14871561 21.6687898,10.5346387 21.6687898,12.2175325 C21.6687898,13.9004262 20.4837611,15.2863493 18.9601911,15.4670587 Z" id="Combined-Shape-Copy-26"></path>
                <path d="M18.9601911,22.3501756 C19.0713567,22.3633608 19.1843245,22.3701299 19.2987659,22.3701299 C20.9816734,22.3701299 22.3459395,20.9063336 22.3459395,19.1006494 C22.3459395,17.2949651 20.9816734,15.8311688 19.2987659,15.8311688 C19.1843245,15.8311688 19.0713567,15.8379379 18.9601911,15.8511231 C20.4837611,16.0318325 21.6687898,17.4177556 21.6687898,19.1006494 C21.6687898,20.7835431 20.4837611,22.1694662 18.9601911,22.3501756 Z" id="Combined-Shape-Copy-25"></path>
                <path d="M18.9601911,29.2332925 C19.0713567,29.2464777 19.1843245,29.2532468 19.2987659,29.2532468 C20.9816734,29.2532468 22.3459395,27.7894505 22.3459395,25.9837662 C22.3459395,24.178082 20.9816734,22.7142857 19.2987659,22.7142857 C19.1843245,22.7142857 19.0713567,22.7210547 18.9601911,22.73424 C20.4837611,22.9149494 21.6687898,24.3008725 21.6687898,25.9837662 C21.6687898,27.66666 20.4837611,29.0525831 18.9601911,29.2332925 Z" id="Combined-Shape-Copy-24"></path>
                <path d="M23.7002389,11.8745417 C23.8114044,11.8867255 23.9243723,11.8929804 24.0388137,11.8929804 C25.7217212,11.8929804 27.0859873,10.5403586 27.0859873,8.87181489 C27.0859873,7.20327124 25.7217212,5.85064935 24.0388137,5.85064935 C23.9243723,5.85064935 23.8114044,5.85690428 23.7002389,5.86908812 C25.2238089,6.03607274 26.4088376,7.31673584 26.4088376,8.87181489 C26.4088376,10.4268939 25.2238089,11.7075571 23.7002389,11.8745417 Z" id="Combined-Shape-Copy-31"></path>
                <path d="M23.7002389,18.9086171 C23.8114044,18.9218024 23.9243723,18.9285714 24.0388137,18.9285714 C25.7217212,18.9285714 27.0859873,17.4647751 27.0859873,15.6590909 C27.0859873,13.8534067 25.7217212,12.3896104 24.0388137,12.3896104 C23.9243723,12.3896104 23.8114044,12.3963794 23.7002389,12.4095647 C25.2238089,12.5902741 26.4088376,13.9761971 26.4088376,15.6590909 C26.4088376,17.3419847 25.2238089,18.7279078 23.7002389,18.9086171 Z" id="Combined-Shape-Copy-30"></path>
                <path d="M23.7002389,25.791734 C23.8114044,25.8049193 23.9243723,25.8116883 24.0388137,25.8116883 C25.7217212,25.8116883 27.0859873,24.347892 27.0859873,22.5422078 C27.0859873,20.7365236 25.7217212,19.2727273 24.0388137,19.2727273 C23.9243723,19.2727273 23.8114044,19.2794963 23.7002389,19.2926816 C25.2238089,19.4733909 26.4088376,20.859314 26.4088376,22.5422078 C26.4088376,24.2251016 25.2238089,25.6110246 23.7002389,25.791734 Z" id="Combined-Shape-Copy-29"></path>
                <path d="M23.7002389,32.3322106 C23.8114044,32.3443944 23.9243723,32.3506494 24.0388137,32.3506494 C25.7217212,32.3506494 27.0859873,30.9980275 27.0859873,29.3294838 C27.0859873,27.6609402 25.7217212,26.3083183 24.0388137,26.3083183 C23.9243723,26.3083183 23.8114044,26.3145732 23.7002389,26.326757 C25.2238089,26.4937417 26.4088376,27.7744048 26.4088376,29.3294838 C26.4088376,30.8845629 25.2238089,32.165226 23.7002389,32.3322106 Z" id="Combined-Shape-Copy-28"></path>
                <path d="M28.4402866,16.1553704 C28.5514522,16.1685556 28.6644201,16.1753247 28.7788615,16.1753247 C30.461769,16.1753247 31.826035,14.7115284 31.826035,12.9058442 C31.826035,11.1001599 30.461769,9.63636364 28.7788615,9.63636364 C28.6644201,9.63636364 28.5514522,9.64313266 28.4402866,9.65631792 C29.9638566,9.8370273 31.1488854,11.2229504 31.1488854,12.9058442 C31.1488854,14.5887379 29.9638566,15.974661 28.4402866,16.1553704 Z" id="Combined-Shape-Copy-35"></path>
                <path d="M28.4402866,23.0384873 C28.5514522,23.0516725 28.6644201,23.0584416 28.7788615,23.0584416 C30.461769,23.0584416 31.826035,21.5946453 31.826035,19.788961 C31.826035,17.9832768 30.461769,16.5194805 28.7788615,16.5194805 C28.6644201,16.5194805 28.5514522,16.5262495 28.4402866,16.5394348 C29.9638566,16.7201442 31.1488854,18.1060673 31.1488854,19.788961 C31.1488854,21.4718548 29.9638566,22.8577779 28.4402866,23.0384873 Z" id="Combined-Shape-Copy-34"></path>
                <path d="M28.4402866,29.9216042 C28.5514522,29.9347894 28.6644201,29.9415584 28.7788615,29.9415584 C30.461769,29.9415584 31.826035,28.4777622 31.826035,26.6720779 C31.826035,24.8663937 30.461769,23.4025974 28.7788615,23.4025974 C28.6644201,23.4025974 28.5514522,23.4093664 28.4402866,23.4225517 C29.9638566,23.6032611 31.1488854,24.9891842 31.1488854,26.6720779 C31.1488854,28.3549717 29.9638566,29.7408948 28.4402866,29.9216042 Z" id="Combined-Shape-Copy-33"></path>
                <path d="M33.1803344,19.5969288 C33.2915,19.6101141 33.4044679,19.6168831 33.5189092,19.6168831 C35.2018167,19.6168831 36.5660828,18.1530868 36.5660828,16.3474026 C36.5660828,14.5417184 35.2018167,13.0779221 33.5189092,13.0779221 C33.4044679,13.0779221 33.2915,13.0846911 33.1803344,13.0978764 C34.7039044,13.2785857 35.8889331,14.6645088 35.8889331,16.3474026 C35.8889331,18.0302964 34.7039044,19.4162195 33.1803344,19.5969288 Z" id="Combined-Shape-Copy-37"></path>
                <path d="M33.1803344,26.4800457 C33.2915,26.493231 33.4044679,26.5 33.5189092,26.5 C35.2018167,26.5 36.5660828,25.0362037 36.5660828,23.2305195 C36.5660828,21.4248352 35.2018167,19.961039 33.5189092,19.961039 C33.4044679,19.961039 33.2915,19.967808 33.1803344,19.9809932 C34.7039044,20.1617026 35.8889331,21.5476257 35.8889331,23.2305195 C35.8889331,24.9134132 34.7039044,26.2993363 33.1803344,26.4800457 Z" id="Combined-Shape-Copy-36"></path>
                <path d="M-8.8817842e-16,34.0514743 C0.111165582,34.0646595 0.224133465,34.0714286 0.338574841,34.0714286 C2.02148233,34.0714286 3.38574841,32.6076323 3.38574841,30.8019481 C3.38574841,28.9962638 2.02148233,27.5324675 0.338574841,27.5324675 C0.224133465,27.5324675 0.111165582,27.5392366 7.56339436e-15,27.5524218 C1.52357001,27.7331312 2.70859873,29.1190543 2.70859873,30.8019481 C2.70859873,32.4848418 1.52357001,33.8707649 -1.23512311e-15,34.0514743 Z" id="Combined-Shape-Copy-11"></path>
            </g>
            <g id="Tail" transform="translate(85.320860, 17.207792)">
                <path d="M16.01459,29.5974026 C18.4090879,29.5974026 12.8111394,26.9725184 13.7794626,23.286144 C14.4505446,20.7313568 20.6026196,17.6667383 20.5887132,14.6126847 C20.5767007,11.974578 14.4856458,9.34435443 13.9625229,7.05742813 C13.0307909,2.9841925 18.5677193,0 16.01459,0 C7.97403196,0 0,6.62560425 0,14.7987013 C0,22.9717983 7.97403196,29.5974026 16.01459,29.5974026 Z" id="Oval-13" fill="#998E8F"></path>
                <path d="M6.48860052,16.0605516 C6.5997661,16.0879631 6.71273399,16.1020355 6.82717536,16.1020355 C8.51008285,16.1020355 9.87434893,13.0588801 9.87434893,9.30495761 C9.87434893,5.55103513 8.51008285,2.50787968 6.82717536,2.50787968 C6.71273399,2.50787968 6.5997661,2.52195214 6.48860052,2.54936359 C8.01217053,2.92504888 9.19719925,5.80631003 9.19719925,9.30495761 C9.19719925,12.8036052 8.01217053,15.6848663 6.48860052,16.0605516 Z" id="Combined-Shape-Copy-38" fill-opacity="0.103175951" fill="#181F26" transform="translate(8.181475, 9.304958) rotate(264.000000) translate(-8.181475, -9.304958) "></path>
                <path d="M6.48860052,27.7618503 C6.5997661,27.7892618 6.71273399,27.8033342 6.82717536,27.8033342 C8.51008285,27.8033342 9.87434893,24.7601788 9.87434893,21.0062563 C9.87434893,17.2523338 8.51008285,14.2091784 6.82717536,14.2091784 C6.71273399,14.2091784 6.5997661,14.2232508 6.48860052,14.2506623 C8.01217053,14.6263476 9.19719925,17.5076087 9.19719925,21.0062563 C9.19719925,24.5049039 8.01217053,27.386165 6.48860052,27.7618503 Z" id="Combined-Shape-Copy-40" fill-opacity="0.103175951" fill="#181F26" transform="translate(8.181475, 21.006256) scale(1, -1) rotate(264.000000) translate(-8.181475, -21.006256) "></path>
                <path d="M1.35429936,14.7987013 C3.57545004,15.01228 6.54970442,15.1428571 9.81814474,15.1428571 C13.0865851,15.1428571 16.0608394,15.01228 18.2819901,14.7987013 C16.0608394,14.5851226 13.0865851,14.4545455 9.81814474,14.4545455 C6.54970442,14.4545455 3.57545004,14.5851226 1.35429936,14.7987013 Z" id="Combined-Shape" fill-opacity="0.1" fill="#181F26"></path>
            </g>
            <g id="Tail-Copy-2" transform="translate(33.180334, 25.467532)">
                <g id="Oval-13">
                    <use fill="black" fill-opacity="1" filter="url(#filter-2)" xlink:href="#path-1"></use>
                    <use fill="#998E8F" fill-rule="evenodd" xlink:href="#path-1"></use>
                </g>
                <path d="M3.13964541,6.72220434 C3.19343521,6.7336789 3.24809709,6.7395697 3.30347195,6.7395697 C4.11778203,6.7395697 4.77791077,5.46569067 4.77791077,3.89428126 C4.77791077,2.32287185 4.11778203,1.04899283 3.30347195,1.04899283 C3.24809709,1.04899283 3.19343521,1.05488362 3.13964541,1.06635819 C3.87685671,1.2236218 4.4502577,2.42973112 4.4502577,3.89428126 C4.4502577,5.35883141 3.87685671,6.56494073 3.13964541,6.72220434 Z" id="Combined-Shape-Copy-38" fill-opacity="0.103175951" fill="#181F26" transform="translate(3.958778, 3.894281) rotate(264.000000) translate(-3.958778, -3.894281) "></path>
                <path d="M3.13964541,11.6220569 C3.19343521,11.6335315 3.24809709,11.6394223 3.30347195,11.6394223 C4.11778203,11.6394223 4.77791077,10.3655433 4.77791077,8.79413386 C4.77791077,7.22272445 4.11778203,5.94884543 3.30347195,5.94884543 C3.24809709,5.94884543 3.19343521,5.95473622 3.13964541,5.96621079 C3.87685671,6.1234744 4.4502577,7.32958372 4.4502577,8.79413386 C4.4502577,10.258684 3.87685671,11.4647933 3.13964541,11.6220569 Z" id="Combined-Shape-Copy-40" fill-opacity="0.103175951" fill="#181F26" transform="translate(3.958778, 8.794134) scale(1, -1) rotate(264.000000) translate(-3.958778, -8.794134) "></path>
                <path d="M0.655306143,6.22281788 C1.73005647,6.32960725 3.16921182,6.3948958 4.7507152,6.3948958 C6.33221858,6.3948958 7.77137392,6.32960725 8.84612425,6.22281788 C7.77137392,6.11602851 6.33221858,6.05073996 4.7507152,6.05073996 C3.16921182,6.05073996 1.73005647,6.11602851 0.655306143,6.22281788 Z" id="Combined-Shape" fill-opacity="0.1" fill="#181F26"></path>
            </g>
            <g id="Mouth" transform="translate(0.000000, 31.662338)">
                <ellipse id="Oval-15" fill="#998E8F" transform="translate(4.062898, 3.785714) rotate(19.000000) translate(-4.062898, -3.785714) " cx="4.06289809" cy="3.78571429" rx="3.38574841" ry="2.40909091"></ellipse>
                <ellipse id="Oval-15-Copy" fill="#181F26" transform="translate(4.062898, 4.129870) rotate(19.000000) translate(-4.062898, -4.129870) " cx="4.06289809" cy="4.12987013" rx="2.03144904" ry="1.37662338"></ellipse>
            </g>
        </g>
    </g>
</svg>