<?xml version="1.0" encoding="UTF-8"?>
<svg width="71px" height="378px" viewBox="0 0 71 378" version="1.1" xmlns="http://www.w3.org/2000/svg" xmlns:xlink="http://www.w3.org/1999/xlink">
    <!-- Generator: Sketch 42 (36781) - http://www.bohemiancoding.com/sketch -->
    <title>Wheat</title>
    <desc>Created with Sketch.</desc>
    <defs>
        <path d="M25.8928571,12.3621989 C30.2495995,17.2681892 32.9428571,24.0356867 32.9428571,31.5090909 C32.9428571,38.9824951 30.2495995,45.7499927 25.8928571,50.6559829 C21.5361148,45.7499927 18.8428571,38.9824951 18.8428571,31.5090909 C18.8428571,24.0356867 21.5361148,17.2681892 25.8928571,12.3621989 L25.8928571,12.3621989 Z" id="path-1"></path>
        <filter x="-50%" y="-50%" width="200%" height="200%" filterUnits="objectBoundingBox" id="filter-2">
            <feOffset dx="-2" dy="3" in="SourceAlpha" result="shadowOffsetOuter1"></feOffset>
            <feComposite in="shadowOffsetOuter1" in2="SourceAlpha" operator="out" result="shadowOffsetOuter1"></feComposite>
            <feColorMatrix values="0 0 0 0 0.745098039   0 0 0 0 0.729411765   0 0 0 0 0.129411765  0 0 0 1 0" type="matrix" in="shadowOffsetOuter1"></feColorMatrix>
        </filter>
        <mask id="mask-3" maskContentUnits="userSpaceOnUse" maskUnits="objectBoundingBox" x="0" y="0" width="14.1" height="38.293784" fill="white">
            <use xlink:href="#path-1"></use>
        </mask>
        <path d="M17.3819075,1.0677872 C21.7386498,5.97377747 24.4319075,12.741275 24.4319075,20.2146792 C24.4319075,27.6880834 21.7386498,34.455581 17.3819075,39.3615712 C13.0251651,34.455581 10.3319075,27.6880834 10.3319075,20.2146792 C10.3319075,12.741275 13.0251651,5.97377747 17.3819075,1.0677872 L17.3819075,1.0677872 Z" id="path-4"></path>
        <filter x="-50%" y="-50%" width="200%" height="200%" filterUnits="objectBoundingBox" id="filter-5">
            <feOffset dx="-2" dy="3" in="SourceAlpha" result="shadowOffsetOuter1"></feOffset>
            <feComposite in="shadowOffsetOuter1" in2="SourceAlpha" operator="out" result="shadowOffsetOuter1"></feComposite>
            <feColorMatrix values="0 0 0 0 0.745098039   0 0 0 0 0.729411765   0 0 0 0 0.129411765  0 0 0 1 0" type="matrix" in="shadowOffsetOuter1"></feColorMatrix>
        </filter>
        <mask id="mask-6" maskContentUnits="userSpaceOnUse" maskUnits="objectBoundingBox" x="0" y="0" width="14.1" height="38.293784" fill="white">
            <use xlink:href="#path-4"></use>
        </mask>
        <path d="M19.1279471,31.9266102 C19.1279471,39.4000144 16.4346894,46.167512 12.0779471,51.0735022 C7.72120472,46.167512 5.02794706,39.4000144 5.02794706,31.9266102 C5.02794706,24.453206 7.72120472,17.6857085 12.0779471,12.7797182 C16.4346894,17.6857085 19.1279471,24.453206 19.1279471,31.9266102 Z" id="path-7"></path>
        <filter x="-50%" y="-50%" width="200%" height="200%" filterUnits="objectBoundingBox" id="filter-8">
            <feOffset dx="-2" dy="3" in="SourceAlpha" result="shadowOffsetOuter1"></feOffset>
            <feComposite in="shadowOffsetOuter1" in2="SourceAlpha" operator="out" result="shadowOffsetOuter1"></feComposite>
            <feColorMatrix values="0 0 0 0 0.745098039   0 0 0 0 0.729411765   0 0 0 0 0.129411765  0 0 0 1 0" type="matrix" in="shadowOffsetOuter1"></feColorMatrix>
        </filter>
        <mask id="mask-9" maskContentUnits="userSpaceOnUse" maskUnits="objectBoundingBox" x="0" y="0" width="14.1" height="38.293784" fill="white">
            <use xlink:href="#path-7"></use>
        </mask>
        <path d="M37.3214286,1.59406254 C42.4197441,7.33511498 45.5714286,15.254527 45.5714286,24 C45.5714286,32.745473 42.4197441,40.664885 37.3214286,46.4059375 C32.2231131,40.664885 29.0714286,32.745473 29.0714286,24 C29.0714286,15.254527 32.2231131,7.33511498 37.3214286,1.59406254 L37.3214286,1.59406254 Z" id="path-10"></path>
        <filter x="-50%" y="-50%" width="200%" height="200%" filterUnits="objectBoundingBox" id="filter-11">
            <feOffset dx="-2" dy="3" in="SourceAlpha" result="shadowOffsetOuter1"></feOffset>
            <feComposite in="shadowOffsetOuter1" in2="SourceAlpha" operator="out" result="shadowOffsetOuter1"></feComposite>
            <feColorMatrix values="0 0 0 0 0.745098039   0 0 0 0 0.729411765   0 0 0 0 0.129411765  0 0 0 1 0" type="matrix" in="shadowOffsetOuter1"></feColorMatrix>
        </filter>
        <mask id="mask-12" maskContentUnits="userSpaceOnUse" maskUnits="objectBoundingBox" x="0" y="0" width="16.5" height="44.8118749" fill="white">
            <use xlink:href="#path-10"></use>
        </mask>
        <path d="M17.6785714,1.59406254 C22.7768869,7.33511498 25.9285714,15.254527 25.9285714,24 C25.9285714,32.745473 22.7768869,40.664885 17.6785714,46.4059375 C12.5802559,40.664885 9.42857143,32.745473 9.42857143,24 C9.42857143,15.254527 12.5802559,7.33511498 17.6785714,1.59406254 L17.6785714,1.59406254 Z" id="path-13"></path>
        <filter x="-50%" y="-50%" width="200%" height="200%" filterUnits="objectBoundingBox" id="filter-14">
            <feOffset dx="-2" dy="3" in="SourceAlpha" result="shadowOffsetOuter1"></feOffset>
            <feComposite in="shadowOffsetOuter1" in2="SourceAlpha" operator="out" result="shadowOffsetOuter1"></feComposite>
            <feColorMatrix values="0 0 0 0 0.745098039   0 0 0 0 0.729411765   0 0 0 0 0.129411765  0 0 0 1 0" type="matrix" in="shadowOffsetOuter1"></feColorMatrix>
        </filter>
        <mask id="mask-15" maskContentUnits="userSpaceOnUse" maskUnits="objectBoundingBox" x="0" y="0" width="16.5" height="44.8118749" fill="white">
            <use xlink:href="#path-13"></use>
        </mask>
        <path d="M47.5,2.05899745 C53.9887652,9.47452352 58,19.703764 58,31 C58,42.296236 53.9887652,52.5254765 47.5,59.9410026 C41.0112348,52.5254765 37,42.296236 37,31 C37,19.703764 41.0112348,9.47452352 47.5,2.05899745 L47.5,2.05899745 Z" id="path-16"></path>
        <filter x="-50%" y="-50%" width="200%" height="200%" filterUnits="objectBoundingBox" id="filter-17">
            <feOffset dx="-2" dy="3" in="SourceAlpha" result="shadowOffsetOuter1"></feOffset>
            <feComposite in="shadowOffsetOuter1" in2="SourceAlpha" operator="out" result="shadowOffsetOuter1"></feComposite>
            <feColorMatrix values="0 0 0 0 0.745098039   0 0 0 0 0.729411765   0 0 0 0 0.129411765  0 0 0 1 0" type="matrix" in="shadowOffsetOuter1"></feColorMatrix>
        </filter>
        <mask id="mask-18" maskContentUnits="userSpaceOnUse" maskUnits="objectBoundingBox" x="0" y="0" width="21" height="57.8820051" fill="white">
            <use xlink:href="#path-16"></use>
        </mask>
        <path d="M22.5,2.05899745 C28.9887652,9.47452352 33,19.703764 33,31 C33,42.296236 28.9887652,52.5254765 22.5,59.9410026 C16.0112348,52.5254765 12,42.296236 12,31 C12,19.703764 16.0112348,9.47452352 22.5,2.05899745 L22.5,2.05899745 Z" id="path-19"></path>
        <filter x="-50%" y="-50%" width="200%" height="200%" filterUnits="objectBoundingBox" id="filter-20">
            <feOffset dx="-2" dy="3" in="SourceAlpha" result="shadowOffsetOuter1"></feOffset>
            <feComposite in="shadowOffsetOuter1" in2="SourceAlpha" operator="out" result="shadowOffsetOuter1"></feComposite>
            <feColorMatrix values="0 0 0 0 0.745098039   0 0 0 0 0.729411765   0 0 0 0 0.129411765  0 0 0 1 0" type="matrix" in="shadowOffsetOuter1"></feColorMatrix>
        </filter>
        <mask id="mask-21" maskContentUnits="userSpaceOnUse" maskUnits="objectBoundingBox" x="0" y="0" width="21" height="57.8820051" fill="white">
            <use xlink:href="#path-19"></use>
        </mask>
        <path d="M47.5,2.05899745 C53.9887652,9.47452352 58,19.703764 58,31 C58,42.296236 53.9887652,52.5254765 47.5,59.9410026 C41.0112348,52.5254765 37,42.296236 37,31 C37,19.703764 41.0112348,9.47452352 47.5,2.05899745 L47.5,2.05899745 Z" id="path-22"></path>
        <filter x="-50%" y="-50%" width="200%" height="200%" filterUnits="objectBoundingBox" id="filter-23">
            <feOffset dx="-2" dy="3" in="SourceAlpha" result="shadowOffsetOuter1"></feOffset>
            <feComposite in="shadowOffsetOuter1" in2="SourceAlpha" operator="out" result="shadowOffsetOuter1"></feComposite>
            <feColorMatrix values="0 0 0 0 0.745098039   0 0 0 0 0.729411765   0 0 0 0 0.129411765  0 0 0 1 0" type="matrix" in="shadowOffsetOuter1"></feColorMatrix>
        </filter>
        <mask id="mask-24" maskContentUnits="userSpaceOnUse" maskUnits="objectBoundingBox" x="0" y="0" width="21" height="57.8820051" fill="white">
            <use xlink:href="#path-22"></use>
        </mask>
        <path d="M22.5,2.05899745 C28.9887652,9.47452352 33,19.703764 33,31 C33,42.296236 28.9887652,52.5254765 22.5,59.9410026 C16.0112348,52.5254765 12,42.296236 12,31 C12,19.703764 16.0112348,9.47452352 22.5,2.05899745 L22.5,2.05899745 Z" id="path-25"></path>
        <filter x="-50%" y="-50%" width="200%" height="200%" filterUnits="objectBoundingBox" id="filter-26">
            <feOffset dx="-2" dy="3" in="SourceAlpha" result="shadowOffsetOuter1"></feOffset>
            <feComposite in="shadowOffsetOuter1" in2="SourceAlpha" operator="out" result="shadowOffsetOuter1"></feComposite>
            <feColorMatrix values="0 0 0 0 0.745098039   0 0 0 0 0.729411765   0 0 0 0 0.129411765  0 0 0 1 0" type="matrix" in="shadowOffsetOuter1"></feColorMatrix>
        </filter>
        <mask id="mask-27" maskContentUnits="userSpaceOnUse" maskUnits="objectBoundingBox" x="0" y="0" width="21" height="57.8820051" fill="white">
            <use xlink:href="#path-25"></use>
        </mask>
        <path d="M47.5,2.05899745 C53.9887652,9.47452352 58,19.703764 58,31 C58,42.296236 53.9887652,52.5254765 47.5,59.9410026 C41.0112348,52.5254765 37,42.296236 37,31 C37,19.703764 41.0112348,9.47452352 47.5,2.05899745 L47.5,2.05899745 Z" id="path-28"></path>
        <filter x="-50%" y="-50%" width="200%" height="200%" filterUnits="objectBoundingBox" id="filter-29">
            <feOffset dx="-2" dy="3" in="SourceAlpha" result="shadowOffsetOuter1"></feOffset>
            <feComposite in="shadowOffsetOuter1" in2="SourceAlpha" operator="out" result="shadowOffsetOuter1"></feComposite>
            <feColorMatrix values="0 0 0 0 0.745098039   0 0 0 0 0.729411765   0 0 0 0 0.129411765  0 0 0 1 0" type="matrix" in="shadowOffsetOuter1"></feColorMatrix>
        </filter>
        <mask id="mask-30" maskContentUnits="userSpaceOnUse" maskUnits="objectBoundingBox" x="0" y="0" width="21" height="57.8820051" fill="white">
            <use xlink:href="#path-28"></use>
        </mask>
        <path d="M22.5,2.05899745 C28.9887652,9.47452352 33,19.703764 33,31 C33,42.296236 28.9887652,52.5254765 22.5,59.9410026 C16.0112348,52.5254765 12,42.296236 12,31 C12,19.703764 16.0112348,9.47452352 22.5,2.05899745 L22.5,2.05899745 Z" id="path-31"></path>
        <filter x="-50%" y="-50%" width="200%" height="200%" filterUnits="objectBoundingBox" id="filter-32">
            <feOffset dx="-2" dy="3" in="SourceAlpha" result="shadowOffsetOuter1"></feOffset>
            <feComposite in="shadowOffsetOuter1" in2="SourceAlpha" operator="out" result="shadowOffsetOuter1"></feComposite>
            <feColorMatrix values="0 0 0 0 0.745098039   0 0 0 0 0.729411765   0 0 0 0 0.129411765  0 0 0 1 0" type="matrix" in="shadowOffsetOuter1"></feColorMatrix>
        </filter>
        <mask id="mask-33" maskContentUnits="userSpaceOnUse" maskUnits="objectBoundingBox" x="0" y="0" width="21" height="57.8820051" fill="white">
            <use xlink:href="#path-31"></use>
        </mask>
        <path d="M47.5,2.05899745 C53.9887652,9.47452352 58,19.703764 58,31 C58,42.296236 53.9887652,52.5254765 47.5,59.9410026 C41.0112348,52.5254765 37,42.296236 37,31 C37,19.703764 41.0112348,9.47452352 47.5,2.05899745 L47.5,2.05899745 Z" id="path-34"></path>
        <filter x="-50%" y="-50%" width="200%" height="200%" filterUnits="objectBoundingBox" id="filter-35">
            <feOffset dx="-2" dy="3" in="SourceAlpha" result="shadowOffsetOuter1"></feOffset>
            <feComposite in="shadowOffsetOuter1" in2="SourceAlpha" operator="out" result="shadowOffsetOuter1"></feComposite>
            <feColorMatrix values="0 0 0 0 0.745098039   0 0 0 0 0.729411765   0 0 0 0 0.129411765  0 0 0 1 0" type="matrix" in="shadowOffsetOuter1"></feColorMatrix>
        </filter>
        <mask id="mask-36" maskContentUnits="userSpaceOnUse" maskUnits="objectBoundingBox" x="0" y="0" width="21" height="57.8820051" fill="white">
            <use xlink:href="#path-34"></use>
        </mask>
        <path d="M22.5,2.05899745 C28.9887652,9.47452352 33,19.703764 33,31 C33,42.296236 28.9887652,52.5254765 22.5,59.9410026 C16.0112348,52.5254765 12,42.296236 12,31 C12,19.703764 16.0112348,9.47452352 22.5,2.05899745 L22.5,2.05899745 Z" id="path-37"></path>
        <filter x="-50%" y="-50%" width="200%" height="200%" filterUnits="objectBoundingBox" id="filter-38">
            <feOffset dx="-2" dy="3" in="SourceAlpha" result="shadowOffsetOuter1"></feOffset>
            <feComposite in="shadowOffsetOuter1" in2="SourceAlpha" operator="out" result="shadowOffsetOuter1"></feComposite>
            <feColorMatrix values="0 0 0 0 0.745098039   0 0 0 0 0.729411765   0 0 0 0 0.129411765  0 0 0 1 0" type="matrix" in="shadowOffsetOuter1"></feColorMatrix>
        </filter>
        <mask id="mask-39" maskContentUnits="userSpaceOnUse" maskUnits="objectBoundingBox" x="0" y="0" width="21" height="57.8820051" fill="white">
            <use xlink:href="#path-37"></use>
        </mask>
        <path d="M47.5,2.05899745 C53.9887652,9.47452352 58,19.703764 58,31 C58,42.296236 53.9887652,52.5254765 47.5,59.9410026 C41.0112348,52.5254765 37,42.296236 37,31 C37,19.703764 41.0112348,9.47452352 47.5,2.05899745 L47.5,2.05899745 Z" id="path-40"></path>
        <filter x="-50%" y="-50%" width="200%" height="200%" filterUnits="objectBoundingBox" id="filter-41">
            <feOffset dx="-2" dy="3" in="SourceAlpha" result="shadowOffsetOuter1"></feOffset>
            <feComposite in="shadowOffsetOuter1" in2="SourceAlpha" operator="out" result="shadowOffsetOuter1"></feComposite>
            <feColorMatrix values="0 0 0 0 0.745098039   0 0 0 0 0.729411765   0 0 0 0 0.129411765  0 0 0 1 0" type="matrix" in="shadowOffsetOuter1"></feColorMatrix>
        </filter>
        <mask id="mask-42" maskContentUnits="userSpaceOnUse" maskUnits="objectBoundingBox" x="0" y="0" width="21" height="57.8820051" fill="white">
            <use xlink:href="#path-40"></use>
        </mask>
        <path d="M22.5,2.05899745 C28.9887652,9.47452352 33,19.703764 33,31 C33,42.296236 28.9887652,52.5254765 22.5,59.9410026 C16.0112348,52.5254765 12,42.296236 12,31 C12,19.703764 16.0112348,9.47452352 22.5,2.05899745 L22.5,2.05899745 Z" id="path-43"></path>
        <filter x="-50%" y="-50%" width="200%" height="200%" filterUnits="objectBoundingBox" id="filter-44">
            <feOffset dx="-2" dy="3" in="SourceAlpha" result="shadowOffsetOuter1"></feOffset>
            <feComposite in="shadowOffsetOuter1" in2="SourceAlpha" operator="out" result="shadowOffsetOuter1"></feComposite>
            <feColorMatrix values="0 0 0 0 0.745098039   0 0 0 0 0.729411765   0 0 0 0 0.129411765  0 0 0 1 0" type="matrix" in="shadowOffsetOuter1"></feColorMatrix>
        </filter>
        <mask id="mask-45" maskContentUnits="userSpaceOnUse" maskUnits="objectBoundingBox" x="0" y="0" width="21" height="57.8820051" fill="white">
            <use xlink:href="#path-43"></use>
        </mask>
        <path d="M47.5,2.05899745 C53.9887652,9.47452352 58,19.703764 58,31 C58,42.296236 53.9887652,52.5254765 47.5,59.9410026 C41.0112348,52.5254765 37,42.296236 37,31 C37,19.703764 41.0112348,9.47452352 47.5,2.05899745 L47.5,2.05899745 Z" id="path-46"></path>
        <filter x="-50%" y="-50%" width="200%" height="200%" filterUnits="objectBoundingBox" id="filter-47">
            <feOffset dx="-2" dy="3" in="SourceAlpha" result="shadowOffsetOuter1"></feOffset>
            <feComposite in="shadowOffsetOuter1" in2="SourceAlpha" operator="out" result="shadowOffsetOuter1"></feComposite>
            <feColorMatrix values="0 0 0 0 0.745098039   0 0 0 0 0.729411765   0 0 0 0 0.129411765  0 0 0 1 0" type="matrix" in="shadowOffsetOuter1"></feColorMatrix>
        </filter>
        <mask id="mask-48" maskContentUnits="userSpaceOnUse" maskUnits="objectBoundingBox" x="0" y="0" width="21" height="57.8820051" fill="white">
            <use xlink:href="#path-46"></use>
        </mask>
        <path d="M22.5,2.05899745 C28.9887652,9.47452352 33,19.703764 33,31 C33,42.296236 28.9887652,52.5254765 22.5,59.9410026 C16.0112348,52.5254765 12,42.296236 12,31 C12,19.703764 16.0112348,9.47452352 22.5,2.05899745 L22.5,2.05899745 Z" id="path-49"></path>
        <filter x="-50%" y="-50%" width="200%" height="200%" filterUnits="objectBoundingBox" id="filter-50">
            <feOffset dx="-2" dy="3" in="SourceAlpha" result="shadowOffsetOuter1"></feOffset>
            <feComposite in="shadowOffsetOuter1" in2="SourceAlpha" operator="out" result="shadowOffsetOuter1"></feComposite>
            <feColorMatrix values="0 0 0 0 0.745098039   0 0 0 0 0.729411765   0 0 0 0 0.129411765  0 0 0 1 0" type="matrix" in="shadowOffsetOuter1"></feColorMatrix>
        </filter>
        <mask id="mask-51" maskContentUnits="userSpaceOnUse" maskUnits="objectBoundingBox" x="0" y="0" width="21" height="57.8820051" fill="white">
            <use xlink:href="#path-49"></use>
        </mask>
    </defs>
    <g id="Page-1" stroke="none" stroke-width="1" fill="none" fill-rule="evenodd">
        <g id="Wheat" transform="translate(-2.000000, -4.000000)">
            <path d="M49,178 C47.4475692,227.289775 33.1868816,355.283152 6,381 C5,381 2.02025412,380.119774 3.30859375,379.72061 C25,373 47.5410068,254.104638 47,178 L49,178 Z" id="Path-2" stroke="#BFBA20" stroke-linecap="square" fill="#BEBA21"></path>
            <g id="Group-7" transform="translate(29.298003, 29.479162) rotate(-8.000000) translate(-29.298003, -29.479162) translate(11.298003, 2.979162)">
                <g id="Combined-Shape" transform="translate(25.892857, 31.509091) rotate(7.000000) translate(-25.892857, -31.509091) ">
                    <use fill="black" fill-opacity="1" filter="url(#filter-2)" xlink:href="#path-1"></use>
                    <use stroke="#DECF09" mask="url(#mask-3)" stroke-width="2" stroke-linecap="square" fill="#FBF168" fill-rule="evenodd" xlink:href="#path-1"></use>
                </g>
                <g id="Combined-Shape-Copy-10" transform="translate(17.381907, 20.214679) rotate(7.000000) translate(-17.381907, -20.214679) ">
                    <use fill="black" fill-opacity="1" filter="url(#filter-5)" xlink:href="#path-4"></use>
                    <use stroke="#DECF09" mask="url(#mask-6)" stroke-width="2" stroke-linecap="square" fill="#FBF168" fill-rule="evenodd" xlink:href="#path-4"></use>
                </g>
                <g id="Combined-Shape-Copy-5" transform="translate(12.077947, 31.926610) scale(-1, 1) rotate(14.000000) translate(-12.077947, -31.926610) ">
                    <use fill="black" fill-opacity="1" filter="url(#filter-8)" xlink:href="#path-7"></use>
                    <use stroke="#DECF09" mask="url(#mask-9)" stroke-width="2" stroke-linecap="square" fill="#FBF168" fill-rule="evenodd" xlink:href="#path-7"></use>
                </g>
            </g>
            <g id="Group-7-Copy-2" transform="translate(34.500000, 54.000000) rotate(-8.000000) translate(-34.500000, -54.000000) translate(7.000000, 30.000000)">
                <g id="Combined-Shape" transform="translate(37.321429, 24.000000) rotate(25.000000) translate(-37.321429, -24.000000) ">
                    <use fill="black" fill-opacity="1" filter="url(#filter-11)" xlink:href="#path-10"></use>
                    <use stroke="#DECF09" mask="url(#mask-12)" stroke-width="2" stroke-linecap="square" fill="#FBF168" fill-rule="evenodd" xlink:href="#path-10"></use>
                </g>
                <g id="Combined-Shape-Copy-5" transform="translate(17.678571, 24.000000) scale(-1, 1) rotate(25.000000) translate(-17.678571, -24.000000) ">
                    <use fill="black" fill-opacity="1" filter="url(#filter-14)" xlink:href="#path-13"></use>
                    <use stroke="#DECF09" mask="url(#mask-15)" stroke-width="2" stroke-linecap="square" fill="#FBF168" fill-rule="evenodd" xlink:href="#path-13"></use>
                </g>
            </g>
            <g id="Group-7-Copy" transform="translate(39.000000, 77.000000) rotate(-8.000000) translate(-39.000000, -77.000000) translate(4.000000, 46.000000)">
                <g id="Combined-Shape" transform="translate(47.500000, 31.000000) rotate(25.000000) translate(-47.500000, -31.000000) ">
                    <use fill="black" fill-opacity="1" filter="url(#filter-17)" xlink:href="#path-16"></use>
                    <use stroke="#DECF09" mask="url(#mask-18)" stroke-width="2" stroke-linecap="square" fill="#FBF168" fill-rule="evenodd" xlink:href="#path-16"></use>
                </g>
                <g id="Combined-Shape-Copy-5" transform="translate(22.500000, 31.000000) scale(-1, 1) rotate(25.000000) translate(-22.500000, -31.000000) ">
                    <use fill="black" fill-opacity="1" filter="url(#filter-20)" xlink:href="#path-19"></use>
                    <use stroke="#DECF09" mask="url(#mask-21)" stroke-width="2" stroke-linecap="square" fill="#FBF168" fill-rule="evenodd" xlink:href="#path-19"></use>
                </g>
            </g>
            <g id="Group-6" transform="translate(42.000000, 100.000000) rotate(-8.000000) translate(-42.000000, -100.000000) translate(7.000000, 69.000000)">
                <g id="Combined-Shape-Copy-7" transform="translate(47.500000, 31.000000) rotate(25.000000) translate(-47.500000, -31.000000) ">
                    <use fill="black" fill-opacity="1" filter="url(#filter-23)" xlink:href="#path-22"></use>
                    <use stroke="#DECF09" mask="url(#mask-24)" stroke-width="2" stroke-linecap="square" fill="#FBF168" fill-rule="evenodd" xlink:href="#path-22"></use>
                </g>
                <g id="Combined-Shape-Copy-6" transform="translate(22.500000, 31.000000) scale(-1, 1) rotate(25.000000) translate(-22.500000, -31.000000) ">
                    <use fill="black" fill-opacity="1" filter="url(#filter-26)" xlink:href="#path-25"></use>
                    <use stroke="#DECF09" mask="url(#mask-27)" stroke-width="2" stroke-linecap="square" fill="#FBF168" fill-rule="evenodd" xlink:href="#path-25"></use>
                </g>
            </g>
            <g id="Group-5" transform="translate(9.000000, 97.000000)">
                <g id="Combined-Shape-Copy-9" transform="translate(47.500000, 31.000000) rotate(25.000000) translate(-47.500000, -31.000000) ">
                    <use fill="black" fill-opacity="1" filter="url(#filter-29)" xlink:href="#path-28"></use>
                    <use stroke="#DECF09" mask="url(#mask-30)" stroke-width="2" stroke-linecap="square" fill="#FBF168" fill-rule="evenodd" xlink:href="#path-28"></use>
                </g>
                <g id="Combined-Shape-Copy-8" transform="translate(22.500000, 31.000000) scale(-1, 1) rotate(25.000000) translate(-22.500000, -31.000000) ">
                    <use fill="black" fill-opacity="1" filter="url(#filter-32)" xlink:href="#path-31"></use>
                    <use stroke="#DECF09" mask="url(#mask-33)" stroke-width="2" stroke-linecap="square" fill="#FBF168" fill-rule="evenodd" xlink:href="#path-31"></use>
                </g>
            </g>
            <g id="Group-5-Copy" transform="translate(11.000000, 120.000000)">
                <g id="Combined-Shape-Copy-9" transform="translate(47.500000, 31.000000) rotate(25.000000) translate(-47.500000, -31.000000) ">
                    <use fill="black" fill-opacity="1" filter="url(#filter-35)" xlink:href="#path-34"></use>
                    <use stroke="#DECF09" mask="url(#mask-36)" stroke-width="2" stroke-linecap="square" fill="#FBF168" fill-rule="evenodd" xlink:href="#path-34"></use>
                </g>
                <g id="Combined-Shape-Copy-8" transform="translate(22.500000, 31.000000) scale(-1, 1) rotate(25.000000) translate(-22.500000, -31.000000) ">
                    <use fill="black" fill-opacity="1" filter="url(#filter-38)" xlink:href="#path-37"></use>
                    <use stroke="#DECF09" mask="url(#mask-39)" stroke-width="2" stroke-linecap="square" fill="#FBF168" fill-rule="evenodd" xlink:href="#path-37"></use>
                </g>
            </g>
            <g id="Group-5-Copy-2" transform="translate(11.000000, 140.000000)">
                <g id="Combined-Shape-Copy-9" transform="translate(47.500000, 31.000000) rotate(25.000000) translate(-47.500000, -31.000000) ">
                    <use fill="black" fill-opacity="1" filter="url(#filter-41)" xlink:href="#path-40"></use>
                    <use stroke="#DECF09" mask="url(#mask-42)" stroke-width="2" stroke-linecap="square" fill="#FBF168" fill-rule="evenodd" xlink:href="#path-40"></use>
                </g>
                <g id="Combined-Shape-Copy-8" transform="translate(22.500000, 31.000000) scale(-1, 1) rotate(25.000000) translate(-22.500000, -31.000000) ">
                    <use fill="black" fill-opacity="1" filter="url(#filter-44)" xlink:href="#path-43"></use>
                    <use stroke="#DECF09" mask="url(#mask-45)" stroke-width="2" stroke-linecap="square" fill="#FBF168" fill-rule="evenodd" xlink:href="#path-43"></use>
                </g>
            </g>
            <g id="Group-5-Copy-3" transform="translate(11.000000, 160.000000)">
                <g id="Combined-Shape-Copy-9" transform="translate(47.500000, 31.000000) rotate(25.000000) translate(-47.500000, -31.000000) ">
                    <use fill="black" fill-opacity="1" filter="url(#filter-47)" xlink:href="#path-46"></use>
                    <use stroke="#DECF09" mask="url(#mask-48)" stroke-width="2" stroke-linecap="square" fill="#FBF168" fill-rule="evenodd" xlink:href="#path-46"></use>
                </g>
                <g id="Combined-Shape-Copy-8" transform="translate(22.500000, 31.000000) scale(-1, 1) rotate(25.000000) translate(-22.500000, -31.000000) ">
                    <use fill="black" fill-opacity="1" filter="url(#filter-50)" xlink:href="#path-49"></use>
                    <use stroke="#DECF09" mask="url(#mask-51)" stroke-width="2" stroke-linecap="square" fill="#FBF168" fill-rule="evenodd" xlink:href="#path-49"></use>
                </g>
            </g>
        </g>
    </g>
</svg>