<?xml version="1.0" encoding="UTF-8" standalone="no"?>
<svg
   xmlns:dc="http://purl.org/dc/elements/1.1/"
   xmlns:cc="http://creativecommons.org/ns#"
   xmlns:rdf="http://www.w3.org/1999/02/22-rdf-syntax-ns#"
   xmlns:svg="http://www.w3.org/2000/svg"
   xmlns="http://www.w3.org/2000/svg"
   xmlns:sodipodi="http://sodipodi.sourceforge.net/DTD/sodipodi-0.dtd"
   xmlns:inkscape="http://www.inkscape.org/namespaces/inkscape"
   width="1000"
   height="800"
   version="1.1"
   id="svg2"
   inkscape:version="0.91 r13725"
   sodipodi:docname="butter.svg">
  <metadata
     id="metadata15">
    <rdf:RDF>
      <cc:Work
         rdf:about="">
        <dc:format>image/svg+xml</dc:format>
        <dc:type
           rdf:resource="http://purl.org/dc/dcmitype/StillImage" />
        <dc:title></dc:title>
      </cc:Work>
    </rdf:RDF>
  </metadata>
  <defs
     id="defs13" />
  <sodipodi:namedview
     pagecolor="#ffffff"
     bordercolor="#666666"
     borderopacity="1"
     objecttolerance="10"
     gridtolerance="10"
     guidetolerance="10"
     inkscape:pageopacity="0"
     inkscape:pageshadow="2"
     inkscape:window-width="1920"
     inkscape:window-height="1027"
     id="namedview11"
     showgrid="false"
     inkscape:zoom="0.834386"
     inkscape:cx="634.84804"
     inkscape:cy="378.21808"
     inkscape:window-x="-8"
     inkscape:window-y="-8"
     inkscape:window-maximized="1"
     inkscape:current-layer="svg2" />
  <g
     id="Butter"
     transform="matrix(7.3919256,0,0,8.3995454,18.646581,122.5036)">
    <polygon
       id="Combined-Shape"
       points="29,0 129,10 100,19 0,10 "
       style="fill:#f5eb56" />
    <polygon
       id="Combined-Shape-Copy"
       points="30.20155,2 124,10.947368 96.79845,19 3,10.947368 "
       style="fill:#fff77f" />
    <polygon
       id="Rectangle-12"
       points="100,17.984375 100,57.984375 0,49 0,9 "
       style="fill:#f5eb56" />
    <polygon
       id="Rectangle-12-Copy-3"
       points="98.959999,19.161882 98.959999,55.5 2,47.338118 2,11 "
       style="fill:#fff77f" />
    <polygon
       id="Rectangle-12-Copy"
       transform="matrix(-1,0,0,1,229,0)"
       points="129,17.984375 129,57.984375 100,49 100,9 "
       style="fill:#f5eb56" />
    <polygon
       id="Rectangle-12-Copy-2"
       transform="matrix(-1,0,0,1,229,0)"
       points="128,19.364763 128,56.606142 101,48.241379 101,11 "
       style="fill:#fff77f" />
  </g>
</svg>
