<?xml version="1.0" encoding="UTF-8" standalone="no"?>
<svg
   xmlns:dc="http://purl.org/dc/elements/1.1/"
   xmlns:cc="http://creativecommons.org/ns#"
   xmlns:rdf="http://www.w3.org/1999/02/22-rdf-syntax-ns#"
   xmlns:svg="http://www.w3.org/2000/svg"
   xmlns="http://www.w3.org/2000/svg"
   xmlns:sodipodi="http://sodipodi.sourceforge.net/DTD/sodipodi-0.dtd"
   xmlns:inkscape="http://www.inkscape.org/namespaces/inkscape"
   width="51px"
   height="52px"
   viewBox="0 0 51 52"
   version="1.1"
   id="svg4814"
   inkscape:version="0.91 r13725"
   sodipodi:docname="cayenne.svg">
  <metadata
     id="metadata4853">
    <rdf:RDF>
      <cc:Work
         rdf:about="">
        <dc:format>image/svg+xml</dc:format>
        <dc:type
           rdf:resource="http://purl.org/dc/dcmitype/StillImage" />
      </cc:Work>
    </rdf:RDF>
  </metadata>
  <sodipodi:namedview
     pagecolor="#ffffff"
     bordercolor="#666666"
     borderopacity="1"
     objecttolerance="10"
     gridtolerance="10"
     guidetolerance="10"
     inkscape:pageopacity="0"
     inkscape:pageshadow="2"
     inkscape:window-width="732"
     inkscape:window-height="480"
     id="namedview4851"
     showgrid="false"
     inkscape:zoom="4.5384615"
     inkscape:cx="25.5"
     inkscape:cy="26"
     inkscape:window-x="0"
     inkscape:window-y="0"
     inkscape:window-maximized="0"
     inkscape:current-layer="svg4814" />
  <!-- Generator: Sketch 42 (36781) - http://www.bohemiancoding.com/sketch -->
  <title
     id="title4816">cayenne</title>
  <desc
     id="desc4818">Created with Sketch.</desc>
  <defs
     id="defs4820" />
  <g
     id="Page-1"
     transform="translate(0,0.22033898)"
     style="fill:none;fill-rule:evenodd;stroke:none;stroke-width:1">
    <g
       id="cayenne"
       transform="translate(-9,-7)">
      <g
         id="Cheyenne-Pepper"
         transform="translate(21,7)">
        <path
           d="M 30.40625,51.038086 C 31.694836,51.317945 36.93988,50.937038 36,50 33.689695,47.696681 29,48 24.59375,45.243164 19.235087,41.890437 12,34 9.7480469,22.520508 8.9236403,18.318036 12.318359,11.511719 9.6591797,9.7558594 7,8 5.0103526,10.744865 3,14 3,14 -2,44 30.40625,51.038086 Z"
           id="Path-3"
           inkscape:connector-curvature="0"
           style="fill:#d5132b" />
        <path
           d="M 7.029586,9.4172112 C 4.6795025,8.4452721 2.848504,11.006928 1,14 c 0,0 -5,30 27.40625,37.038086 0.452692,0.09832 1.393683,0.115083 2.383263,0.05484 -0.149906,-0.01403 -0.279429,-0.03229 -0.383263,-0.05484 C -2,44 3,14 3,14 4.2908252,11.909914 5.5731142,10.030201 7.029586,9.4172112 Z"
           id="Combined-Shape"
           inkscape:connector-curvature="0"
           style="fill:#a80f21" />
        <path
           d="M 27,48 C 23,47 23.335762,47.087069 20,45 15.943212,42.46181 10.907277,37.268193 8,30 6,25 7,13 8,18 c 1,5 0,5 2,11 3.263851,9.791553 11,16 17,19 z"
           id="Path-3-Copy"
           inkscape:connector-curvature="0"
           style="fill:#ffffff;fill-opacity:0.22000002" />
        <path
           d="M 9.348506,6.2310859 C 9.1576373,7.4005043 8.6541792,8.913275 9.1090531,9.8489274 c 0.4241894,0.8725356 1.5008389,0.2419216 1.0279959,0.2419216 -0.2114121,0 -0.9963025,-4.2572128 1.387438,-8.5883029 0.321975,-0.585007 0.611808,-0.88656086 0.186188,-1.23090375 C 11.119059,-0.20699774 9.6537302,4.3610317 9.348506,6.2310859 Z"
           id="Path-4"
           transform="matrix(0.97029573,0.2419219,-0.2419219,0.97029573,1.5855221,-2.3651494)"
           inkscape:connector-curvature="0"
           style="fill:#1d3006" />
        <path
           d="M 6.1939618,8.3572287 C 5.5970085,8.9721363 3.611146,10.238198 4.4031019,10.201951 l -0.3401028,1.349798 c 0.9570867,-0.0438 1.7177739,-0.759543 2.5959438,-1.210555 0.7999068,-0.4108178 0.2613501,2.73366 1.0082622,1.827672 2.5320989,-3.0713802 -0.052668,-1.12841 3.5014119,-0.918809 0.250009,0.01474 0.03112,-0.600445 -0.03654,-0.884709 C 11.036613,9.9642394 10.93491,9.528457 10.687976,9.2305711 10.386686,8.867112 9.2950384,8.3503361 8.8015502,8.3387577 8.0200095,8.3204211 6.1939618,8.3572287 6.1939618,8.3572287 Z"
           id="path4829"
           transform="matrix(0.95630476,0.2923717,-0.2923717,0.95630476,3.3565893,-1.7921893)"
           inkscape:connector-curvature="0"
           style="fill:#33560b" />
      </g>
      <g
         id="Cheyenne-Pepper-Copy"
         transform="matrix(0.79863551,-0.60181502,0.60181502,0.79863551,0.07805246,22.369055)">
        <path
           d="M 30.40625,51.038086 C 31.694836,51.317945 36.93988,50.937038 36,50 33.689695,47.696681 29,48 24.59375,45.243164 19.235087,41.890437 12,34 9.7480469,22.520508 8.9236403,18.318036 12.318359,11.511719 9.6591797,9.7558594 7,8 5.0103526,10.744865 3,14 3,14 -2,44 30.40625,51.038086 Z"
           id="path4832"
           inkscape:connector-curvature="0"
           style="fill:#d5132b" />
        <path
           d="M 7.029586,9.4172112 C 4.6795025,8.4452721 2.848504,11.006928 1,14 c 0,0 -5,30 27.40625,37.038086 0.452692,0.09832 1.393683,0.115083 2.383263,0.05484 -0.149906,-0.01403 -0.279429,-0.03229 -0.383263,-0.05484 C -2,44 3,14 3,14 4.2908252,11.909914 5.5731142,10.030201 7.029586,9.4172112 Z"
           id="path4834"
           inkscape:connector-curvature="0"
           style="fill:#a80f21" />
        <path
           d="M 27,48 C 23,47 23.335762,47.087069 20,45 15.943212,42.46181 10.907277,37.268193 8,30 6,25 7,13 8,18 c 1,5 0,5 2,11 3.263851,9.791553 11,16 17,19 z"
           id="path4836"
           inkscape:connector-curvature="0"
           style="fill:#ffffff;fill-opacity:0.22000002" />
        <path
           d="M 9.348506,6.2310859 C 9.1576373,7.4005043 8.6541792,8.913275 9.1090531,9.8489274 c 0.4241894,0.8725356 1.5008389,0.2419216 1.0279959,0.2419216 -0.2114121,0 -0.9963025,-4.2572128 1.387438,-8.5883029 0.321975,-0.585007 0.611808,-0.88656086 0.186188,-1.23090375 C 11.119059,-0.20699774 9.6537302,4.3610317 9.348506,6.2310859 Z"
           id="path4838"
           transform="matrix(0.97029573,0.2419219,-0.2419219,0.97029573,1.5855221,-2.3651494)"
           inkscape:connector-curvature="0"
           style="fill:#1d3006" />
        <path
           d="M 6.1939618,8.3572287 C 5.5970085,8.9721363 3.611146,10.238198 4.4031019,10.201951 l -0.3401028,1.349798 c 0.9570867,-0.0438 1.7177739,-0.759543 2.5959438,-1.210555 0.7999068,-0.4108178 0.2613501,2.73366 1.0082622,1.827672 2.5320989,-3.0713802 -0.052668,-1.12841 3.5014119,-0.918809 0.250009,0.01474 0.03112,-0.600445 -0.03654,-0.884709 C 11.036613,9.9642394 10.93491,9.528457 10.687976,9.2305711 10.386686,8.867112 9.2950384,8.3503361 8.8015502,8.3387577 8.0200095,8.3204211 6.1939618,8.3572287 6.1939618,8.3572287 Z"
           id="path4840"
           transform="matrix(0.95630476,0.2923717,-0.2923717,0.95630476,3.3565893,-1.7921893)"
           inkscape:connector-curvature="0"
           style="fill:#33560b" />
      </g>
      <g
         id="Powder"
         transform="translate(34,24)">
        <path
           d="m 4.5643936,12.34329 c 5.7481014,0.786767 9.5965184,2.436171 14.8612324,0.35185 0.380459,-0.150625 0.657262,-0.758391 0.478004,-1.124109 C 19.359485,10.460877 18.011813,9.8676119 17.49033,8.7467831 17.137169,7.9877315 17.727762,7.0186292 17.422911,6.2392004 15.815699,2.129951 15.179553,4.9549266 11.928199,2.3208008 11.401095,1.8937609 12.025662,0.40494819 11.345929,0.37838925 8.7912585,0.27857158 0.88287273,10.221934 3.7065787,12.172794 l 0.8578149,0.170496 z"
           id="Path-5"
           inkscape:connector-curvature="0"
           style="fill:#7a3925" />
        <ellipse
           id="Oval"
           transform="matrix(0.34202014,-0.93969262,0.93969262,0.34202014,4.0014773,12.9326)"
           cx="11.235572"
           cy="3.6089485"
           rx="0.62195122"
           ry="1.2352941"
           style="fill:#673425" />
        <path
           d="m 12.536585,4.9411765 c -0.477396,2.4410328 -4.4648996,7.2668585 -2.103944,7.5151085 2.933213,0.308421 7.257312,1.13195 7.257312,-1.700138 C 16.268293,9.4705882 14.885189,8.9708467 13.641287,5.7647059 L 12.536585,4.9411765 Z"
           id="Path-6"
           inkscape:connector-curvature="0"
           style="fill:#181f26;fill-opacity:0.1860564" />
        <path
           d="M 6.9412264,3.8746037 C 6.378574,5.1211745 5.6662275,6.2050296 5.2532692,7.6143161 3.5945523,13.274954 6.1629444,9.9411602 6.9412264,6.7215819 7.2099415,5.6099678 8.0515851,5.5264527 7.3595042,4.4475525 L 6.9412264,3.8746037 Z"
           id="Path-7"
           transform="matrix(0.99026807,0.1391731,-0.1391731,0.99026807,1.072365,-0.78738339)"
           inkscape:connector-curvature="0"
           style="fill:#ff6c6c;fill-opacity:0.12375452" />
        <path
           d="m 20,14 c 2,0 5.997203,-0.859793 2.104492,-2.981934 L 20,14 Z"
           id="Path-8"
           inkscape:connector-curvature="0"
           style="fill:#673425" />
        <path
           d="m 15,15.018066 c 0.53405,0 1.601403,-0.288334 0.561952,-1 l -0.561952,1 z"
           id="Path-8-Copy"
           transform="matrix(-1,0,0,1,32,0)"
           inkscape:connector-curvature="0"
           style="fill:#673425" />
        <path
           d="m 5,8.0180664 c 0.5340499,0 1.6014029,-0.288334 0.5619519,-1 L 5,8.0180664 Z"
           id="Path-8-Copy-2"
           transform="matrix(-1,0,0,1,12,0)"
           inkscape:connector-curvature="0"
           style="fill:#673425" />
        <path
           d="m 0.92105232,10 c 0,0.518066 1.68585578,-0.9638672 0.84292788,-0.9819336 C 0.92105232,9 0.92105232,9.4819336 0.92105232,10 Z"
           id="Path-8-Copy-3"
           transform="matrix(-1,0,0,1,2.921052,0)"
           inkscape:connector-curvature="0"
           style="fill:#8a3e2e" />
      </g>
    </g>
  </g>
</svg>
