<?xml version="1.0" encoding="UTF-8"?>
<svg width="51px" height="52px" viewBox="0 0 51 52" version="1.1" xmlns="http://www.w3.org/2000/svg" xmlns:xlink="http://www.w3.org/1999/xlink">
    <!-- Generator: Sketch 42 (36781) - http://www.bohemiancoding.com/sketch -->
    <title>Cheyenne</title>
    <desc>Created with Sketch.</desc>
    <defs></defs>
    <g id="Page-1" stroke="none" stroke-width="1" fill="none" fill-rule="evenodd">
        <g id="Cheyenne" transform="translate(-9.000000, -7.000000)">
            <g id="Cheyenne-Pepper" transform="translate(21.000000, 7.000000)">
                <path d="M30.40625,51.0380859 C31.6948357,51.3179448 36.9398804,50.937038 36,50 C33.6896947,47.6966815 29,48 24.59375,45.2431641 C19.2350868,41.8904366 12,34 9.74804688,22.5205078 C8.9236403,18.3180363 12.3183594,11.5117188 9.65917969,9.75585938 C7,8 5.01035259,10.7448651 3,14 C3,14 -2,44 30.40625,51.0380859 Z" id="Path-3" fill="#D5132B"></path>
                <path d="M7.02958602,9.41721118 C4.67950251,8.44527205 2.84850402,11.0069281 1,14 C1,14 -4,44 28.40625,51.0380859 C28.858942,51.1364029 29.799933,51.1531695 30.7895134,51.0929222 C30.6396068,51.0788973 30.5100836,51.0606368 30.40625,51.0380859 C-2,44 3,14 3,14 C4.29082524,11.9099138 5.57311418,10.0302007 7.02958602,9.41721118 Z" id="Combined-Shape" fill="#A80F21"></path>
                <path d="M27,48 C23,47 23.3357616,47.0870689 20,45 C15.9432118,42.46181 10.9072772,37.2681929 8,30 C6,25 7,13 8,18 C9,23 8,23 10,29 C13.2638511,38.7915534 21,45 27,48 Z" id="Path-3-Copy" fill-opacity="0.219999999" fill="#FFFFFF"></path>
                <path d="M9.34850597,6.23108589 C9.15763728,7.40050429 8.65417922,8.91327496 9.10905307,9.84892735 C9.53324245,10.7214633 10.609892,10.0908492 10.1370488,10.0908492 C9.92563686,10.0908492 9.14074648,5.83363623 11.5244867,1.50254611 C11.8464621,0.917539097 12.1362953,0.615985238 11.7106751,0.271642346 C11.1190586,-0.206997736 9.65373017,4.36103169 9.34850597,6.23108589 Z" id="Path-4" fill="#1D3006" transform="translate(10.424059, 5.273946) rotate(14.000000) translate(-10.424059, -5.273946) "></path>
                <path d="M6.19396181,8.35722866 C5.59700849,8.97213626 3.61114597,10.2381985 4.40310187,10.2019514 L4.0629991,11.5517486 C5.02008583,11.5079437 5.78077299,10.7922057 6.65894293,10.3411937 C7.45884967,9.93037615 6.92029296,13.0748543 7.66720511,12.1688664 C10.1993044,9.09748584 7.61453726,11.0404557 11.1686174,11.2500571 C11.4186259,11.2648013 11.1997328,10.6496124 11.1320774,10.3653479 C11.0366129,9.96423939 10.9349098,9.52845695 10.6879763,9.2305711 C10.3866856,8.86711205 9.29503838,8.35033609 8.80155024,8.33875775 C8.02000945,8.32042106 6.19396181,8.35722866 6.19396181,8.35722866 Z" id="Path-3" fill="#33560B" transform="translate(7.674204, 10.333637) rotate(17.000000) translate(-7.674204, -10.333637) "></path>
            </g>
            <g id="Cheyenne-Pepper-Copy" transform="translate(30.500000, 32.000000) rotate(-37.000000) translate(-30.500000, -32.000000) translate(12.000000, 6.000000)">
                <path d="M30.40625,51.0380859 C31.6948357,51.3179448 36.9398804,50.937038 36,50 C33.6896947,47.6966815 29,48 24.59375,45.2431641 C19.2350868,41.8904366 12,34 9.74804688,22.5205078 C8.9236403,18.3180363 12.3183594,11.5117188 9.65917969,9.75585938 C7,8 5.01035259,10.7448651 3,14 C3,14 -2,44 30.40625,51.0380859 Z" id="Path-3" fill="#D5132B"></path>
                <path d="M7.02958602,9.41721118 C4.67950251,8.44527205 2.84850402,11.0069281 1,14 C1,14 -4,44 28.40625,51.0380859 C28.858942,51.1364029 29.799933,51.1531695 30.7895134,51.0929222 C30.6396068,51.0788973 30.5100836,51.0606368 30.40625,51.0380859 C-2,44 3,14 3,14 C4.29082524,11.9099138 5.57311418,10.0302007 7.02958602,9.41721118 Z" id="Combined-Shape" fill="#A80F21"></path>
                <path d="M27,48 C23,47 23.3357616,47.0870689 20,45 C15.9432118,42.46181 10.9072772,37.2681929 8,30 C6,25 7,13 8,18 C9,23 8,23 10,29 C13.2638511,38.7915534 21,45 27,48 Z" id="Path-3-Copy" fill-opacity="0.219999999" fill="#FFFFFF"></path>
                <path d="M9.34850597,6.23108589 C9.15763728,7.40050429 8.65417922,8.91327496 9.10905307,9.84892735 C9.53324245,10.7214633 10.609892,10.0908492 10.1370488,10.0908492 C9.92563686,10.0908492 9.14074648,5.83363623 11.5244867,1.50254611 C11.8464621,0.917539097 12.1362953,0.615985238 11.7106751,0.271642346 C11.1190586,-0.206997736 9.65373017,4.36103169 9.34850597,6.23108589 Z" id="Path-4" fill="#1D3006" transform="translate(10.424059, 5.273946) rotate(14.000000) translate(-10.424059, -5.273946) "></path>
                <path d="M6.19396181,8.35722866 C5.59700849,8.97213626 3.61114597,10.2381985 4.40310187,10.2019514 L4.0629991,11.5517486 C5.02008583,11.5079437 5.78077299,10.7922057 6.65894293,10.3411937 C7.45884967,9.93037615 6.92029296,13.0748543 7.66720511,12.1688664 C10.1993044,9.09748584 7.61453726,11.0404557 11.1686174,11.2500571 C11.4186259,11.2648013 11.1997328,10.6496124 11.1320774,10.3653479 C11.0366129,9.96423939 10.9349098,9.52845695 10.6879763,9.2305711 C10.3866856,8.86711205 9.29503838,8.35033609 8.80155024,8.33875775 C8.02000945,8.32042106 6.19396181,8.35722866 6.19396181,8.35722866 Z" id="Path-3" fill="#33560B" transform="translate(7.674204, 10.333637) rotate(17.000000) translate(-7.674204, -10.333637) "></path>
            </g>
            <g id="Powder" transform="translate(34.000000, 24.000000)">
                <path d="M4.56439358,12.3432904 C10.3124954,13.1300565 14.160912,14.7794614 19.4256264,12.6951402 C19.8060846,12.5445153 20.0828876,11.9367487 19.90363,11.5710306 C19.3594853,10.4608766 18.0118131,9.86761191 17.4903296,8.74678309 C17.1371688,7.98773154 17.7277619,7.01862923 17.4229111,6.23920037 C15.8156985,2.12995097 15.1795527,4.95492662 11.9281988,2.32080078 C11.401095,1.89376088 12.0256623,0.404948187 11.3459294,0.378389246 C8.79125851,0.278571575 0.88287273,10.2219343 3.7065787,12.1727941 L4.56439358,12.3432904 Z" id="Path-5" fill="#7A3925"></path>
                <ellipse id="Oval" fill="#673425" transform="translate(11.235572, 3.608949) rotate(-70.000000) translate(-11.235572, -3.608949) " cx="11.235572" cy="3.60894853" rx="0.62195122" ry="1.23529412"></ellipse>
                <path d="M12.5365854,4.94117647 C12.0591892,7.38220933 8.07168544,12.2080347 10.432641,12.4562845 C13.3658537,12.7647059 17.6899533,13.5882353 17.6899533,10.7561466 C16.2682927,9.47058824 14.885189,8.97084668 13.6412866,5.76470588 L12.5365854,4.94117647 Z" id="Path-6" fill-opacity="0.186056386" fill="#181F26"></path>
                <path d="M6.94122643,3.87460366 C6.37857403,5.12117447 5.66622751,6.20502964 5.25326923,7.6143161 C3.59455235,13.2749539 6.16294436,9.94116022 6.94122643,6.7215819 C7.20994152,5.60996784 8.05158511,5.52645275 7.35950416,4.44755248 L6.94122643,3.87460366 Z" id="Path-7" fill-opacity="0.123754529" fill="#FF6C6C" transform="translate(6.166236, 7.274075) rotate(8.000000) translate(-6.166236, -7.274075) "></path>
                <path d="M20,14 C22,14 25.9972032,13.1402073 22.1044922,11.0180664 L20,14 Z" id="Path-8" fill="#673425"></path>
                <path d="M15,15.0180664 C15.5340499,15.0180664 16.6014029,14.7297324 15.5619519,14.0180664 L15,15.0180664 Z" id="Path-8-Copy" fill="#673425" transform="translate(16.000000, 15.018066) scale(-1, 1) translate(-16.000000, -15.018066) "></path>
                <path d="M5,8.01806641 C5.53404989,8.01806641 6.60140286,7.72973245 5.56195191,7.01806641 L5,8.01806641 Z" id="Path-8-Copy-2" fill="#673425" transform="translate(6.000000, 8.018066) scale(-1, 1) translate(-6.000000, -8.018066) "></path>
                <path d="M0.921052324,10 C0.921052324,10.5180664 2.60690807,9.03613281 1.7639802,9.01806641 C0.921052324,9 0.921052324,9.48193359 0.921052324,10 Z" id="Path-8-Copy-3" fill="#8A3E2E" transform="translate(1.460526, 9.563701) scale(-1, 1) translate(-1.460526, -9.563701) "></path>
            </g>
        </g>
    </g>
</svg>