<?xml version="1.0" encoding="UTF-8"?>
<svg width="189px" height="180px" viewBox="0 0 189 180" version="1.1" xmlns="http://www.w3.org/2000/svg" xmlns:xlink="http://www.w3.org/1999/xlink">
    <!-- Generator: Sketch 42 (36781) - http://www.bohemiancoding.com/sketch -->
    <title>cream</title>
    <desc>Created with Sketch.</desc>
    <defs>
        <linearGradient x1="50%" y1="50%" x2="16.089527%" y2="0%" id="linearGradient-1">
            <stop stop-color="#FFFFFF" offset="0%"></stop>
            <stop stop-color="#E6E6E6" offset="100%"></stop>
        </linearGradient>
    </defs>
    <g id="Page-1" stroke="none" stroke-width="1" fill="none" fill-rule="evenodd">
        <g id="cream" transform="translate(-1.000000, 0.000000)">
            <polygon id="Rectangle-13" fill="#FFFFFF" points="39 48.3756868 105 40.1491672 105 169.305525 39 180"></polygon>
            <g id="Body" transform="translate(2.000000, 30.000000)">
                <polygon id="Rectangle-13-Copy-7" fill="#37B4EE" points="37 110 103 102.356445 103 139.356445 37 150"></polygon>
                <polyline id="Rectangle-13-Copy-2" fill="#F8F8F8" points="37 18.3756868 0 0.27734375 0 129.433701 37 150"></polyline>
            </g>
            <g id="Cap" transform="translate(2.000000, 0.000000)">
                <polygon id="Rectangle-13-Copy-5" fill="#FFFFFF" points="27 5.82352941 84 0 84 6.82352941 27 13"></polygon>
                <polygon id="Rectangle-13-Copy-3" fill="#208ABB" transform="translate(18.500000, 32.000000) scale(-1, 1) translate(-18.500000, -32.000000) " points="0 51 37 29 10 13"></polygon>
                <polygon id="Rectangle-13-Copy-6" fill="url(#linearGradient-1)" transform="translate(18.500000, 37.500000) scale(-1, 1) translate(-18.500000, -37.500000) " points="0 51 37 29 7 24"></polygon>
                <polygon id="Rectangle-13-Copy-4" fill="#37B3EE" transform="translate(65.000000, 29.000000) scale(-1, 1) translate(-65.000000, -29.000000) " points="93 51 27 41 46 7 103 13"></polygon>
            </g>
            <g id="Lines" transform="translate(1.000000, 6.000000)" fill="#DFDFDF">
                <rect id="Rectangle-14" x="37" y="45" width="1" height="128"></rect>
                <rect id="Rectangle-14-Copy-2" transform="translate(70.500000, 40.500000) rotate(81.000000) translate(-70.500000, -40.500000) " x="70" y="7" width="1" height="67"></rect>
                <rect id="Rectangle-14-Copy-3" transform="translate(56.500000, 4.000000) rotate(84.000000) translate(-56.500000, -4.000000) " x="56" y="-25" width="1" height="58"></rect>
                <rect id="Rectangle-14-Copy" transform="translate(19.500000, 34.500000) rotate(-60.000000) translate(-19.500000, -34.500000) " x="19" y="13" width="1" height="43"></rect>
            </g>
            <g id="Cap" transform="translate(59.000000, 17.000000)">
                <path d="M10.3175485,0.00494619664 C10.2121023,0.0016568753 10.1062446,0 10,0 C4.4771525,0 0,4.4771525 0,10 C0,15.5228475 4.4771525,20 10,20 C15.5228475,20 20,15.5228475 20,10 C20,9.89375536 19.9983431,9.78789771 19.9950538,9.68245147 C19.8328127,14.7178127 15.6997902,18.75 10.625,18.75 C5.44733047,18.75 1.25,14.5526695 1.25,9.375 C1.25,4.30020975 5.28218734,0.167187319 10.3175485,0.00494619664 Z" id="Combined-Shape" fill="#C6C6C6"></path>
                <circle id="Oval-20-Copy" fill="#FFFFFF" cx="10.625" cy="9.375" r="9.375"></circle>
            </g>
            <path d="M46.6729561,95.2546041 C46.6729561,98.0812849 47.8084503,99.343918 50.0794729,99.0425414 C50.4877466,98.9883613 50.8736871,98.8971453 51.2373058,98.7688908 C51.6009246,98.6406363 52.0442777,98.448469 52.5673784,98.1923832 C52.9884107,99.0965147 53.2690946,100.045923 53.4094387,101.040637 C53.0394407,101.236405 52.6949649,101.402118 52.376001,101.53778 C52.0570372,101.673442 51.7508365,101.784076 51.4573898,101.869685 C51.1639431,101.955293 50.8736903,102.027144 50.5866229,102.08524 C50.2995554,102.143335 50.0029235,102.1927 49.6967182,102.233335 C48.6122411,102.377251 47.6585536,102.320479 46.8356269,102.063017 C46.0127001,101.805555 45.3237486,101.386988 44.7687515,100.807302 C44.2137544,100.227617 43.7959181,99.5030735 43.5152299,98.6336511 C43.2345417,97.7642287 43.0941997,96.796196 43.0941997,95.729524 C43.0941997,94.662852 43.2409209,93.6533912 43.5343676,92.7011114 C43.8278143,91.7488316 44.2520299,90.9025438 44.807027,90.1622228 C45.3620241,89.4219017 46.047786,88.8109027 46.8643335,88.3292073 C47.6808809,87.847512 48.6058621,87.5380973 49.639305,87.400954 C50.2517156,87.3196838 50.832221,87.2893139 51.3808388,87.3098432 C51.9294566,87.3303725 52.541858,87.4357684 53.2180614,87.6260341 C53.1925443,88.1760897 53.0968566,88.7187827 52.9309954,89.2541293 C52.7651342,89.7894758 52.5928963,90.2623282 52.4142765,90.6727006 C52.1591054,90.6132293 51.9262653,90.5641292 51.7157492,90.5253988 C51.5052331,90.4866684 51.3042889,90.460002 51.1129106,90.4453987 C50.9215323,90.4307954 50.7301568,90.4261923 50.5387785,90.4315891 C50.3474002,90.4369859 50.1432664,90.4540756 49.926371,90.4828588 C48.8929282,90.6200021 48.0923409,91.089574 47.5245853,91.8915884 C46.9568297,92.6936029 46.6729561,93.8145969 46.6729561,95.2546041 Z M55.1126971,86.9546059 C55.7378662,86.8049757 56.3151821,86.6650301 56.8446621,86.534765 C57.3741421,86.4044999 57.9323204,86.300427 58.5192139,86.2225432 C59.2209343,86.1294211 59.9226443,86.1062998 60.6243647,86.1531785 C61.3260852,86.2000572 61.9512449,86.3604261 62.4998627,86.63429 C63.0484805,86.908154 63.4950232,87.322224 63.8395041,87.8765125 C64.1839851,88.4308011 64.356223,89.1679366 64.356223,90.0879412 C64.356223,90.581277 64.3019999,91.0318016 64.1935522,91.4395285 C64.0851045,91.8472554 63.9447625,92.215876 63.7725221,92.5454014 C63.6002816,92.8749268 63.4089062,93.1669874 63.19839,93.4215918 C62.9878739,93.6761962 62.7805505,93.8970405 62.5764136,94.0841313 L65.5619003,99.8479415 C65.255695,99.9419101 64.920788,100.026354 64.5571692,100.101275 C64.1935504,100.176196 63.8650226,100.233126 63.5715759,100.272068 C63.3164048,100.305931 63.0197729,100.331962 62.6816712,100.350163 C62.3435695,100.368364 62.0469376,100.367729 61.7917665,100.348258 L59.0742082,94.1688925 L59.2464478,94.0460354 C59.3995505,93.9457174 59.5685988,93.7899518 59.7535978,93.5787339 C59.9385968,93.3675159 60.1108347,93.121328 60.2703166,92.8401626 C60.4297985,92.5589972 60.5637613,92.2512225 60.672209,91.9168293 C60.7806567,91.5824361 60.8348798,91.2419105 60.8348798,90.8952421 C60.8348798,90.2285721 60.6562627,89.7656137 60.2990232,89.5063531 C59.9417837,89.2470924 59.5016202,89.1521726 58.9785195,89.2215909 C58.850934,89.2385221 58.7424879,89.2595801 58.653178,89.2847654 C58.5638682,89.3099507 58.5064555,89.3309029 58.4809384,89.3476225 L58.4809384,100.787623 C57.8047351,100.997359 57.2497463,101.131008 56.8159555,101.188575 C56.343889,101.25122 55.7761419,101.266564 55.1126971,101.234606 L55.1126971,86.9546059 Z M74.1547431,91.2676259 C74.1547431,91.7342949 74.0973305,92.2619086 73.9825035,92.850483 L70.2889207,93.3406409 L70.2889207,96.1806409 L75.0924921,95.5431816 C75.2073191,96.0879463 75.2647318,96.5869889 75.2647318,97.0403245 C75.2647318,97.5336603 75.2073191,98.0679407 75.0924921,98.6431816 L66.9015417,99.730164 L66.9015417,85.350164 L74.9776657,84.2784197 C75.0286999,84.564982 75.066975,84.8332333 75.0924921,85.0831816 C75.1180092,85.33313 75.1307676,85.5714345 75.1307676,85.7981023 C75.1307676,86.2381045 75.0797342,86.7715383 74.9776657,87.3984197 L70.2889207,88.0206409 L70.2889207,90.2206409 L73.9825035,89.730483 C74.0973305,90.3019144 74.1547431,90.8142903 74.1547431,91.2676259 Z M79.2453806,98.0520714 C78.9519338,98.1443469 78.6840082,98.2199017 78.4415957,98.2787379 C78.1991832,98.3375741 77.9631535,98.3822297 77.7334995,98.412706 C77.5038456,98.4431823 77.2391095,98.4616476 76.9392835,98.4681026 C76.6394575,98.4745576 76.3045505,98.4690021 75.9345525,98.4514358 L80.221405,83.6025478 C80.5531274,83.5185263 80.8625177,83.4441356 81.1495852,83.3793734 C81.4366526,83.3146112 81.7269054,83.2627599 82.0203521,83.223818 C82.2627646,83.1916486 82.5275006,83.1698499 82.8145681,83.1584214 C83.1016355,83.1469928 83.4301634,83.1367284 83.8001614,83.1276279 L88.0296008,96.866359 C87.3023632,97.0828678 86.6644451,97.2275223 86.1158273,97.3003268 C85.8606563,97.3341894 85.605489,97.3547182 85.3503179,97.361914 C85.0951469,97.3691097 84.8208421,97.3655118 84.5273953,97.3511201 L83.8001614,94.6676279 C83.4429219,94.8217027 83.1016357,94.9469924 82.7762926,95.0435007 C82.4509495,95.1400091 82.1288009,95.2094263 81.809837,95.2517545 C81.5163903,95.2906964 81.2165688,95.3071512 80.9103635,95.3011194 C80.6041582,95.2950875 80.2851991,95.2674158 79.9534768,95.2181033 L79.2453806,98.0520714 Z M81.9246634,87.1365164 L80.6424352,92.4466749 C80.8593306,92.4845587 81.0634644,92.5108019 81.2548427,92.5254052 C81.446221,92.5400084 81.6439756,92.5337652 81.8481125,92.5066751 C82.0650079,92.477892 82.2787105,92.432866 82.4892266,92.3715959 C82.6997427,92.3103258 82.9198245,92.2311203 83.1494785,92.133977 L81.9246634,87.1365164 Z M89.675446,82.3679466 C89.9433756,82.2923908 90.2336284,82.2172064 90.5462129,82.1423913 C90.8587975,82.0675761 91.1490502,82.0123916 91.4169798,81.9768359 C91.6721509,81.9429733 91.9496453,81.9228149 92.2494713,81.9163599 C92.5492973,81.9099049 92.8267917,81.9097462 93.0819628,81.9158839 L95.7995211,88.9952495 L98.6127681,81.1819168 C98.8679392,81.108054 99.126296,81.0371024 99.3878463,80.9690598 C99.6493967,80.9010172 99.9077535,80.8500654 100.162925,80.8162028 C100.430854,80.7806472 100.705159,80.760912 100.985847,80.7569967 C101.266535,80.7530814 101.54084,80.753346 101.80877,80.7577905 L102.459453,94.9514414 C102.255316,95.0185317 102.028855,95.0885838 101.780063,95.1616 C101.531271,95.2346162 101.202744,95.2982134 100.79447,95.3523935 C100.34792,95.4116529 99.8184484,95.4219172 99.2060379,95.3831868 L98.9381096,87.1387423 L96.8329588,92.8781069 C96.6033048,92.9485834 96.3736543,93.0123922 96.1440003,93.0695353 C95.9143463,93.1266784 95.7038334,93.1679478 95.5124551,93.1933447 C95.3210768,93.2187416 95.1233222,93.2349848 94.9191853,93.2420747 C94.7150484,93.2491647 94.5045355,93.2404346 94.28764,93.2158841 L92.412142,88.0847726 L92.201627,96.3127091 C91.6657677,96.503821 91.1554332,96.6315445 90.6706082,96.6958834 C90.2240588,96.7551428 89.7073451,96.763714 89.1204517,96.7215973 L89.675446,82.3679466 Z" id="CREAM" fill="#51BDEF"></path>
            <path d="M-14.4375122,108.171192 C-14.4375122,111.861037 -12.8161065,114.4995 -9.85159689,114.106094 C-9.31865134,114.035369 -8.81485881,113.916299 -8.34020419,113.748881 C-7.86554956,113.581462 -7.28681268,113.330614 -6.6039762,112.996329 C-6.05437611,114.176549 -5.68798154,115.415872 -5.50478151,116.714335 C-5.98776341,116.969884 -6.43742947,117.186199 -6.85379318,117.363287 C-7.27015689,117.540375 -7.66986005,117.684792 -8.05291466,117.796543 C-8.43596927,117.908294 -8.81485457,118.002086 -9.1895819,118.077921 C-9.56430924,118.153757 -9.95152168,118.218196 -10.3512308,118.271239 C-11.7668675,118.459102 -13.0117763,118.384993 -14.0859946,118.048912 C-15.160213,117.712831 -16.0595451,117.166448 -16.784018,116.409748 C-17.5084908,115.653048 -18.0539191,114.707256 -18.4203192,113.572344 C-18.7867192,112.437432 -18.9699165,111.173797 -18.9699165,109.781403 C-18.9699165,108.389008 -18.7783921,107.071295 -18.3953375,105.828224 C-18.0122829,104.585153 -17.4585274,103.48044 -16.7340546,102.514052 C-16.0095817,101.547664 -15.1144132,100.750088 -14.0485221,100.1213 C-12.982631,99.4925129 -11.7751944,99.0886143 -10.4261759,98.9095925 C-9.62675761,98.8035054 -8.86898703,98.7638616 -8.15284145,98.7906598 C-7.43669587,98.8174581 -6.63728955,98.955038 -5.75459848,99.2034038 C-5.78790758,99.9214263 -5.91281482,100.629838 -6.12932395,101.32866 C-6.34583308,102.027481 -6.57066611,102.644726 -6.80382978,103.180411 C-7.13692075,103.102779 -7.4408617,103.038686 -7.71566175,102.988128 C-7.99046179,102.937571 -8.25276699,102.902762 -8.50258522,102.883699 C-8.75240344,102.864636 -9.00221792,102.858628 -9.25203615,102.865672 C-9.50185437,102.872717 -9.76832315,102.895026 -10.0514505,102.932598 C-11.4004689,103.11162 -12.4455261,103.724582 -13.1866535,104.771502 C-13.9277809,105.818422 -14.4375122,106.291459 -14.4375122,108.171192 Z M-3.28141042,98.3269461 C-2.46533755,98.1316242 -1.71173054,97.9489444 -1.02056679,97.7789012 C-0.329403032,97.6088579 0.399222529,97.4730049 1.16533175,97.3713382 C2.08133191,97.2497801 2.99731833,97.2195984 3.91331849,97.2807921 C4.82931865,97.3419859 5.64537928,97.5513255 6.36152485,97.9088175 C7.07767043,98.2663094 7.66057088,98.8068212 8.11024369,99.5303692 C8.55991649,100.253917 8.78474952,101.216147 8.78474952,102.417087 C8.78474952,103.06107 8.71396875,103.649168 8.57240509,104.1814 C8.43084143,104.713631 8.24764415,105.194815 8.02280774,105.624966 C7.79797134,106.055116 7.54815686,106.436361 7.27335682,106.768712 C6.99855677,107.101064 6.72792442,107.389346 6.46145164,107.633567 L10.3585965,115.157434 C9.95888731,115.280097 9.52171197,115.390327 9.04705735,115.488126 C8.57240272,115.585925 8.14355453,115.66024 7.76049992,115.711073 C7.42740895,115.755276 7.04019651,115.789257 6.59885098,115.813016 C6.15750545,115.836775 5.77029301,115.835946 5.43720204,115.810529 L1.88980098,107.744211 L2.11463626,107.583838 C2.31449084,107.452887 2.5351603,107.249556 2.77665125,106.97384 C3.0181422,106.698124 3.24297523,106.376759 3.45115708,106.009736 C3.65933894,105.642713 3.83420907,105.240955 3.97577273,104.804451 C4.11733639,104.367946 4.18811716,103.923436 4.18811716,103.470908 C4.18811716,102.600662 3.95495698,101.996333 3.48862963,101.657903 C3.02230228,101.319474 2.44772898,101.195569 1.76489249,101.286185 C1.59834701,101.308287 1.45678547,101.335775 1.34020364,101.368651 C1.2236218,101.401527 1.14867745,101.428877 1.11536836,101.450702 L1.11536836,116.384059 C0.232677295,116.657841 -0.491784691,116.832302 -1.05803933,116.907447 C-1.67425762,116.989223 -2.41537391,117.009252 -3.28141042,116.967535 L-3.28141042,98.3269461 Z M21.5753787,103.957004 C21.5753787,104.566177 21.5004344,105.254905 21.3505434,106.023208 L16.5290758,106.663042 L16.5290758,110.370274 L22.7994819,109.538158 C22.9493728,110.249274 23.0243172,110.900706 23.0243172,111.492474 C23.0243172,112.136456 22.9493728,112.833886 22.7994819,113.584784 L12.1073153,115.003691 L12.1073153,96.2325664 L22.6495917,94.8335506 C22.7162099,95.2076185 22.7661728,95.557784 22.7994819,95.8840574 C22.832791,96.2103308 22.8494453,96.5214047 22.8494453,96.8172886 C22.8494453,97.3916513 22.7828281,98.0879763 22.6495917,98.9062843 L16.5290758,99.7185091 L16.5290758,102.590308 L21.3505434,101.950474 C21.5004344,102.6964 21.5753787,103.365237 21.5753787,103.957004 Z M28.2205103,112.813171 C27.8374556,112.933624 27.4877154,113.03225 27.171279,113.109053 C26.8548425,113.185856 26.546738,113.244147 26.2469561,113.28393 C25.9471743,113.323713 25.6015976,113.347817 25.2102157,113.356243 C24.8188338,113.364669 24.3816585,113.357417 23.8986766,113.334486 L29.4945768,93.9512922 C29.9275951,93.8416136 30.3314618,93.7445067 30.7061892,93.6599685 C31.0809165,93.5754304 31.4598018,93.5077456 31.8428564,93.4569123 C32.1592928,93.4149195 32.5048695,93.3864643 32.8795969,93.3715459 C33.2543242,93.3566274 33.6831724,93.3432287 34.1661543,93.3313492 L39.6871095,111.265385 C38.7378002,111.548008 37.9050853,111.736835 37.1889397,111.831871 C36.8558487,111.876074 36.5227628,111.902872 36.1896718,111.912265 C35.8565808,111.921658 35.4985134,111.916961 35.1154588,111.898175 L34.1661543,108.395242 C33.6998269,108.596366 33.2543244,108.759914 32.8296335,108.885893 C32.4049425,109.011871 31.9844214,109.102486 31.5680577,109.15774 C31.1850031,109.208573 30.7936271,109.230053 30.3939179,109.222179 C29.9942088,109.214305 29.5778513,109.178183 29.1448331,109.113813 L28.2205103,112.813171 Z M31.7179479,98.5644054 L30.0441742,105.496092 C30.3273015,105.545544 30.5937703,105.579801 30.8435885,105.598863 C31.0934067,105.617926 31.3515484,105.609776 31.6180211,105.574414 C31.9011485,105.536841 32.180108,105.478066 32.454908,105.398086 C32.729708,105.318107 33.0169947,105.214715 33.3167766,105.087907 L31.7179479,98.5644054 Z M41.8355354,92.3396891 C42.185281,92.2410612 42.5641663,92.1429183 42.9722027,92.0452574 C43.3802391,91.9475965 43.7591244,91.8755606 44.1088699,91.8291475 C44.4419609,91.7849446 44.8041919,91.7586304 45.1955738,91.7502043 C45.5869557,91.7417782 45.9491867,91.7415711 46.2822776,91.749583 L49.8296787,100.990727 L53.5019882,90.7914892 C53.8350792,90.6950715 54.1723287,90.6024539 54.513747,90.5136335 C54.8551652,90.4248132 55.1924148,90.3583026 55.5255057,90.3140996 C55.8752513,90.2676866 56.2333187,90.241925 56.5997187,90.2368141 C56.9661188,90.2317032 57.3241862,90.2320486 57.6739317,90.2378503 L58.5233094,108.765722 C58.2568367,108.853299 57.9612229,108.944743 57.6364592,109.040055 C57.3116955,109.135368 56.8828473,109.218386 56.3499018,109.28911 C55.7669926,109.366465 55.0758392,109.379864 54.2764209,109.329307 L53.9266771,98.5673109 L51.1786904,106.059267 C50.8789085,106.151265 50.5791311,106.234558 50.2793492,106.309151 C49.9795674,106.383743 49.7047714,106.437615 49.4549532,106.470767 C49.205135,106.503919 48.9469934,106.525123 48.6805206,106.534377 C48.4140478,106.543632 48.1392519,106.532236 47.8561246,106.500189 L45.4079182,99.8022243 L45.1331195,110.542671 C44.4336285,110.792142 43.7674566,110.958867 43.1345837,111.042853 C42.5516745,111.120208 41.8771754,111.131396 41.1110662,111.076419 L41.8355354,92.3396891 Z" id="CREAM-Copy" fill="#A6CEE1" transform="translate(19.776696, 104.302751) rotate(-82.000000) translate(-19.776696, -104.302751) "></path>
            <g id="bowl-cream" transform="translate(113.000000, 109.000000)">
                <g id="bowl" transform="translate(0.000000, 27.000000)">
                    <path d="M38.5,37.4766594 C59.7629629,37.4766594 77,25.6122053 77,10.9766594 C77,-3.65888647 0,-3.65888647 0,10.9766594 C0,25.6122053 17.2370371,37.4766594 38.5,37.4766594 Z" id="Oval-4" fill="#D0E6FF"></path>
                    <path d="M7.51177296,26.7053293 C14.5234476,33.2392485 25.7927905,37.4766594 38.5,37.4766594 C59.7629629,37.4766594 77,25.6122053 77,10.9766594 C77,8.16874717 74.1657384,5.89954877 69.5847534,4.16906422 C69.8574958,4.74450859 70,5.34704096 70,5.9766594 C70,20.6122053 52.7629629,32.4766594 31.5,32.4766594 C22.4294274,32.4766594 14.0914897,30.3175751 7.51177296,26.7053293 Z" id="Combined-Shape" fill="#C7DBF3"></path>
                </g>
                <g id="cream" transform="translate(5.000000, 0.000000)">
                    <path d="M22.9013672,40.2431641 C34.001127,40.2431641 44.7342241,40.8466797 55.6728516,40.8466797 C77,40.8466797 62.7593743,29.2111986 56.2539063,26.8027344 C53.9316101,25.9429704 50.4904404,26.2257649 48.9873047,24.2578125 C47.7758786,22.6717755 51.6120725,20.2872787 50.6894531,18.5175781 C49.4141612,16.0714069 47.0389932,16.5067098 45.6914063,14.0996094 C44.5577011,12.0745509 43.7682877,9.41755451 44.3349609,7.16699219 C45.008354,4.49258847 42.2896544,3.91005982 40.5283203,0.59375 C40.3687024,0.293215128 22.1743429,12.9463914 20.3808594,14.5615234 C19.5084614,15.3471665 18.6604554,16.7350583 19.0761719,17.8330078 C22.3121884,26.3796566 11,19.0996094 7.35058594,25.8818359 C6.99938667,26.5345196 7.28844754,27.9301176 7.89746094,28.6445312 C8.77165413,29.6700186 9.20417686,29.1806985 5.64746094,29.9882812 C3.61531977,30.4496963 -12,40.2431641 22.9013672,40.2431641 Z" id="Path-11" fill="#FFFFFF"></path>
                    <path d="M14.1602173,39.9873596 C16.6429215,40.152188 19.5375078,40.2431641 22.9013672,40.2431641 C34.001127,40.2431641 44.7342241,40.8466797 55.6728516,40.8466797 C77,40.8466797 62.7593743,29.2111986 56.2539063,26.8027344 C53.9316101,25.9429704 50.4904404,26.2257649 48.9873047,24.2578125 C47.7758786,22.6717755 51.6120725,20.2872787 50.6894531,18.5175781 C49.9793909,17.155589 48.9283578,16.6868813 47.9035695,16.1234693 C41.5524104,26.3125996 26.6014329,36.7573615 14.1602173,39.9873596 Z" id="Combined-Shape" fill="#F5F5F5"></path>
                    <path d="M48.8305565,23.9865685 C48.8683724,24.079282 48.9200628,24.1697773 48.9873047,24.2578125 C50.4904404,26.2257649 53.9316101,25.9429704 56.2539063,26.8027344 C56.5402195,26.9087337 56.8415156,27.0326056 57.1541031,27.1725716 C54.877429,27.7998466 52.266966,28.4117579 49.4770225,28.954068 C40.2606812,30.7455432 32.5757901,31.0990972 32.3123379,29.7437529 C32.0488856,28.3884086 39.3066362,25.8374073 48.5229775,24.045932 C48.6256968,24.0259654 48.7282258,24.0061774 48.8305565,23.9865685 Z" id="Combined-Shape" fill="#E6E3E3"></path>
                    <path d="M44.200671,9.6868877 C44.3761594,11.2350453 44.9626519,12.7978862 45.6914063,14.0996094 C46.1557259,14.9289911 46.742039,15.4209254 47.3633211,15.8095497 C39.9629291,17.5680407 34.1187931,17.7908894 33.6585512,16.185835 C33.2260557,14.6775441 37.6808109,12.0187309 44.200671,9.6868877 Z" id="Combined-Shape" fill="#E6E4E4"></path>
                </g>
            </g>
        </g>
    </g>
</svg>