<?xml version="1.0" encoding="UTF-8" standalone="no"?>
<svg
   xmlns:dc="http://purl.org/dc/elements/1.1/"
   xmlns:cc="http://creativecommons.org/ns#"
   xmlns:rdf="http://www.w3.org/1999/02/22-rdf-syntax-ns#"
   xmlns:svg="http://www.w3.org/2000/svg"
   xmlns="http://www.w3.org/2000/svg"
   xmlns:xlink="http://www.w3.org/1999/xlink"
   xmlns:sodipodi="http://sodipodi.sourceforge.net/DTD/sodipodi-0.dtd"
   xmlns:inkscape="http://www.inkscape.org/namespaces/inkscape"
   width="106px"
   height="46px"
   viewBox="0 0 106 46"
   version="1.1"
   id="svg2"
   inkscape:version="0.91 r13725"
   sodipodi:docname="fish.svg">
  <metadata
     id="metadata85">
    <rdf:RDF>
      <cc:Work
         rdf:about="">
        <dc:format>image/svg+xml</dc:format>
        <dc:type
           rdf:resource="http://purl.org/dc/dcmitype/StillImage" />
      </cc:Work>
    </rdf:RDF>
  </metadata>
  <sodipodi:namedview
     pagecolor="#ffffff"
     bordercolor="#666666"
     borderopacity="1"
     objecttolerance="10"
     gridtolerance="10"
     guidetolerance="10"
     inkscape:pageopacity="0"
     inkscape:pageshadow="2"
     inkscape:window-width="1920"
     inkscape:window-height="1027"
     id="namedview83"
     showgrid="false"
     inkscape:zoom="2.7169811"
     inkscape:cx="-9.7534728"
     inkscape:cy="23"
     inkscape:window-x="-8"
     inkscape:window-y="-8"
     inkscape:window-maximized="1"
     inkscape:current-layer="svg2" />
  <!-- Generator: Sketch 42 (36781) - http://www.bohemiancoding.com/sketch -->
  <title
     id="title4">fish</title>
  <desc
     id="desc6">Created with Sketch.</desc>
  <defs
     id="defs8">
    <path
       d="M7.74899515,12.3896104 C8.90762317,12.3896104 6.1989384,11.2908217 6.66748188,9.74768818 C6.992199,8.67824239 9.9690095,7.39537882 9.96228057,6.11693778 C9.95646808,5.01261404 7.00918344,3.91159023 6.75605949,2.95427224 C6.30522138,1.24919686 8.98438028,0 7.74899515,0 C3.85840256,0 0,2.77350876 0,6.19480519 C0,9.61610163 3.85840256,12.3896104 7.74899515,12.3896104 Z"
       id="path-1" />
    <filter
       x="-50%"
       y="-50%"
       width="200%"
       height="200%"
       filterUnits="objectBoundingBox"
       id="filter-2">
      <feOffset
         dx="1"
         dy="1"
         in="SourceAlpha"
         result="shadowOffsetOuter1"
         id="feOffset12" />
      <feColorMatrix
         values="0 0 0 0 0   0 0 0 0 0   0 0 0 0 0  0 0 0 0.4 0"
         type="matrix"
         in="shadowOffsetOuter1"
         id="feColorMatrix14" />
    </filter>
  </defs>
  <g
     id="Page-1"
     transform="matrix(0.74446097,0,0,0.71962891,2.4043132,4.4317923)"
     style="fill:none;fill-rule:evenodd;stroke:none;stroke-width:1">
    <g
       id="fish"
       transform="translate(0,-7)">
      <g
         id="Tail-Copy"
         transform="matrix(0.66913061,0.74314483,-0.74314483,0.66913061,39.531566,0.54258324)">
        <path
           d="m 16.01459,29.597403 c 2.394498,0 -3.203451,-2.624885 -2.235127,-6.311259 0.671082,-2.554787 6.823157,-5.619406 6.80925,-8.673459 C 20.576701,11.974578 14.485646,9.3443544 13.962523,7.0574281 13.030791,2.9841925 18.567719,0 16.01459,0 7.974032,0 0,6.6256043 0,14.798701 0,22.971798 7.974032,29.597403 16.01459,29.597403 Z"
           id="Oval-13"
           inkscape:connector-curvature="0"
           style="fill:#998e8f" />
        <path
           d="m 6.4886005,16.060552 c 0.1111656,0.02741 0.2241335,0.04148 0.3385749,0.04148 1.6829075,0 3.0471735,-3.043155 3.0471735,-6.7970774 0,-3.7539225 -1.364266,-6.7970779 -3.0471735,-6.7970779 -0.1144414,0 -0.2274093,0.014072 -0.3385749,0.041484 1.52357,0.3756853 2.7085988,3.2569464 2.7085988,6.755594 0,3.4986473 -1.1850288,6.3799083 -2.7085988,6.7555943 z"
           id="Combined-Shape-Copy-38"
           transform="matrix(-0.10452846,-0.9945219,0.9945219,-0.10452846,-0.21731246,18.414247)"
           inkscape:connector-curvature="0"
           style="fill:#181f26;fill-opacity:0.10317598" />
        <path
           d="m 6.4886005,27.76185 c 0.1111656,0.02741 0.2241335,0.04148 0.3385749,0.04148 1.6829075,0 3.0471735,-3.043155 3.0471735,-6.797078 0,-3.753922 -1.364266,-6.797078 -3.0471735,-6.797078 -0.1144414,0 -0.2274093,0.01407 -0.3385749,0.04148 1.52357,0.375686 2.7085988,3.256947 2.7085988,6.755594 0,3.498648 -1.1850288,6.379909 -2.7085988,6.755594 z"
           id="Combined-Shape-Copy-40"
           transform="matrix(-0.10452846,0.9945219,0.9945219,0.10452846,-11.85451,10.673848)"
           inkscape:connector-curvature="0"
           style="fill:#181f26;fill-opacity:0.10317598" />
        <path
           d="m 1.3542994,15.142857 c 2.2211506,0.427158 5.195405,0.688312 8.4638453,0.688312 3.2684403,0 6.2426943,-0.261154 8.4638453,-0.688312 -2.221151,-0.427157 -5.195405,-0.688311 -8.4638453,-0.688311 -3.2684403,0 -6.2426947,0.261154 -8.4638453,0.688311 z"
           id="Combined-Shape"
           inkscape:connector-curvature="0"
           style="fill:#181f26;fill-opacity:0.1" />
      </g>
      <path
         d="M 45.707603,53 C 68.392118,48.87013 89.383758,45.194153 89.383758,31.427919 79.903662,21.791555 88.368033,26.844156 50.786226,13.766234 30.699787,6.7764452 2.031449,18.883165 2.031449,31.427919 2.031449,43.972673 17.605892,50.935065 45.707603,53 Z"
         id="Oval-12"
         inkscape:connector-curvature="0"
         style="fill:#d0c3c3" />
      <path
         d="m 14.478725,24.366234 -2.96718,0 0,1.514285 2.96718,0 0,2.967181 1.514286,0 0,-2.967181 2.96718,0 0,-1.514285 -2.96718,0 0,-2.967181 -1.514286,0 0,2.967181 z"
         id="path24"
         transform="matrix(0.70710678,0.70710678,-0.70710678,0.70710678,22.227393,-3.4149188)"
         inkscape:connector-curvature="0"
         style="fill:#181f26" />
      <g
         id="Scales"
         transform="translate(45.369029,15.142857)"
         style="fill:#181f26;fill-opacity:0.46062616">
        <path
           d="M 0,6.5190067 C 0.11116558,6.532192 0.22413346,6.538961 0.33857484,6.538961 2.0214823,6.538961 3.3857484,5.0751647 3.3857484,3.2694805 3.3857484,1.4637963 2.0214823,0 0.33857484,0 0.22413346,0 0.11116558,0.00676903 0,0.01995429 1.52357,0.20066366 2.7085987,1.5865867 2.7085987,3.2694805 2.7085987,4.9523743 1.52357,6.3382974 0,6.5190067 Z"
           id="path27"
           inkscape:connector-curvature="0" />
        <path
           d="m 0,13.402124 c 0.11116558,0.01319 0.22413346,0.01995 0.33857484,0.01995 1.68290746,0 3.04717356,-1.463796 3.04717356,-3.269481 0,-1.8056838 -1.3642661,-3.2694801 -3.04717356,-3.2694801 C 0.22413346,6.8831129 0.11116558,6.8898829 0,6.9030669 1.52357,7.0837762 2.7085987,8.4696993 2.7085987,10.152593 2.7085987,11.835487 1.52357,13.22141 0,13.40212 Z"
           id="Combined-Shape-Copy-8"
           inkscape:connector-curvature="0" />
        <path
           d="m 0,20.28524 c 0.11116558,0.01319 0.22413346,0.01995 0.33857484,0.01995 1.68290746,0 3.04717356,-1.463797 3.04717356,-3.269481 0,-1.805684 -1.3642661,-3.26948 -3.04717356,-3.26948 -0.11444138,0 -0.22740926,0.0068 -0.33857484,0.01995 1.52357,0.180709 2.7085987,1.566633 2.7085987,3.249526 0,1.682894 -1.1850287,3.068817 -2.7085987,3.249526 z"
           id="Combined-Shape-Copy-9"
           inkscape:connector-curvature="0" />
        <path
           d="m 0,27.168357 c 0.11116558,0.01319 0.22413346,0.01995 0.33857484,0.01995 1.68290746,0 3.04717356,-1.463797 3.04717356,-3.269481 0,-1.805684 -1.3642661,-3.26948 -3.04717356,-3.26948 -0.11444138,0 -0.22740926,0.0068 -0.33857484,0.01995 1.52357,0.180709 2.7085987,1.566632 2.7085987,3.249526 0,1.682894 -1.1850287,3.068817 -2.7085987,3.249526 z"
           id="Combined-Shape-Copy-10"
           inkscape:connector-curvature="0" />
        <path
           d="m 4.7400478,9.9605652 c 0.1111655,0.013185 0.2241334,0.019954 0.3385748,0.019954 1.6829075,0 3.0471736,-1.4637963 3.0471736,-3.2694805 0,-1.8056843 -1.3642661,-3.2694806 -3.0471736,-3.2694806 -0.1144414,0 -0.2274093,0.00677 -0.3385748,0.019954 1.52357,0.1807094 2.7085987,1.5666325 2.7085987,3.2495263 0,1.6828937 -1.1850287,3.0688168 -2.7085987,3.2495262 z"
           id="Combined-Shape-Copy-15"
           inkscape:connector-curvature="0" />
        <path
           d="m 4.7400478,16.843682 c 0.1111655,0.01319 0.2241334,0.01995 0.3385748,0.01995 1.6829075,0 3.0471736,-1.463796 3.0471736,-3.26948 0,-1.805684 -1.3642661,-3.269481 -3.0471736,-3.269481 -0.1144414,0 -0.2274093,0.0068 -0.3385748,0.01996 1.52357,0.180709 2.7085987,1.566632 2.7085987,3.249526 0,1.682894 -1.1850287,3.068817 -2.7085987,3.249526 z"
           id="Combined-Shape-Copy-14"
           inkscape:connector-curvature="0" />
        <path
           d="m 4.7400478,23.726799 c 0.1111655,0.01319 0.2241334,0.01995 0.3385748,0.01995 1.6829075,0 3.0471736,-1.463796 3.0471736,-3.26948 0,-1.805685 -1.3642661,-3.269481 -3.0471736,-3.269481 -0.1144414,0 -0.2274093,0.0068 -0.3385748,0.01995 1.52357,0.18071 2.7085987,1.566633 2.7085987,3.249527 0,1.682893 -1.1850287,3.068817 -2.7085987,3.249526 z"
           id="Combined-Shape-Copy-13"
           inkscape:connector-curvature="0" />
        <path
           d="m 4.7400478,30.609916 c 0.1111655,0.01319 0.2241334,0.01995 0.3385748,0.01995 1.6829075,0 3.0471736,-1.463796 3.0471736,-3.26948 0,-1.805685 -1.3642661,-3.269481 -3.0471736,-3.269481 -0.1144414,0 -0.2274093,0.0068 -0.3385748,0.01995 1.52357,0.18071 2.7085987,1.566633 2.7085987,3.249527 0,1.682893 -1.1850287,3.068816 -2.7085987,3.249526 z"
           id="Combined-Shape-Copy-12"
           inkscape:connector-curvature="0" />
        <path
           d="m 9.4800955,7.2073184 c 0.1111656,0.013185 0.2241335,0.019954 0.3385749,0.019954 1.6829076,0 3.0471736,-1.4637963 3.0471736,-3.2694805 0,-1.8056842 -1.364266,-3.26948051 -3.0471736,-3.26948051 -0.1144414,0 -0.2274093,0.006769 -0.3385749,0.0199543 1.5235705,0.18070938 2.7085985,1.56663241 2.7085985,3.24952621 0,1.6828938 -1.185028,3.0688169 -2.7085985,3.2495262 z"
           id="Combined-Shape-Copy-19"
           inkscape:connector-curvature="0" />
        <path
           d="m 9.4800955,14.090435 c 0.1111656,0.01319 0.2241335,0.01996 0.3385749,0.01996 1.6829076,0 3.0471736,-1.463797 3.0471736,-3.269481 0,-1.8056841 -1.364266,-3.2694804 -3.0471736,-3.2694804 -0.1144414,0 -0.2274093,0.00677 -0.3385749,0.019954 1.5235705,0.1807093 2.7085985,1.5666324 2.7085985,3.2495264 0,1.682894 -1.185028,3.068817 -2.7085985,3.249526 z"
           id="Combined-Shape-Copy-18"
           inkscape:connector-curvature="0" />
        <path
           d="m 9.4800955,20.973552 c 0.1111656,0.01319 0.2241335,0.01995 0.3385749,0.01995 1.6829076,0 3.0471736,-1.463796 3.0471736,-3.26948 0,-1.805684 -1.364266,-3.26948 -3.0471736,-3.26948 -0.1144414,0 -0.2274093,0.0068 -0.3385749,0.01995 1.5235705,0.180709 2.7085985,1.566632 2.7085985,3.249526 0,1.682894 -1.185028,3.068817 -2.7085985,3.249526 z"
           id="Combined-Shape-Copy-17"
           inkscape:connector-curvature="0" />
        <path
           d="m 9.4800955,27.856669 c 0.1111656,0.01319 0.2241335,0.01995 0.3385749,0.01995 1.6829076,0 3.0471736,-1.463796 3.0471736,-3.26948 0,-1.805684 -1.364266,-3.269481 -3.0471736,-3.269481 -0.1144414,0 -0.2274093,0.0068 -0.3385749,0.01995 1.5235705,0.180709 2.7085985,1.566632 2.7085985,3.249526 0,1.682894 -1.185028,3.068817 -2.7085985,3.249526 z"
           id="Combined-Shape-Copy-16"
           inkscape:connector-curvature="0" />
        <path
           d="m 14.220143,11.337189 c 0.111166,0.01319 0.224134,0.01995 0.338575,0.01995 1.682908,0 3.047174,-1.4637964 3.047174,-3.2694807 0,-1.8056842 -1.364266,-3.2694805 -3.047174,-3.2694805 -0.114441,0 -0.227409,0.00677 -0.338575,0.019954 1.52357,0.1807094 2.708599,1.5666325 2.708599,3.2495262 0,1.6828938 -1.185029,3.068817 -2.708599,3.249527 z"
           id="Combined-Shape-Copy-23"
           inkscape:connector-curvature="0" />
        <path
           d="m 14.220143,18.220305 c 0.111166,0.01319 0.224134,0.01995 0.338575,0.01995 1.682908,0 3.047174,-1.463797 3.047174,-3.269481 0,-1.805684 -1.364266,-3.26948 -3.047174,-3.26948 -0.114441,0 -0.227409,0.0068 -0.338575,0.01995 1.52357,0.180709 2.708599,1.566633 2.708599,3.249526 0,1.682894 -1.185029,3.068817 -2.708599,3.249526 z"
           id="Combined-Shape-Copy-22"
           inkscape:connector-curvature="0" />
        <path
           d="m 14.220143,25.103422 c 0.111166,0.01319 0.224134,0.01996 0.338575,0.01996 1.682908,0 3.047174,-1.463797 3.047174,-3.269481 0,-1.805684 -1.364266,-3.26948 -3.047174,-3.26948 -0.114441,0 -0.227409,0.0068 -0.338575,0.01995 1.52357,0.180709 2.708599,1.566632 2.708599,3.249526 0,1.682894 -1.185029,3.068817 -2.708599,3.249526 z"
           id="Combined-Shape-Copy-21"
           inkscape:connector-curvature="0" />
        <path
           d="m 14.220143,31.986539 c 0.111166,0.01319 0.224134,0.01995 0.338575,0.01995 1.682908,0 3.047174,-1.463796 3.047174,-3.26948 0,-1.805684 -1.364266,-3.269481 -3.047174,-3.269481 -0.114441,0 -0.227409,0.0068 -0.338575,0.01996 1.52357,0.180709 2.708599,1.566632 2.708599,3.249526 0,1.682894 -1.185029,3.068817 -2.708599,3.249526 z"
           id="Combined-Shape-Copy-20"
           inkscape:connector-curvature="0" />
        <path
           d="m 9.4800955,35.428098 c 0.1111656,0.01319 0.2241335,0.01995 0.3385749,0.01995 1.6829076,0 3.0471736,-1.463796 3.0471736,-3.269481 0,-1.805684 -1.364266,-3.26948 -3.0471736,-3.26948 -0.1144414,0 -0.2274093,0.0068 -0.3385749,0.01995 1.5235705,0.18071 2.7085985,1.566633 2.7085985,3.249526 0,1.682894 -1.185028,3.068817 -2.7085985,3.249527 z"
           id="Combined-Shape-Copy-27"
           inkscape:connector-curvature="0" />
        <path
           d="m 18.960191,15.467059 c 0.111166,0.01319 0.224133,0.01995 0.338575,0.01995 1.682907,0 3.047173,-1.463796 3.047173,-3.26948 0,-1.805685 -1.364266,-3.269481 -3.047173,-3.269481 -0.114442,0 -0.227409,0.00677 -0.338575,0.019954 1.52357,0.1807094 2.708599,1.566633 2.708599,3.249527 0,1.682893 -1.185029,3.068816 -2.708599,3.249526 z"
           id="Combined-Shape-Copy-26"
           inkscape:connector-curvature="0" />
        <path
           d="m 18.960191,22.350176 c 0.111166,0.01319 0.224133,0.01995 0.338575,0.01995 1.682907,0 3.047173,-1.463796 3.047173,-3.269481 0,-1.805684 -1.364266,-3.26948 -3.047173,-3.26948 -0.114442,0 -0.227409,0.0068 -0.338575,0.01995 1.52357,0.180709 2.708599,1.566633 2.708599,3.249526 0,1.682894 -1.185029,3.068817 -2.708599,3.249527 z"
           id="Combined-Shape-Copy-25"
           inkscape:connector-curvature="0" />
        <path
           d="m 18.960191,29.233292 c 0.111166,0.01319 0.224133,0.01996 0.338575,0.01996 1.682907,0 3.047173,-1.463797 3.047173,-3.269481 0,-1.805684 -1.364266,-3.26948 -3.047173,-3.26948 -0.114442,0 -0.227409,0.0068 -0.338575,0.01995 1.52357,0.180709 2.708599,1.566632 2.708599,3.249526 0,1.682894 -1.185029,3.068817 -2.708599,3.249526 z"
           id="Combined-Shape-Copy-24"
           inkscape:connector-curvature="0" />
        <path
           d="m 23.700239,11.874542 c 0.111165,0.01218 0.224133,0.01844 0.338575,0.01844 1.682907,0 3.047173,-1.352621 3.047173,-3.0211651 0,-1.6685437 -1.364266,-3.0211656 -3.047173,-3.0211656 -0.114442,0 -0.22741,0.00626 -0.338575,0.018439 1.52357,0.1669846 2.708599,1.4476477 2.708599,3.0027268 0,1.5550789 -1.185029,2.8357419 -2.708599,3.0027269 z"
           id="Combined-Shape-Copy-31"
           inkscape:connector-curvature="0" />
        <path
           d="m 23.700239,18.908617 c 0.111165,0.01319 0.224133,0.01995 0.338575,0.01995 1.682907,0 3.047173,-1.463796 3.047173,-3.26948 0,-1.805684 -1.364266,-3.269481 -3.047173,-3.269481 -0.114442,0 -0.22741,0.0068 -0.338575,0.01996 1.52357,0.180709 2.708599,1.566632 2.708599,3.249526 0,1.682894 -1.185029,3.068817 -2.708599,3.249526 z"
           id="Combined-Shape-Copy-30"
           inkscape:connector-curvature="0" />
        <path
           d="m 23.700239,25.791734 c 0.111165,0.01319 0.224133,0.01995 0.338575,0.01995 1.682907,0 3.047173,-1.463796 3.047173,-3.26948 0,-1.805684 -1.364266,-3.269481 -3.047173,-3.269481 -0.114442,0 -0.22741,0.0068 -0.338575,0.01995 1.52357,0.180709 2.708599,1.566632 2.708599,3.249526 0,1.682894 -1.185029,3.068817 -2.708599,3.249526 z"
           id="Combined-Shape-Copy-29"
           inkscape:connector-curvature="0" />
        <path
           d="m 23.700239,32.332211 c 0.111165,0.01218 0.224133,0.01844 0.338575,0.01844 1.682907,0 3.047173,-1.352622 3.047173,-3.021165 0,-1.668544 -1.364266,-3.021166 -3.047173,-3.021166 -0.114442,0 -0.22741,0.0063 -0.338575,0.01844 1.52357,0.166985 2.708599,1.447648 2.708599,3.002727 0,1.555079 -1.185029,2.835742 -2.708599,3.002727 z"
           id="Combined-Shape-Copy-28"
           inkscape:connector-curvature="0" />
        <path
           d="m 28.440287,16.15537 c 0.111165,0.01319 0.224133,0.01995 0.338575,0.01995 1.682907,0 3.047173,-1.463797 3.047173,-3.269481 0,-1.805684 -1.364266,-3.2694804 -3.047173,-3.2694804 -0.114442,0 -0.22741,0.00677 -0.338575,0.019954 1.52357,0.1807094 2.708598,1.5666324 2.708598,3.2495264 0,1.682894 -1.185028,3.068817 -2.708598,3.249526 z"
           id="Combined-Shape-Copy-35"
           inkscape:connector-curvature="0" />
        <path
           d="m 28.440287,23.038487 c 0.111165,0.01319 0.224133,0.01995 0.338575,0.01995 1.682907,0 3.047173,-1.463797 3.047173,-3.269481 0,-1.805684 -1.364266,-3.269481 -3.047173,-3.269481 -0.114442,0 -0.22741,0.0068 -0.338575,0.01995 1.52357,0.180709 2.708598,1.566632 2.708598,3.249526 0,1.682894 -1.185028,3.068817 -2.708598,3.249526 z"
           id="Combined-Shape-Copy-34"
           inkscape:connector-curvature="0" />
        <path
           d="m 28.440287,29.921604 c 0.111165,0.01319 0.224133,0.01995 0.338575,0.01995 1.682907,0 3.047173,-1.463796 3.047173,-3.26948 0,-1.805684 -1.364266,-3.269481 -3.047173,-3.269481 -0.114442,0 -0.22741,0.0068 -0.338575,0.01995 1.52357,0.180709 2.708598,1.566632 2.708598,3.249526 0,1.682894 -1.185028,3.068817 -2.708598,3.249526 z"
           id="Combined-Shape-Copy-33"
           inkscape:connector-curvature="0" />
        <path
           d="m 33.180334,19.596929 c 0.111166,0.01319 0.224134,0.01995 0.338575,0.01995 1.682908,0 3.047174,-1.463796 3.047174,-3.26948 0,-1.805685 -1.364266,-3.269481 -3.047174,-3.269481 -0.114441,0 -0.227409,0.0068 -0.338575,0.01995 1.52357,0.18071 2.708599,1.566633 2.708599,3.249527 0,1.682893 -1.185029,3.068816 -2.708599,3.249526 z"
           id="Combined-Shape-Copy-37"
           inkscape:connector-curvature="0" />
        <path
           d="M 33.180334,26.480046 C 33.2915,26.493231 33.404468,26.5 33.518909,26.5 c 1.682908,0 3.047174,-1.463796 3.047174,-3.269481 0,-1.805684 -1.364266,-3.26948 -3.047174,-3.26948 -0.114441,0 -0.227409,0.0068 -0.338575,0.01995 1.52357,0.18071 2.708599,1.566633 2.708599,3.249526 0,1.682894 -1.185029,3.068817 -2.708599,3.249527 z"
           id="Combined-Shape-Copy-36"
           inkscape:connector-curvature="0" />
        <path
           d="m 0,34.051474 c 0.11116558,0.01319 0.22413346,0.01996 0.33857484,0.01996 1.68290746,0 3.04717356,-1.463797 3.04717356,-3.269481 0,-1.805684 -1.3642661,-3.269481 -3.04717356,-3.269481 -0.11444138,0 -0.22740926,0.0068 -0.33857484,0.01995 1.52357,0.180709 2.7085987,1.566632 2.7085987,3.249526 0,1.682894 -1.1850287,3.068817 -2.7085987,3.249526 z"
           id="Combined-Shape-Copy-11"
           inkscape:connector-curvature="0" />
      </g>
      <g
         id="Tail"
         transform="translate(85.32086,17.207792)">
        <path
           d="m 16.01459,29.597403 c 2.394498,0 -3.203451,-2.624885 -2.235127,-6.311259 0.671082,-2.554787 6.823157,-5.619406 6.80925,-8.673459 C 20.576701,11.974578 14.485646,9.3443544 13.962523,7.0574281 13.030791,2.9841925 18.567719,0 16.01459,0 7.974032,0 0,6.6256043 0,14.798701 0,22.971798 7.974032,29.597403 16.01459,29.597403 Z"
           id="path59"
           inkscape:connector-curvature="0"
           style="fill:#998e8f" />
        <path
           d="m 6.4886005,16.060552 c 0.1111656,0.02741 0.2241335,0.04148 0.3385749,0.04148 1.6829075,0 3.0471735,-3.043155 3.0471735,-6.7970774 0,-3.7539225 -1.364266,-6.7970779 -3.0471735,-6.7970779 -0.1144414,0 -0.2274093,0.014072 -0.3385749,0.041484 1.52357,0.3756853 2.7085988,3.2569464 2.7085988,6.755594 0,3.4986473 -1.1850288,6.3799083 -2.7085988,6.7555943 z"
           id="path61"
           transform="matrix(-0.10452846,-0.9945219,0.9945219,-0.10452846,-0.21731246,18.414247)"
           inkscape:connector-curvature="0"
           style="fill:#181f26;fill-opacity:0.10317598" />
        <path
           d="m 6.4886005,27.76185 c 0.1111656,0.02741 0.2241335,0.04148 0.3385749,0.04148 1.6829075,0 3.0471735,-3.043155 3.0471735,-6.797078 0,-3.753922 -1.364266,-6.797078 -3.0471735,-6.797078 -0.1144414,0 -0.2274093,0.01407 -0.3385749,0.04148 1.52357,0.375686 2.7085988,3.256947 2.7085988,6.755594 0,3.498648 -1.1850288,6.379909 -2.7085988,6.755594 z"
           id="path63"
           transform="matrix(-0.10452846,0.9945219,0.9945219,0.10452846,-11.85451,10.673848)"
           inkscape:connector-curvature="0"
           style="fill:#181f26;fill-opacity:0.10317598" />
        <path
           d="m 1.3542994,14.798701 c 2.2211506,0.213579 5.195405,0.344156 8.4638453,0.344156 3.2684403,0 6.2426943,-0.130577 8.4638453,-0.344156 -2.221151,-0.213578 -5.195405,-0.344155 -8.4638453,-0.344155 -3.2684403,0 -6.2426947,0.130577 -8.4638453,0.344155 z"
           id="path65"
           inkscape:connector-curvature="0"
           style="fill:#181f26;fill-opacity:0.1" />
      </g>
      <g
         id="Tail-Copy-2"
         transform="translate(33.180334,25.467532)">
        <g
           id="g68">
          <use
             xlink:href="#path-1"
             id="use70"
             style="fill:#000000;fill-opacity:1;filter:url(#filter-2)"
             x="0"
             y="0"
             width="100%"
             height="100%" />
          <use
             xlink:href="#path-1"
             id="use72"
             style="fill:#998e8f;fill-rule:evenodd"
             x="0"
             y="0"
             width="100%"
             height="100%" />
        </g>
        <path
           d="m 3.1396454,6.7222043 c 0.05379,0.011475 0.1084517,0.017365 0.1638266,0.017365 0.81431,0 1.4744388,-1.273879 1.4744388,-2.8452884 0,-1.5714095 -0.6601288,-2.8452885 -1.4744388,-2.8452885 -0.055375,0 -0.1100368,0.00589 -0.1638266,0.017365 0.7372113,0.1572636 1.3106123,1.3633729 1.3106123,2.8279231 0,1.4645501 -0.573401,2.6706594 -1.3106123,2.827923 z"
           id="path74"
           transform="matrix(-0.10452846,-0.9945219,0.9945219,-0.10452846,0.49963526,8.2384356)"
           inkscape:connector-curvature="0"
           style="fill:#181f26;fill-opacity:0.10317598" />
        <path
           d="m 3.1396454,11.622057 c 0.05379,0.01148 0.1084517,0.01736 0.1638266,0.01736 0.81431,0 1.4744388,-1.273879 1.4744388,-2.8452881 0,-1.5714095 -0.6601288,-2.8452885 -1.4744388,-2.8452885 -0.055375,0 -0.1100368,0.00589 -0.1638266,0.017365 0.7372113,0.1572636 1.3106123,1.3633729 1.3106123,2.8279231 0,1.4645505 -0.573401,2.6706595 -1.3106123,2.8279235 z"
           id="path76"
           transform="matrix(-0.10452846,0.9945219,0.9945219,0.10452846,-4.3733758,3.9378053)"
           inkscape:connector-curvature="0"
           style="fill:#181f26;fill-opacity:0.10317598" />
        <path
           d="M 0.65530614,6.2228179 C 1.7300565,6.3296072 3.1692118,6.3948958 4.7507152,6.3948958 c 1.5815034,0 3.0206587,-0.065289 4.0954091,-0.1720779 C 7.7713739,6.1160285 6.3322186,6.05074 4.7507152,6.05074 c -1.5815034,0 -3.0206587,0.065288 -4.09540906,0.1720779 z"
           id="path78"
           inkscape:connector-curvature="0"
           style="fill:#181f26;fill-opacity:0.1" />
      </g>
      <g
         id="Mouth"
         transform="translate(0,31.662338)">
        <ellipse
           id="Oval-15"
           transform="matrix(0.94551858,0.32556815,-0.32556815,0.94551858,1.4538604,-1.1164991)"
           cx="4.0628982"
           cy="3.7857144"
           rx="3.3857484"
           ry="2.409091"
           style="fill:#998e8f" />
        <ellipse
           id="Oval-15-Copy"
           transform="matrix(0.94551858,0.32556815,-0.32556815,0.94551858,1.5659066,-1.097749)"
           cx="4.0628982"
           cy="4.1298699"
           rx="2.0314491"
           ry="1.3766234"
           style="fill:#181f26" />
      </g>
    </g>
  </g>
</svg>
