<?xml version="1.0" encoding="UTF-8"?>
<svg width="49px" height="45px" viewBox="0 0 49 45" version="1.1" xmlns="http://www.w3.org/2000/svg" xmlns:xlink="http://www.w3.org/1999/xlink">
    <!-- Generator: Sketch 42 (36781) - http://www.bohemiancoding.com/sketch -->
    <title>Garlic</title>
    <desc>Created with Sketch.</desc>
    <defs>
        <path d="M19,39.0909091 C25.0715009,38.3090909 28.0196778,37.9785506 31.6666667,36.7454545 C36.5865439,35.0819778 38,28.8455088 38,23.8454545 C34.3809524,14.0727273 34.3809524,18.7636364 20.8095238,7.03636364 C19,4.69090909 21.7142857,0.781818182 20.8095238,0.781818182 C19.9047619,0.781818182 19.9047619,-2.17603713e-14 19,1.56363636 C18.0952381,3.12727273 17.3552765,6.95391707 17.1904762,7.03636364 C11.7619048,14.8545455 1.80952381,14.8545455 0,23.8454545 C0,28.6170791 1.80952381,35.1818182 6.33333333,36.7454545 C10.8571429,38.3090909 12.6438133,38.3090909 19,39.0909091 Z" id="path-1"></path>
        <filter x="-50%" y="-50%" width="200%" height="200%" filterUnits="objectBoundingBox" id="filter-2">
            <feOffset dx="2" dy="2" in="SourceAlpha" result="shadowOffsetOuter1"></feOffset>
            <feColorMatrix values="0 0 0 0 0.980392157   0 0 0 0 0.964705882   0 0 0 0 0.725490196  0 0 0 1 0" type="matrix" in="shadowOffsetOuter1"></feColorMatrix>
        </filter>
        <path d="M12.2469015,15.3513049 C18.4362996,15.3513049 23.4537981,11.1651673 23.4537981,6.00130491 C23.4537981,0.837442499 16.7121617,4.30130491 10.5227636,4.30130491 C4.33336554,4.30130491 1.04000497,0.837442499 1.04000497,6.00130491 C1.04000497,11.1651673 6.05750347,15.3513049 12.2469015,15.3513049 Z" id="path-3"></path>
        <mask id="mask-4" maskContentUnits="userSpaceOnUse" maskUnits="objectBoundingBox" x="0" y="0" width="22.4137931" height="12.1870387" fill="white">
            <use xlink:href="#path-3"></use>
        </mask>
    </defs>
    <g id="Page-1" stroke="none" stroke-width="1" fill="none" fill-rule="evenodd">
        <g id="Garlic">
            <g>
                <g id="Oval-2">
                    <use fill="black" fill-opacity="1" filter="url(#filter-2)" xlink:href="#path-1"></use>
                    <use fill="#FFFDE4" fill-rule="evenodd" xlink:href="#path-1"></use>
                </g>
                <path d="M26.4190476,36.1163839 C26.7147485,36.1812806 27.0167988,36.214826 27.3238095,36.214826 C30.9215502,36.214826 33.8380952,31.6081803 33.8380952,25.9255948 C33.8380952,20.2430093 30.9215502,15.6363636 27.3238095,15.6363636 C27.0167988,15.6363636 26.7147485,15.669909 26.4190476,15.7348057 C29.588551,16.4304085 32.0285714,20.7279289 32.0285714,25.9255948 C32.0285714,31.1232607 29.588551,35.4207811 26.4190476,36.1163839 Z" id="Combined-Shape" fill="#FFFFF8"></path>
                <path d="M10.1333333,36.1051639 C10.4290342,36.1774573 10.7310845,36.214826 11.0380952,36.214826 C14.6358359,36.214826 17.552381,31.0831324 17.552381,24.7528675 C17.552381,18.4226027 14.6358359,13.2909091 11.0380952,13.2909091 C10.7310845,13.2909091 10.4290342,13.3282778 10.1333333,13.4005712 C13.3028367,14.1754562 15.7428571,18.9627915 15.7428571,24.7528675 C15.7428571,30.5429436 13.3028367,35.3302789 10.1333333,36.1051639 Z" id="Combined-Shape-Copy-6" fill="#FFFFF8" transform="translate(13.842857, 24.752868) scale(-1, 1) translate(-13.842857, -24.752868) "></path>
                <path d="M19.9047619,36.1051639 C20.2004627,36.1774573 20.5025131,36.214826 20.8095238,36.214826 C24.4072645,36.214826 27.3238095,31.0831324 27.3238095,24.7528675 C27.3238095,18.4226027 24.4072645,13.2909091 20.8095238,13.2909091 C20.5025131,13.2909091 20.2004627,13.3282778 19.9047619,13.4005712 C23.0742653,14.1754562 25.5142857,18.9627915 25.5142857,24.7528675 C25.5142857,30.5429436 23.0742653,35.3302789 19.9047619,36.1051639 Z" id="Combined-Shape-Copy-5" fill="#FAF6B9"></path>
                <path d="M1.80952381,36.1163839 C2.04031471,36.1812806 2.2760613,36.214826 2.51567944,36.214826 C5.32367215,36.214826 7.6,31.6081803 7.6,25.9255948 C7.6,20.2430093 5.32367215,15.6363636 2.51567944,15.6363636 C2.2760613,15.6363636 2.04031471,15.669909 1.80952381,15.7348057 C4.28328256,16.4304085 6.18768873,20.7279289 6.18768873,25.9255948 C6.18768873,31.1232607 4.28328256,35.4207811 1.80952381,36.1163839 Z" id="Combined-Shape-Copy-7" fill="#FAF6B9" transform="translate(4.704762, 25.925595) scale(-1, 1) translate(-4.704762, -25.925595) "></path>
            </g>
            <g id="Clove" transform="translate(26.000000, 29.000000)">
                <use id="Oval-10" stroke="#FAF6B9" mask="url(#mask-4)" stroke-width="2" stroke-linecap="square" fill="#FFFDE4" transform="translate(12.246902, 9.257786) rotate(-12.000000) translate(-12.246902, -9.257786) " xlink:href="#path-3"></use>
                <path d="M5.83803255,10.2006563 C7.3815325,12.4946684 11.4734017,12.5570386 15.0575095,10.3174395 C17.3238276,8.90128681 18.851889,6.89918154 19.3189607,5.01338507 C18.3864704,6.38678383 16.9802324,7.73630048 15.2233145,8.83414463 C11.684101,11.0456907 7.85078976,11.5305028 5.83803255,10.2006563 Z" id="Combined-Shape" fill="#FFFEF7" transform="translate(12.578497, 8.486600) rotate(-9.000000) translate(-12.578497, -8.486600) "></path>
                <path d="M2.099878,11.6190596 C4.42931204,14.6539861 8.8911232,16.2007305 13.5138154,15.2181469 C19.5679603,13.9312987 23.6054675,8.79344164 22.5318401,3.74242201 C22.2387447,2.36351651 21.5878839,1.71801566 20.6732637,1.53443364 C20.7241573,1.69141837 20.769042,1.86054015 20.8077022,2.04242201 C21.8813295,7.09344164 17.8438224,12.2312987 11.7896775,13.5181469 C8.13418377,14.2951461 4.57929214,13.4905066 2.099878,11.6190596 Z" id="Combined-Shape" fill="#FAF6B9"></path>
            </g>
        </g>
    </g>
</svg>