<?xml version="1.0" encoding="UTF-8"?>
<svg width="186px" height="191px" viewBox="0 0 186 191" version="1.1" xmlns="http://www.w3.org/2000/svg" xmlns:xlink="http://www.w3.org/1999/xlink">
    <!-- Generator: Sketch 42 (36781) - http://www.bohemiancoding.com/sketch -->
    <title>milk</title>
    <desc>Created with Sketch.</desc>
    <defs>
        <linearGradient x1="50%" y1="50%" x2="16.089527%" y2="0%" id="linearGradient-1">
            <stop stop-color="#FFFFFF" offset="0%"></stop>
            <stop stop-color="#E6E6E6" offset="100%"></stop>
        </linearGradient>
        <ellipse id="path-2" cx="33" cy="30" rx="27" ry="8"></ellipse>
        <mask id="mask-3" maskContentUnits="userSpaceOnUse" maskUnits="objectBoundingBox" x="0" y="0" width="54" height="16" fill="white">
            <use xlink:href="#path-2"></use>
        </mask>
    </defs>
    <g id="Page-1" stroke="none" stroke-width="1" fill="none" fill-rule="evenodd">
        <g id="milk" transform="translate(-4.000000, 0.000000)">
            <polygon id="Rectangle-13" fill="#FFFFFF" points="42 48.3756868 108 40.1491672 108 169.305525 42 180"></polygon>
            <g id="Body" transform="translate(5.000000, 30.000000)">
                <polygon id="Rectangle-13-Copy-7" fill="#D00505" points="37 110 103 102.356445 103 139.356445 37 150"></polygon>
                <polyline id="Rectangle-13-Copy-2" fill="#F8F8F8" points="37 18.3756868 0 0.27734375 0 129.433701 37 150"></polyline>
            </g>
            <g id="Cap" transform="translate(5.000000, 0.000000)">
                <polygon id="Rectangle-13-Copy-5" fill="#FFFFFF" points="27 5.82352941 84 0 84 6.82352941 27 13"></polygon>
                <polygon id="Rectangle-13-Copy-3" fill="#8E0000" transform="translate(18.500000, 32.000000) scale(-1, 1) translate(-18.500000, -32.000000) " points="0 51 37 29 10 13"></polygon>
                <polygon id="Rectangle-13-Copy-6" fill="url(#linearGradient-1)" transform="translate(18.500000, 37.500000) scale(-1, 1) translate(-18.500000, -37.500000) " points="0 51 37 29 7 24"></polygon>
                <polygon id="Rectangle-13-Copy-4" fill="#D00404" transform="translate(65.000000, 29.000000) scale(-1, 1) translate(-65.000000, -29.000000) " points="93 51 27 41 46 7 103 13"></polygon>
            </g>
            <g id="Lines" transform="translate(4.000000, 6.000000)" fill="#DFDFDF">
                <rect id="Rectangle-14" x="37" y="45" width="1" height="128"></rect>
                <rect id="Rectangle-14-Copy-2" transform="translate(70.500000, 40.500000) rotate(81.000000) translate(-70.500000, -40.500000) " x="70" y="7" width="1" height="67"></rect>
                <rect id="Rectangle-14-Copy-3" transform="translate(56.500000, 4.000000) rotate(84.000000) translate(-56.500000, -4.000000) " x="56" y="-25" width="1" height="58"></rect>
                <rect id="Rectangle-14-Copy" transform="translate(19.500000, 34.500000) rotate(-60.000000) translate(-19.500000, -34.500000) " x="19" y="13" width="1" height="43"></rect>
            </g>
            <g id="Cap" transform="translate(62.000000, 17.000000)">
                <path d="M10.3175485,0.00494619664 C10.2121023,0.0016568753 10.1062446,0 10,0 C4.4771525,0 0,4.4771525 0,10 C0,15.5228475 4.4771525,20 10,20 C15.5228475,20 20,15.5228475 20,10 C20,9.89375536 19.9983431,9.78789771 19.9950538,9.68245147 C19.8328127,14.7178127 15.6997902,18.75 10.625,18.75 C5.44733047,18.75 1.25,14.5526695 1.25,9.375 C1.25,4.30020975 5.28218734,0.167187319 10.3175485,0.00494619664 Z" id="Combined-Shape" fill="#C6C6C6"></path>
                <circle id="Oval-20-Copy" fill="#FFFFFF" cx="10.625" cy="9.375" r="9.375"></circle>
            </g>
            <path d="M46.8829431,74.5731418 C47.2674612,74.4605985 47.6840161,74.3475744 48.1326205,74.2340662 C48.5812249,74.120558 48.9977799,74.0342221 49.3822979,73.9750559 C49.7485056,73.9187072 50.1467504,73.879669 50.5770444,73.8579403 C51.0073384,73.8362115 51.4055833,73.8238615 51.7717909,73.82089 L55.671883,83.1488883 L59.7093023,72.5995373 C60.0755099,72.4898113 60.4462896,72.3838307 60.8216525,72.2815923 C61.1970153,72.1793538 61.567795,72.1000614 61.9340027,72.0437127 C62.3185207,71.9845465 62.712188,71.9462127 63.1150165,71.9287101 C63.5178449,71.9112075 63.9115122,71.8995619 64.2960302,71.8937729 L65.2298551,90.8056491 C64.936889,90.9041052 64.6118846,91.0074904 64.2548321,91.1158076 C63.8977796,91.2241248 63.4262943,91.3233609 62.8403621,91.4135189 C62.1994987,91.5121292 61.4396292,91.5489865 60.5607308,91.5240918 L60.1762147,80.5342328 L57.1550166,88.2850587 C56.8254297,88.3891498 56.4958478,88.4843432 56.1662609,88.5706419 C55.836674,88.6569406 55.5345572,88.7212197 55.2599014,88.7634812 C54.9852457,88.8057428 54.701439,88.8360683 54.4084729,88.8544587 C54.1155068,88.8728491 53.81339,88.8704077 53.5021135,88.8471346 L50.8105006,82.0820983 L50.5083808,93.0708569 C49.7393447,93.3493208 49.0069404,93.5420812 48.3111459,93.6491438 C47.6702825,93.7477541 46.9287231,93.7817939 46.0864455,93.7512644 L46.8829431,74.5731418 Z M70.750408,90.1963923 C70.0729238,90.3006375 69.258124,90.3459469 68.3059841,90.3323221 L68.3059841,71.2767574 C68.8003644,71.129517 69.2489621,71.0071144 69.6517905,70.909546 C70.0546189,70.8119776 70.411666,70.7392463 70.7229425,70.6913498 C71.0525294,70.640636 71.4233091,70.6013759 71.8352927,70.5735683 C72.2472763,70.5457608 72.6912965,70.5308154 73.1673664,70.5287316 L73.1673664,89.5842964 C72.1969161,89.8937521 71.3912714,90.097782 70.750408,90.1963923 Z M76.4632189,70.0215956 C76.9575992,69.8743552 77.4061969,69.7519526 77.8090253,69.6543842 C78.2118537,69.5568158 78.5689008,69.4840845 78.8801773,69.4361881 C79.2097642,69.3854742 79.5805439,69.3462141 79.9925275,69.3184066 C80.4045112,69.290599 80.8485313,69.2756536 81.3246012,69.2735699 L81.3246012,84.2191108 L87.6691172,83.2428739 C87.7606691,83.6735967 87.820177,84.051419 87.8476425,84.3763523 C87.8751081,84.7012855 87.8888407,84.9971907 87.8888407,85.2640767 C87.8888407,85.5665475 87.8751081,85.8844709 87.8476425,86.2178564 C87.820177,86.551242 87.7606691,86.9562734 87.6691172,87.432963 L76.4632189,89.1572257 L76.4632189,70.0215956 Z M100.550407,75.5227969 L105.686444,84.5805538 C105.375167,84.6996198 104.958612,84.8215399 104.436767,84.9463179 C103.914921,85.0710958 103.443435,85.1658839 103.022297,85.2306849 C102.491295,85.3123906 101.978612,85.3690375 101.484232,85.4006273 C100.989852,85.4322171 100.568719,85.4391927 100.220822,85.4215544 L95.194647,76.5870892 L99.8363058,66.4251556 C100.385617,66.2516705 100.86168,66.1205938 101.264509,66.0319216 C101.667337,65.9432494 102.079314,65.8665139 102.500453,65.8017129 C102.701867,65.7707211 102.930744,65.7399517 103.187089,65.7094037 C103.443435,65.6788558 103.695199,65.6579088 103.942389,65.646562 C104.189579,65.6352152 104.42761,65.6252773 104.65649,65.6167479 C104.88537,65.6082185 105.082203,65.6001717 105.246997,65.5926072 L100.550407,75.5227969 Z M89.9487485,67.9465638 C90.4431288,67.7993234 90.8917265,67.6769209 91.2945549,67.5793524 C91.6973833,67.481784 92.0544304,67.4090527 92.3657069,67.3611563 C92.6952938,67.3104424 93.0660735,67.2711823 93.4780571,67.2433748 C93.8900408,67.2155673 94.3340609,67.2006219 94.8101308,67.1985381 L94.8101308,86.2541028 C93.8396806,86.5635585 93.0340358,86.7675885 92.3931724,86.8661988 C91.7156882,86.9704439 90.9008884,87.0157534 89.9487485,87.0021285 L89.9487485,67.9465638 Z" id="MILK" fill="#B71616"></path>
            <path d="M-11.3178317,97.7797256 C-10.8727075,97.6494436 -10.3904969,97.5186052 -9.87118543,97.3872063 C-9.35187393,97.2558074 -8.86966334,97.1558636 -8.4245392,97.0873719 C-8.00061144,97.0221418 -7.53959692,96.9769506 -7.0414818,96.951797 C-6.54336669,96.9266434 -6.08235217,96.9123469 -5.65842441,96.908907 L-1.14361638,107.707145 L3.53016377,95.4950499 C3.95409152,95.3680294 4.38331194,95.2453446 4.81783789,95.1269918 C5.25236384,95.0086389 5.68158425,94.9168488 6.10551201,94.8516186 C6.55063615,94.7831269 7.00635166,94.7387511 7.47267219,94.7184898 C7.93899272,94.6982285 8.39470822,94.6847473 8.83983237,94.6780459 L9.92084274,116.570732 C9.58170054,116.684706 9.2054703,116.804386 8.79214073,116.929776 C8.37881117,117.055166 7.83301237,117.170043 7.15472796,117.274411 C6.41285439,117.388564 5.53321749,117.431231 4.51579087,117.402412 L4.07066895,104.680378 L0.573282448,113.652857 C0.191747467,113.773354 -0.189781791,113.883552 -0.571316772,113.983452 C-0.952851753,114.083353 -1.30258691,114.157763 -1.62053272,114.206686 C-1.93847854,114.255609 -2.26701762,114.290714 -2.60615983,114.312003 C-2.94530203,114.333292 -3.29503719,114.330466 -3.65537578,114.303525 L-6.77122921,106.472212 L-7.12096786,119.192972 C-8.01121615,119.515326 -8.85905895,119.738469 -9.66452168,119.862406 C-10.4063953,119.976559 -11.2648361,120.015964 -12.2398699,119.980623 L-11.3178317,97.7797256 Z M16.3115217,115.865447 C15.5272554,115.986122 14.5840303,116.038573 13.4818181,116.022801 L13.4818181,93.963779 C14.0541206,93.7933312 14.5734243,93.6516361 15.0397448,93.5386894 C15.5060653,93.4257426 15.9193887,93.3415477 16.2797273,93.286102 C16.6612623,93.2273949 17.0904827,93.1819468 17.5674014,93.1497563 C18.0443201,93.1175659 18.5583248,93.1002648 19.1094309,93.0978527 L19.1094309,115.156875 C17.9860224,115.515105 17.0533953,115.751294 16.3115217,115.865447 Z M22.9247617,92.5107839 C23.4970641,92.3403362 24.0163678,92.198641 24.4826884,92.0856943 C24.9490089,91.9727476 25.3623323,91.8885526 25.7226709,91.833107 C26.1042058,91.7743998 26.5334263,91.7289517 27.010345,91.6967613 C27.4872637,91.6645708 28.0012684,91.6472698 28.5523745,91.6448576 L28.5523745,108.946051 L35.8968861,107.815944 C36.0028681,108.314556 36.0717553,108.751929 36.1035499,109.128076 C36.1353445,109.504224 36.1512415,109.846769 36.1512415,110.15572 C36.1512415,110.505865 36.1353445,110.873898 36.1035499,111.259831 C36.0717553,111.645763 36.0028681,112.114634 35.8968861,112.666457 L22.9247617,114.662491 L22.9247617,92.5107839 Z M50.8084704,98.8790612 L56.7540275,109.364463 C56.3936889,109.502296 55.9114783,109.643433 55.3073812,109.787878 C54.7032842,109.932323 54.1574854,110.042051 53.6699685,110.117065 C53.0552732,110.211649 52.4617833,110.277225 51.8894808,110.313793 C51.3171783,110.350362 50.8296687,110.358437 50.4269373,110.338019 L44.608558,100.111103 L49.9818154,88.3474883 C50.6177071,88.1466593 51.1688049,87.9949228 51.6351254,87.8922745 C52.1014459,87.7896261 52.5783575,87.7007959 53.0658744,87.6257812 C53.2990347,87.5899046 53.5639856,87.5542855 53.860735,87.5189227 C54.1574844,87.48356 54.4489304,87.4593114 54.7350816,87.4461761 C55.0212329,87.4330409 55.2967818,87.4215366 55.5617366,87.4116629 C55.8266915,87.4017892 56.0545492,87.392474 56.2453167,87.3837172 L50.8084704,98.8790612 Z M38.5358232,90.1086945 C39.1081257,89.9382467 39.6274294,89.7965515 40.0937499,89.6836048 C40.5600705,89.5706581 40.9733938,89.4864632 41.3337324,89.4310175 C41.7152674,89.3723103 42.1444878,89.3268622 42.6214066,89.2946718 C43.0983253,89.2624814 43.61233,89.2451803 44.1634361,89.2427681 L44.1634361,111.30179 C43.0400275,111.660021 42.1074004,111.896209 41.3655269,112.010362 C40.5812605,112.131038 39.6380354,112.183489 38.5358232,112.167716 L38.5358232,90.1086945 Z" id="MILK-Copy" fill="#994C4C" transform="translate(22.257079, 103.688436) rotate(-80.000000) translate(-22.257079, -103.688436) "></path>
            <g id="cup-of-milk" transform="translate(124.000000, 80.000000)">
                <ellipse id="Oval-23" stroke="#A7C0D9" stroke-linecap="square" fill="#D5E7F9" cx="32.5" cy="5.5" rx="32.5" ry="5.5"></ellipse>
                <path d="M0.132490727,6 L0,6 L10,107 C10,107 21.4948048,111 32,111 C42.5051952,111 55,107 55,107 L65,6 L64.8675093,6 C63.3747879,8.80325001 49.4533076,11 32.5,11 C15.5466924,11 1.62521212,8.80325001 0.132490728,6 Z" id="Combined-Shape" fill="#D5E7F9"></path>
                <path d="M6,28 L60,28 L51.6923077,104.952381 C51.6923077,104.952381 41.3120083,108 32.5846154,108 C23.8572225,108 14.3076923,104.952381 14.3076923,104.952381 L6,28 Z" id="Combined-Shape-Copy-42" fill="#FFFFFF"></path>
                <use id="Oval-24" stroke="#E4EBF3" mask="url(#mask-3)" stroke-width="2" stroke-linecap="square" fill="#FFFFFF" xlink:href="#path-2"></use>
            </g>
        </g>
    </g>
</svg>