<?xml version="1.0" encoding="UTF-8"?>
<svg width="57px" height="65px" viewBox="0 0 57 65" version="1.1" xmlns="http://www.w3.org/2000/svg" xmlns:xlink="http://www.w3.org/1999/xlink">
    <!-- Generator: Sketch 42 (36781) - http://www.bohemiancoding.com/sketch -->
    <title>Olive Oil</title>
    <desc>Created with Sketch.</desc>
    <defs>
        <path d="M14.6303523,0.994934127 C16.0621441,2.74241641 16.9472513,5.15295563 16.9472513,7.8149343 C16.9472513,10.476913 16.0621441,12.8874522 14.6303523,14.6349345 C13.1985605,12.8874522 12.3134533,10.476913 12.3134533,7.8149343 C12.3134533,5.15295563 13.1985605,2.74241641 14.6303523,0.994934127 L14.6303523,0.994934127 Z" id="path-1"></path>
        <mask id="mask-2" maskContentUnits="userSpaceOnUse" maskUnits="objectBoundingBox" x="0" y="0" width="4.63379803" height="13.6400003" fill="white">
            <use xlink:href="#path-1"></use>
        </mask>
        <path d="M13.5533347,13.6666441 C14.9851264,15.4141263 15.8702337,17.8246656 15.8702337,20.4866442 C15.8702337,23.1486229 14.9851264,25.5591621 13.5533347,27.3066444 C12.1215429,25.5591621 11.2364357,23.1486229 11.2364357,20.4866442 C11.2364357,17.8246656 12.1215429,15.4141263 13.5533347,13.6666441 L13.5533347,13.6666441 Z" id="path-3"></path>
        <mask id="mask-4" maskContentUnits="userSpaceOnUse" maskUnits="objectBoundingBox" x="0" y="0" width="4.63379803" height="13.6400003" fill="white">
            <use xlink:href="#path-3"></use>
        </mask>
        <path d="M23.8551528,5.32360487 C24.7142278,6.45432869 25.2452922,8.01408937 25.2452922,9.73654615 C25.2452922,11.4590029 24.7142278,13.0187636 23.8551528,14.1494874 C22.9960777,13.0187636 22.4650134,11.4590029 22.4650134,9.73654615 C22.4650134,8.01408937 22.9960777,6.45432869 23.8551528,5.32360487 L23.8551528,5.32360487 Z" id="path-5"></path>
        <mask id="mask-6" maskContentUnits="userSpaceOnUse" maskUnits="objectBoundingBox" x="0" y="0" width="2.78027882" height="8.82588258" fill="white">
            <use xlink:href="#path-5"></use>
        </mask>
        <path d="M22.0016336,14.553908 C22.8607086,15.7874249 23.391773,17.488982 23.391773,19.3680258 C23.391773,21.2470696 22.8607086,22.9486267 22.0016336,24.1821436 C21.1425585,22.9486267 20.6114942,21.2470696 20.6114942,19.3680258 C20.6114942,17.488982 21.1425585,15.7874249 22.0016336,14.553908 L22.0016336,14.553908 Z" id="path-7"></path>
        <mask id="mask-8" maskContentUnits="userSpaceOnUse" maskUnits="objectBoundingBox" x="0" y="0" width="2.78027882" height="9.62823554" fill="white">
            <use xlink:href="#path-7"></use>
        </mask>
        <path d="M6.56695713,7.936732 C7.71239055,9.33471782 8.42047634,11.2631492 8.42047634,13.3927321 C8.42047634,15.5223151 7.71239055,17.4507465 6.56695713,18.8487323 C5.4215237,17.4507465 4.71343792,15.5223151 4.71343792,13.3927321 C4.71343792,11.2631492 5.4215237,9.33471782 6.56695713,7.936732 L6.56695713,7.936732 Z" id="path-9"></path>
        <mask id="mask-10" maskContentUnits="userSpaceOnUse" maskUnits="objectBoundingBox" x="0" y="0" width="3.70703842" height="10.9120003" fill="white">
            <use xlink:href="#path-9"></use>
        </mask>
    </defs>
    <g id="Page-1" stroke="none" stroke-width="1" fill="none" fill-rule="evenodd">
        <g id="Olive-Oil" transform="translate(-1.000000, 0.000000)">
            <g opacity="0.900000036" transform="translate(22.000000, 0.000000)">
                <path d="M10.0556048,1.5 L19.527635,3.5 C19.527635,24.5 31.9908419,40.25 28.3251928,59 C27.1053737,61.4957771 17.7671639,61.9152531 14.6625964,61.9857562 C14.6625964,62 14.4865891,62 14.1738432,61.9950563 C13.846704,62 13.6625964,62 13.6625964,62 C10.6514341,61.911098 1.80556098,61.4835641 0.645117378,59 C-2.85925238,40.25 10.0556048,22.5 10.0556048,1.5 Z" id="Combined-Shape" fill="#F0F7FE"></path>
                <path d="M21.0428526,22 C24.1560794,34.6859113 29.6823403,45.8567739 27.2045666,58.5144969 C26.0877608,60.7965807 17.5796981,61.1907504 14.6739306,61.2588327 L14.6739306,61.2730474 C14.6739306,61.2730474 14.5029804,61.2730474 14.2002538,61.268122 C13.8835951,61.2730474 13.7047773,61.2730474 13.7047773,61.2730474 L13.7047773,61.2577724 C10.8872466,61.1867072 2.83035711,60.7850168 1.76809814,58.5144969 C-0.60065974,45.8567739 4.68245949,34.6859113 7.65871223,22 L21.0428526,22 L21.0428526,22 Z" id="Combined-Shape-Copy-2" fill="#DFF513"></path>
                <path d="M18,3.17744297 L18,5.00922203 C18,5.55641359 17.5621186,6 16.9970707,6 L12.0029293,6 C11.4490268,6 11,5.54902482 11,5.00922203 L11,1.69940714 L18,3.17744297 Z" id="Combined-Shape" fill-opacity="0.307433197" fill="#CDB893"></path>
                <path d="M18,3.17744297 L18,0.990777969 C18,0.45097518 17.5509732,0 16.9970707,0 L12.0029293,0 C11.4378814,0 11,0.443586406 11,0.990777969 L11,1.69940714 L18,3.17744297 Z" id="Combined-Shape" fill="#D5B687"></path>
                <path d="M28.6488618,46.4872091 C33.0501517,43.3503001 36,37.5885344 36,31 C36,21.0588745 29,17 21,13 C20.7596222,12.8798111 20.5201473,12.7741208 20.281738,12.6824358 C20.4506671,13.7465253 20.6435989,14.7988156 20.85596,15.8406265 C26.9810072,19.0397199 32,22.6586291 32,30.4951062 C32,34.992442 30.4140826,39.0452847 27.876738,41.8922461 C28.1932911,43.4191631 28.4568069,44.9490454 28.6488618,46.4872091 Z" id="Combined-Shape" fill="#E4F1FE"></path>
            </g>
            <g id="Olive-2" transform="translate(52.500000, 56.500000) rotate(14.000000) translate(-52.500000, -56.500000) translate(49.000000, 54.000000)">
                <ellipse id="Oval-6" fill="#A9CC56" cx="3.5" cy="2.5" rx="3.5" ry="2.5"></ellipse>
                <path d="M0.237846226,3.40771399 C0.746483299,4.33965802 2.01527986,5 3.5,5 C5.43299662,5 7,3.88071187 7,2.5 C7,1.73534124 6.51938297,1.05086399 5.76215377,0.592286009 C5.91572483,0.873664686 6,1.17980251 6,1.5 C6,2.88071187 4.43299662,4 2.5,4 C1.63752564,4 0.847913653,3.77717081 0.237846226,3.40771399 Z" id="Combined-Shape" fill="#9EBF50"></path>
            </g>
            <g id="Olive-1" transform="translate(35.000000, 60.000000)">
                <ellipse id="Oval-6" fill="#A9CC56" cx="3.5" cy="2.5" rx="3.5" ry="2.5"></ellipse>
                <path d="M0.237846226,3.40771399 C0.746483299,4.33965802 2.01527986,5 3.5,5 C5.43299662,5 7,3.88071187 7,2.5 C7,1.73534124 6.51938297,1.05086399 5.76215377,0.592286009 C5.91572483,0.873664686 6,1.17980251 6,1.5 C6,2.88071187 4.43299662,4 2.5,4 C1.63752564,4 0.847913653,3.77717081 0.237846226,3.40771399 Z" id="Combined-Shape" fill="#9EBF50"></path>
            </g>
            <g id="Olive-Leaf" transform="translate(0.000000, 37.000000)">
                <path d="M25.0225093,13.9264671 C25.0225093,13.9264671 33.1189853,10.7840858 35.216865,7.22117665 C37.0703842,7.22117665 38.0448318,7.43386149 37.0703842,8.05933796 C33.923737,10.0791016 29.6563074,13.9264671 25.9492689,14.7932765 C22.2422305,15.6600859 14.1581234,15.0592945 10.1943557,14.7932765 L25.0225093,13.9264671 Z" id="Path-2" fill="#666651"></path>
                <use id="Combined-Shape-Copy-10" stroke="#9EBF50" mask="url(#mask-2)" stroke-width="2" stroke-linecap="square" fill="#A9CC56" transform="translate(14.630352, 7.814934) rotate(-16.000000) translate(-14.630352, -7.814934) " xlink:href="#path-1"></use>
                <use id="Combined-Shape-Copy-11" stroke="#9EBF50" mask="url(#mask-4)" stroke-width="2" stroke-linecap="square" fill="#A9CC56" transform="translate(13.553335, 20.486644) rotate(41.000000) translate(-13.553335, -20.486644) " xlink:href="#path-3"></use>
                <use id="Combined-Shape-Copy-13" stroke="#9EBF50" mask="url(#mask-6)" stroke-width="2" stroke-linecap="square" fill="#A9CC56" transform="translate(23.855153, 9.736546) rotate(14.000000) translate(-23.855153, -9.736546) " xlink:href="#path-5"></use>
                <use id="Combined-Shape-Copy-14" stroke="#9EBF50" mask="url(#mask-8)" stroke-width="2" stroke-linecap="square" fill="#A9CC56" transform="translate(22.001634, 19.368026) rotate(21.000000) translate(-22.001634, -19.368026) " xlink:href="#path-7"></use>
                <use id="Combined-Shape-Copy-12" stroke="#9EBF50" mask="url(#mask-10)" stroke-width="2" stroke-linecap="square" fill="#A9CC56" transform="translate(6.566957, 13.392732) rotate(105.000000) translate(-6.566957, -13.392732) " xlink:href="#path-9"></use>
            </g>
        </g>
    </g>
</svg>