<?xml version="1.0" encoding="UTF-8"?>
<svg width="88px" height="74px" viewBox="0 0 88 74" version="1.1" xmlns="http://www.w3.org/2000/svg" xmlns:xlink="http://www.w3.org/1999/xlink">
    <!-- Generator: Sketch 42 (36781) - http://www.bohemiancoding.com/sketch -->
    <title>onions</title>
    <desc>Created with Sketch.</desc>
    <defs>
        <path d="M25,59.7661076 C32.9888169,58.5707855 36.8679971,58.0654223 41.6666667,56.1801412 C48.1401893,53.6368508 50,44.1019108 50,36.4573257 C45.2380952,21.5157987 45.2380952,28.6877317 27.3809524,10.7578994 C25,7.17193292 28.5714286,1.19532215 27.3809524,1.19532215 C26.1904762,1.19532215 26.1904762,-1.32449607e-13 25,2.39064431 C23.8095238,4.78128861 22.8358901,10.6318468 22.6190476,10.7578994 C15.4761905,22.7111209 2.38095238,22.7111209 -4.4408921e-14,36.4573257 C-4.4408921e-14,43.7526645 2.38095238,53.7894969 8.33333333,56.1801412 C14.2857143,58.5707855 16.6365964,58.5707855 25,59.7661076 Z" id="path-1"></path>
        <filter x="-50%" y="-50%" width="200%" height="200%" filterUnits="objectBoundingBox" id="filter-2">
            <feOffset dx="2" dy="2" in="SourceAlpha" result="shadowOffsetOuter1"></feOffset>
            <feColorMatrix values="0 0 0 0 0.368627451   0 0 0 0 0.105882353   0 0 0 0 0.274509804  0 0 0 1 0" type="matrix" in="shadowOffsetOuter1"></feColorMatrix>
        </filter>
        <path d="M25,59.7661076 C32.9888169,58.5707855 36.8679971,58.0654223 41.6666667,56.1801412 C48.1401893,53.6368508 50,44.1019108 50,36.4573257 C45.2380952,21.5157987 45.2380952,28.6877317 27.3809524,10.7578994 C25,7.17193292 28.5714286,1.19532215 27.3809524,1.19532215 C26.1904762,1.19532215 26.1904762,-8.0380147e-14 25,2.39064431 C23.8095238,4.78128861 22.8358901,10.6318468 22.6190476,10.7578994 C15.4761905,22.7111209 2.38095238,22.7111209 -6.4710142e-14,36.4573257 C-6.4710142e-14,43.7526645 2.38095238,53.7894969 8.33333333,56.1801412 C14.2857143,58.5707855 16.6365964,58.5707855 25,59.7661076 Z" id="path-3"></path>
        <filter x="-50%" y="-50%" width="200%" height="200%" filterUnits="objectBoundingBox" id="filter-4">
            <feOffset dx="2" dy="2" in="SourceAlpha" result="shadowOffsetOuter1"></feOffset>
            <feColorMatrix values="0 0 0 0 1   0 0 0 0 0.725   0 0 0 0 0.34  0 0 0 1 0" type="matrix" in="shadowOffsetOuter1"></feColorMatrix>
        </filter>
    </defs>
    <g id="Page-1" stroke="none" stroke-width="1" fill="none" fill-rule="evenodd">
        <g id="onions" transform="translate(-10.000000, -18.000000)">
            <g id="Red-Onion" transform="translate(69.500000, 47.000000) rotate(24.000000) translate(-69.500000, -47.000000) translate(37.000000, 11.000000)">
                <g id="Onion" transform="translate(32.776457, 35.897777) rotate(-15.000000) translate(-32.776457, -35.897777) translate(7.776457, 5.897777)">
                    <g id="Oval-2">
                        <use fill="black" fill-opacity="1" filter="url(#filter-2)" xlink:href="#path-1"></use>
                        <use fill="#782259" fill-rule="evenodd" xlink:href="#path-1"></use>
                    </g>
                    <path d="M4.29977026,27.4153356 C9.40328992,21.7277619 17.5249242,19.2826654 22.6190476,10.7578994 C22.8358901,10.6318468 23.8095238,4.78128861 25,2.39064431 C26.1904762,-8.63753513e-14 26.1904762,1.19532215 27.3809524,1.19532215 C28.5714286,1.19532215 25,7.17193292 27.3809524,10.7578994 C35.0847379,18.493044 39.465018,21.5563409 42.3379395,23.7388328 C30.3825507,18.8378439 16.1255035,20.0295609 4.29977026,27.4153356 Z" id="Combined-Shape" fill="#5E1B46"></path>
                    <path d="M34.7619048,55.2183549 C35.1509848,55.3175755 35.5484194,55.368863 35.952381,55.368863 C40.6862502,55.368863 44.5238095,48.3257604 44.5238095,39.637653 C44.5238095,30.9495457 40.6862502,23.9064431 35.952381,23.9064431 C35.5484194,23.9064431 35.1509848,23.9577305 34.7619048,24.0569512 C38.932304,25.1204586 42.1428571,31.6909394 42.1428571,39.637653 C42.1428571,47.5843666 38.932304,54.1548474 34.7619048,55.2183549 Z" id="Combined-Shape" fill-opacity="0.45" fill="#FFF2FE"></path>
                    <path d="M13.3333333,55.2012005 C13.7224134,55.3117299 14.119848,55.368863 14.5238095,55.368863 C19.2576788,55.368863 23.0952381,47.5230144 23.0952381,37.8446698 C23.0952381,28.1663251 19.2576788,20.3204766 14.5238095,20.3204766 C14.119848,20.3204766 13.7224134,20.3776096 13.3333333,20.488139 C17.5037325,21.672861 20.7142857,28.9922201 20.7142857,37.8446698 C20.7142857,46.6971195 17.5037325,54.0164785 13.3333333,55.2012005 Z" id="Combined-Shape-Copy-6" fill-opacity="0.45" fill="#FFF2FE" transform="translate(18.214286, 37.844670) scale(-1, 1) translate(-18.214286, -37.844670) "></path>
                    <path d="M26.1904762,55.2012005 C26.5795562,55.3117299 26.9769909,55.368863 27.3809524,55.368863 C32.1148217,55.368863 35.952381,47.5230144 35.952381,37.8446698 C35.952381,28.1663251 32.1148217,20.3204766 27.3809524,20.3204766 C26.9769909,20.3204766 26.5795562,20.3776096 26.1904762,20.488139 C30.3608754,21.672861 33.5714286,28.9922201 33.5714286,37.8446698 C33.5714286,46.6971195 30.3608754,54.0164785 26.1904762,55.2012005 Z" id="Combined-Shape-Copy-5" fill="#5E1B46"></path>
                    <path d="M2.38095238,55.2183549 C2.68462462,55.3175755 2.9948175,55.368863 3.31010453,55.368863 C7.00483178,55.368863 10,48.3257604 10,39.637653 C10,30.9495457 7.00483178,23.9064431 3.31010453,23.9064431 C2.9948175,23.9064431 2.68462462,23.9577305 2.38095238,24.0569512 C5.6358981,25.1204586 8.1416957,31.6909394 8.1416957,39.637653 C8.1416957,47.5843666 5.6358981,54.1548474 2.38095238,55.2183549 Z" id="Combined-Shape-Copy-7" fill="#5E1B46" transform="translate(6.190476, 39.637653) scale(-1, 1) translate(-6.190476, -39.637653) "></path>
                </g>
            </g>
            <g id="Yellow-Onion" transform="translate(0.000000, 22.000000)">
                <g id="Onion" transform="translate(32.776457, 35.897777) rotate(-15.000000) translate(-32.776457, -35.897777) translate(7.776457, 5.897777)">
                    <g id="Oval-2">
                        <use fill="black" fill-opacity="1" filter="url(#filter-4)" xlink:href="#path-3"></use>
                        <use fill="#FFC87A" fill-rule="evenodd" xlink:href="#path-3"></use>
                    </g>
                    <path d="M4.29977026,27.4153356 C9.40328992,21.7277619 17.5249242,19.2826654 22.6190476,10.7578994 C22.8358901,10.6318468 23.8095238,4.78128861 25,2.39064431 C26.1904762,-9.53681578e-14 26.1904762,1.19532215 27.3809524,1.19532215 C28.5714286,1.19532215 25,7.17193292 27.3809524,10.7578994 C35.0847379,18.493044 39.465018,21.5563409 42.3379395,23.7388328 C30.3825507,18.8378439 16.1255035,20.0295609 4.29977026,27.4153356 Z" id="Combined-Shape" fill-opacity="0.292657382" fill="#FFA11C"></path>
                    <path d="M34.7619048,55.2183549 C35.1509848,55.3175755 35.5484194,55.368863 35.952381,55.368863 C40.6862502,55.368863 44.5238095,48.3257604 44.5238095,39.637653 C44.5238095,30.9495457 40.6862502,23.9064431 35.952381,23.9064431 C35.5484194,23.9064431 35.1509848,23.9577305 34.7619048,24.0569512 C38.932304,25.1204586 42.1428571,31.6909394 42.1428571,39.637653 C42.1428571,47.5843666 38.932304,54.1548474 34.7619048,55.2183549 Z" id="Combined-Shape" fill-opacity="0.45" fill="#FFFEF2"></path>
                    <path d="M13.3333333,55.2012005 C13.7224134,55.3117299 14.119848,55.368863 14.5238095,55.368863 C19.2576788,55.368863 23.0952381,47.5230144 23.0952381,37.8446698 C23.0952381,28.1663251 19.2576788,20.3204766 14.5238095,20.3204766 C14.119848,20.3204766 13.7224134,20.3776096 13.3333333,20.488139 C17.5037325,21.672861 20.7142857,28.9922201 20.7142857,37.8446698 C20.7142857,46.6971195 17.5037325,54.0164785 13.3333333,55.2012005 Z" id="Combined-Shape-Copy-6" fill-opacity="0.45" fill="#FFFEF2" transform="translate(18.214286, 37.844670) scale(-1, 1) translate(-18.214286, -37.844670) "></path>
                    <path d="M26.1904762,55.2012005 C26.5795562,55.3117299 26.9769909,55.368863 27.3809524,55.368863 C32.1148217,55.368863 35.952381,47.5230144 35.952381,37.8446698 C35.952381,28.1663251 32.1148217,20.3204766 27.3809524,20.3204766 C26.9769909,20.3204766 26.5795562,20.3776096 26.1904762,20.488139 C30.3608754,21.672861 33.5714286,28.9922201 33.5714286,37.8446698 C33.5714286,46.6971195 30.3608754,54.0164785 26.1904762,55.2012005 Z" id="Combined-Shape-Copy-5" fill="#FFBF66"></path>
                    <path d="M2.38095238,55.2183549 C2.68462462,55.3175755 2.9948175,55.368863 3.31010453,55.368863 C7.00483178,55.368863 10,48.3257604 10,39.637653 C10,30.9495457 7.00483178,23.9064431 3.31010453,23.9064431 C2.9948175,23.9064431 2.68462462,23.9577305 2.38095238,24.0569512 C5.6358981,25.1204586 8.1416957,31.6909394 8.1416957,39.637653 C8.1416957,47.5843666 5.6358981,54.1548474 2.38095238,55.2183549 Z" id="Combined-Shape-Copy-7" fill="#FFBF66" transform="translate(6.190476, 39.637653) scale(-1, 1) translate(-6.190476, -39.637653) "></path>
                </g>
            </g>
            <g id="Red-Onion-Half" transform="translate(43.000000, 44.000000)">
                <g id="Skin" transform="translate(3.000000, 0.000000)">
                    <ellipse id="Outer-Ring-Copy" fill="#54183F" transform="translate(29.222222, 27.000000) rotate(22.000000) translate(-29.222222, -27.000000) " cx="29.2222222" cy="27" rx="22.2222222" ry="20"></ellipse>
                    <ellipse id="Outer-Ring" fill="#5E1B46" transform="translate(28.222222, 27.000000) rotate(22.000000) translate(-28.222222, -27.000000) " cx="28.2222222" cy="27" rx="22.2222222" ry="20"></ellipse>
                </g>
                <g id="Rings">
                    <ellipse id="Outer-Ring" fill="#782359" transform="translate(28.222222, 27.000000) rotate(22.000000) translate(-28.222222, -27.000000) " cx="28.2222222" cy="27" rx="22.2222222" ry="20"></ellipse>
                    <ellipse id="Ring-1" fill-opacity="0.66" fill="#FFF5E6" transform="translate(28.219999, 27.097999) rotate(22.000000) translate(-28.219999, -27.097999) " cx="28.2199993" cy="27.0979994" rx="21.2199993" ry="19.0979994"></ellipse>
                </g>
                <g id="Rings-Copy" transform="translate(3.000000, 3.000000)">
                    <ellipse id="Outer-Ring" fill="#782359" transform="translate(25.251462, 24.000000) rotate(22.000000) translate(-25.251462, -24.000000) " cx="25.251462" cy="24" rx="19.8830409" ry="17.7777778"></ellipse>
                    <ellipse id="Ring-1" fill-opacity="0.66" fill="#FFF5E6" transform="translate(25.249473, 24.087111) rotate(22.000000) translate(-25.249473, -24.087111) " cx="25.2494731" cy="24.0871106" rx="18.9863152" ry="16.9759995"></ellipse>
                </g>
                <g id="Rings-Copy-2" transform="translate(6.000000, 6.000000)">
                    <ellipse id="Outer-Ring" fill="#782359" transform="translate(22.280702, 21.000000) rotate(22.000000) translate(-22.280702, -21.000000) " cx="22.2807018" cy="21" rx="17.5438596" ry="15.5555556"></ellipse>
                    <ellipse id="Ring-1" fill-opacity="0.66" fill="#FFF5E6" transform="translate(22.278947, 21.076222) rotate(22.000000) translate(-22.278947, -21.076222) " cx="22.2789468" cy="21.0762217" rx="16.752631" ry="14.8539995"></ellipse>
                </g>
                <g id="Rings-Copy-3" transform="translate(9.000000, 8.000000)">
                    <ellipse id="Outer-Ring" fill="#782359" transform="translate(19.309942, 19.000000) rotate(22.000000) translate(-19.309942, -19.000000) " cx="19.3099415" cy="19" rx="15.2046784" ry="13.3333333"></ellipse>
                    <ellipse id="Ring-1" fill-opacity="0.66" fill="#FFF5E6" transform="translate(19.308421, 19.065333) rotate(22.000000) translate(-19.308421, -19.065333) " cx="19.3084206" cy="19.0653329" rx="14.5189469" ry="12.7319996"></ellipse>
                </g>
                <g id="Rings-Copy-4" transform="translate(12.000000, 11.000000)">
                    <ellipse id="Outer-Ring" fill="#782359" transform="translate(16.339181, 16.014706) rotate(22.000000) translate(-16.339181, -16.014706) " cx="16.3391813" cy="16.0147059" rx="12.8654971" ry="11.2383901"></ellipse>
                    <ellipse id="Ring-1" fill-opacity="0.66" fill="#FFF5E6" transform="translate(16.337894, 16.069774) rotate(22.000000) translate(-16.337894, -16.069774) " cx="16.3378943" cy="16.0697736" rx="12.2852628" ry="10.7315384"></ellipse>
                </g>
                <g id="Rings-Copy-5" transform="translate(15.000000, 15.000000)">
                    <ellipse id="Outer-Ring" fill="#782359" transform="translate(12.708796, 12.262911) rotate(22.000000) translate(-12.708796, -12.262911) " cx="12.7087963" cy="12.2629109" rx="9.64500046" ry="8.42519158"></ellipse>
                    <ellipse id="Ring-1" fill-opacity="0.66" fill="#FFF5E6" transform="translate(12.781836, 12.486569) rotate(22.000000) translate(-12.781836, -12.486569) " cx="12.781836" cy="12.4865687" rx="8.37407414" ry="7.31500006"></ellipse>
                </g>
                <g id="Rings-Copy-6" transform="translate(17.000000, 18.000000)">
                    <ellipse id="Outer-Ring" fill="#782359" transform="translate(9.843315, 9.440305) rotate(22.000000) translate(-9.843315, -9.440305) " cx="9.8433148" cy="9.44030452" rx="7.19227812" ry="6.19999981"></ellipse>
                    <ellipse id="Ring-1" fill-opacity="0.66" fill="#FFF5E6" transform="translate(9.765376, 9.537439) rotate(22.000000) translate(-9.765376, -9.537439) " cx="9.76537567" cy="9.53743914" rx="5.83916621" ry="5.03356917"></ellipse>
                </g>
            </g>
        </g>
    </g>
</svg>