<?xml version="1.0" encoding="UTF-8"?>
<svg width="56px" height="96px" viewBox="0 0 56 96" version="1.1" xmlns="http://www.w3.org/2000/svg" xmlns:xlink="http://www.w3.org/1999/xlink">
    <!-- Generator: Sketch 42 (36781) - http://www.bohemiancoding.com/sketch -->
    <title>scallion</title>
    <desc>Created with Sketch.</desc>
    <defs>
        <linearGradient x1="0%" y1="100%" x2="50%" y2="0%" id="linearGradient-1">
            <stop stop-color="#FFFFFF" offset="0%"></stop>
            <stop stop-color="#8CCE40" offset="25.0878869%"></stop>
            <stop stop-color="#429321" offset="100%"></stop>
        </linearGradient>
        <linearGradient x1="0%" y1="100%" x2="50%" y2="0%" id="linearGradient-2">
            <stop stop-color="#7FC33B" offset="0%"></stop>
            <stop stop-color="#429321" offset="100%"></stop>
        </linearGradient>
        <linearGradient x1="0%" y1="100%" x2="50%" y2="0%" id="linearGradient-3">
            <stop stop-color="#FFFFFF" offset="0%"></stop>
            <stop stop-color="#8CCE40" offset="25.0878869%"></stop>
            <stop stop-color="#286E0C" offset="100%"></stop>
        </linearGradient>
        <linearGradient x1="0%" y1="100%" x2="50%" y2="0%" id="linearGradient-4">
            <stop stop-color="#FFFFFF" offset="0%"></stop>
            <stop stop-color="#8CCE40" offset="25.0878869%"></stop>
            <stop stop-color="#307B12" offset="100%"></stop>
        </linearGradient>
        <linearGradient x1="0%" y1="100%" x2="50%" y2="0%" id="linearGradient-5">
            <stop stop-color="#FFFFFF" offset="0%"></stop>
            <stop stop-color="#8CCE40" offset="25.0878869%"></stop>
            <stop stop-color="#387121" offset="100%"></stop>
        </linearGradient>
        <linearGradient x1="-16.4463024%" y1="74.1844763%" x2="71.1309131%" y2="4.68461065%" id="linearGradient-6">
            <stop stop-color="#77BD38" offset="0%"></stop>
            <stop stop-color="#2D760F" offset="100%"></stop>
        </linearGradient>
    </defs>
    <g id="Page-1" stroke="none" stroke-width="1" fill="none" fill-rule="evenodd">
        <g id="scallion" transform="translate(27.082545, 52.331650) scale(-1, 1) rotate(-29.000000) translate(-27.082545, -52.331650) translate(-16.917455, -0.168350)">
            <g id="Scallion" transform="translate(38.356396, 0.971635)">
                <path d="M8,83 C8,81 8,73.3518182 7.66666667,73.3518182 C7.33333333,73.3518182 6.33333333,68 6,68.7036364 C5.66666667,69.4072727 4.39404922,75.1292627 4.33333333,75.1663636 C2.33333333,78.6845455 1.66666667,79.6845455 1,82.7304545 C0.333333333,85.7763636 1.30036242,86.6017809 2.50592,87.3863176 C3.09641699,87.7705933 3.90408491,88 5,88 C8.33333333,88 8,85 8,83 Z" id="Oval-2" fill="#FFFEEF"></path>
                <path d="M6,68 C5.44228797,71.1153445 7,77 8,73 C11.5454545,47 15,30 22,3 C19.0909091,-1 22,4 19.0909091,0 C8,43 11.2604698,38.6153445 6,68 Z" id="Path-9" fill="url(#linearGradient-1)"></path>
            </g>
            <g id="Scallion-Copy" transform="translate(44.603299, 51.483783) rotate(-5.000000) translate(-44.603299, -51.483783) translate(33.603299, 7.483783)">
                <path d="M8,83 C8,81 8,73.3518182 7.66666667,73.3518182 C7.33333333,73.3518182 6.33333333,68 6,68.7036364 C5.66666667,69.4072727 4.39404922,75.1292627 4.33333333,75.1663636 C2.33333333,78.6845455 1.66666667,79.6845455 1,82.7304545 C0.333333333,85.7763636 1.30036242,86.6017809 2.50592,87.3863176 C3.09641699,87.7705933 3.90408491,88 5,88 C8.33333333,88 8,85 8,83 Z" id="Oval-2" fill="#FFFEEF"></path>
                <path d="M6,68 C5.44228797,71.1153445 7,77 8,73 C11.5454545,47 15,30 22,3 C19.0909091,-1 22,4 19.0909091,-1.95399252e-14 C8,43 11.2604698,38.6153445 6,68 Z" id="Path-9" fill="url(#linearGradient-1)"></path>
            </g>
            <g id="Scallion-Copy-2" transform="translate(39.938585, 49.500252) scale(-1, 1) rotate(-25.000000) translate(-39.938585, -49.500252) translate(17.438585, 5.500252)">
                <path d="M16,83 C16,81 16,73.3518182 15.6666667,73.3518182 C15.3333333,73.3518182 14.3333333,68 14,68.7036364 C13.6666667,69.4072727 12.3940492,75.1292627 12.3333333,75.1663636 C10.3333333,78.6845455 9.66666667,79.6845455 9,82.7304545 C8.33333333,85.7763636 9.30036242,86.6017809 10.50592,87.3863176 C11.096417,87.7705933 11.9040849,88 13,88 C16.3333333,88 16,85 16,83 Z" id="Oval-2" fill="#FFFEEF"></path>
                <path d="M14,68 C13.442288,71.1153445 15,77 16,73 C19.5454545,47 23,30 30,3 C27.0909091,-1 30,4 27.0909091,2.62900812e-13 C16,43 19.2604698,38.6153445 14,68 Z" id="Path-9" fill="url(#linearGradient-1)"></path>
                <path d="M25.451465,41.4438708 C24.893753,44.5592153 27.2054171,49.7352281 28.2054171,45.7352281 C31.7508716,19.7352281 29.0201278,32.5457583 36.0201278,5.5457583 C33.1110369,1.5457583 36.0201278,6.5457583 33.1110369,2.5457583 C22.0201278,45.5457583 30.7119348,12.0592153 25.451465,41.4438708 Z" id="Path-9-Copy" fill="url(#linearGradient-2)" transform="translate(30.692989, 24.868802) rotate(25.000000) translate(-30.692989, -24.868802) "></path>
                <path d="M6.13020899,86.6709452 C5.9516478,86.7289068 5.75029377,86.7600199 5.52326797,86.7600199 C4.79718637,86.7600199 4.26207847,86.5348805 3.87085381,86.1577529 C3.07213027,85.3878098 2.4314401,84.5777466 2.87312979,81.5884962 C3.31481949,78.5992458 3.75650919,77.6178474 5.08157827,74.1651093 C5.12180465,74.1286985 5.96495767,68.5131465 6.18580252,67.8225989 C6.2947133,67.4820517 6.51104393,68.586809 6.72884509,69.7941738 C6.41413421,71.6531219 6.04359724,74.0686323 6.01725953,74.0924718 C4.69219045,77.54521 4.25050075,78.5266084 3.80881105,81.5158588 C3.36712136,84.5051092 4.00781153,85.3151724 4.80653507,86.0851154 C5.13620152,86.402903 5.56803418,86.6127692 6.13020899,86.6709452 Z" id="Combined-Shape" fill="#787113" opacity="0.177264493" transform="translate(4.728845, 77.260020) rotate(12.000000) translate(-4.728845, -77.260020) "></path>
            </g>
            <g id="Scallion" transform="translate(24.000000, 9.000000)">
                <path d="M18,83 C18,81 18,73.3518182 17.6666667,73.3518182 C17.3333333,73.3518182 16.3333333,68 16,68.7036364 C15.6666667,69.4072727 14.3940492,75.1292627 14.3333333,75.1663636 C12.3333333,78.6845455 11.6666667,79.6845455 11,82.7304545 C10.3333333,85.7763636 11.3003624,86.6017809 12.50592,87.3863176 C13.096417,87.7705933 13.9040849,88 15,88 C18.3333333,88 18,85 18,83 Z" id="Oval-2" fill="#FFFEEF"></path>
                <path d="" id="Combined-Shape" fill="#FFFEEF"></path>
                <path d="M16,68 C15.442288,71.1153445 17,77 18,73 C21.5454545,47 25,30 32,3 C29.0909091,-1 32,4 29.0909091,-4.54747351e-13 C18,43 21.2604698,38.6153445 16,68 Z" id="Path-9" fill="url(#linearGradient-1)"></path>
                <path d="M30.233719,1.46661311 C30.0245398,1.24342936 29.6749982,0.803122589 29.0909091,-4.8316906e-13 C18,43 21.2604698,38.6153445 16,68 C15.442288,71.1153445 17,77 18,73 C18.0614279,72.5495287 18.1228285,72.101759 18.1842208,71.6565922 C17.7879793,70.2827299 17.5816728,68.2022484 17.8442389,66.7355702 C22.9906484,37.9880485 19.9816235,41.5613054 30.233719,1.46661311 Z" id="Combined-Shape" fill="url(#linearGradient-3)"></path>
                <path d="M8.91469833,84.2737801 C8.64507093,84.3328402 8.34102635,84.364543 7.9982174,84.364543 C6.90183418,84.364543 6.09382126,84.1351363 5.50307204,83.7508606 C4.2969995,82.9663239 3.32955733,82.1409066 3.99650877,79.0949976 C4.66346021,76.0490885 5.33041165,75.0490885 7.33126596,71.5309066 C7.39200778,71.4938057 8.66516883,65.7718157 8.99864455,65.0681794 C9.16309984,64.7211774 9.48975908,65.8468745 9.81863884,67.0771238 C9.34342542,68.9713067 8.78391458,71.4326011 8.74414465,71.4568924 C6.74329034,74.9750742 6.0763389,75.9750742 5.40938747,79.0209833 C4.74243603,82.0668924 5.70987819,82.8923097 6.91595073,83.6768464 C7.41374706,84.0006573 8.06581437,84.2145014 8.91469833,84.2737801 Z" id="Combined-Shape-Copy-41" fill="#ECE9BD" transform="translate(6.798639, 74.684479) rotate(19.000000) translate(-6.798639, -74.684479) "></path>
            </g>
            <g id="Scallion-Copy" transform="translate(45.517124, 53.392201) rotate(-5.000000) translate(-45.517124, -53.392201) translate(30.017124, 9.392201)">
                <path d="M17,83 C17,81 17,73.3518182 16.6666667,73.3518182 C16.3333333,73.3518182 15.3333333,68 15,68.7036364 C14.6666667,69.4072727 13.3940492,75.1292627 13.3333333,75.1663636 C11.3333333,78.6845455 10.6666667,79.6845455 10,82.7304545 C9.33333333,85.7763636 10.3003624,86.6017809 11.50592,87.3863176 C12.096417,87.7705933 12.9040849,88 14,88 C17.3333333,88 17,85 17,83 Z" id="Oval-2" fill="#FFFEEF"></path>
                <path d="M14.9160896,87.909237 C14.6465773,87.9682972 14.3426626,88 14,88 C12.9040849,88 12.096417,87.7705933 11.50592,87.3863176 C10.3003624,86.6017809 9.33333333,85.7763636 10,82.7304545 C10.6666667,79.6845455 11.3333333,78.6845455 13.3333333,75.1663636 C13.3940492,75.1292627 14.6666667,69.4072727 15,68.7036364 C15.1643851,68.3566344 15.4909048,69.4823315 15.8196442,70.7125808 C15.3446337,72.6067637 14.7853617,75.068058 14.7456088,75.0923494 C12.7456088,78.6105312 12.0789421,79.6105312 11.4122754,82.6564403 C10.7456088,85.7023494 11.7126379,86.5277666 12.9181954,87.3123033 C13.4157792,87.6361143 14.0675681,87.8499584 14.9160896,87.909237 Z" id="Combined-Shape" fill="#ECE9BD"></path>
                <path d="M15,68 C14.442288,71.1153445 16,77 17,73 C20.5454545,47 24,30 31,3 C28.0909091,-1 31,4 28.0909091,9.05941988e-14 C17,43 20.2604698,38.6153445 15,68 Z" id="Path-9" fill="url(#linearGradient-1)"></path>
                <path d="M28.6049167,0.693656738 C28.4577943,0.499892934 28.2876583,0.270530194 28.0909091,-4.4408921e-14 C17,43 20.2604698,38.6153445 15,68 C14.442288,71.1153445 16,77 17,73 C17.020609,72.8488676 17.0412148,72.6980393 17.0618184,72.5475114 C16.3311392,71.8198481 15.7413463,68.4480442 16.1183858,66.3419249 C21.2809688,37.5040588 18.236777,41.1904385 28.6049167,0.693656738 Z" id="Combined-Shape" fill="url(#linearGradient-4)"></path>
                <path d="M6.81285296,86.5664893 C6.54188634,86.6255495 6.23633159,86.6572523 5.89181993,86.6572523 C4.78999107,86.6572523 3.97796481,86.4278456 3.38428138,86.0435699 C2.17221837,85.2590332 1.199971,84.4336159 1.87023513,81.3877068 C2.54049927,78.3417977 3.2107634,77.3417977 5.2215558,73.8236159 C5.28259932,73.786515 6.56208407,68.064525 6.89721613,67.3608887 C7.06248826,67.0138867 7.39076999,68.1395838 7.72128327,69.3698331 C7.2437095,71.2640159 6.68141962,73.7253103 6.64145215,73.7496017 C4.63065975,77.2677835 3.96039562,78.2677835 3.29013149,81.3136926 C2.61986735,84.3596017 3.59211473,85.1850189 4.80417773,85.9695556 C5.30444658,86.2933666 5.95975265,86.5072107 6.81285296,86.5664893 Z" id="Combined-Shape-Copy-39" fill="#ECE9BD" transform="translate(4.686283, 76.977188) rotate(5.000000) translate(-4.686283, -76.977188) "></path>
            </g>
            <g id="Scallion-Copy-2" transform="translate(56.091389, 56.441761) rotate(19.000000) translate(-56.091389, -56.441761) translate(37.591389, 12.441761)">
                <path d="M8,83 C8,81 8,73.3518182 7.66666667,73.3518182 C7.33333333,73.3518182 6.33333333,68 6,68.7036364 C5.66666667,69.4072727 4.39404922,75.1292627 4.33333333,75.1663636 C2.33333333,78.6845455 1.66666667,79.6845455 1,82.7304545 C0.333333333,85.7763636 1.30036242,86.6017809 2.50592,87.3863176 C3.09641699,87.7705933 3.90408491,88 5,88 C8.33333333,88 8,85 8,83 Z" id="Oval-2" fill="#FFFEEF"></path>
                <path d="M6,68 C5.44228797,71.1153445 7,77 8,73 C11.5454545,47 15,30 22,3 C19.0909091,-1 22,4 19.0909091,-7.14095449e-13 C8,43 11.2604698,38.6153445 6,68 Z" id="Path-9" fill="url(#linearGradient-1)"></path>
                <path d="M19.7978062,0.944264869 C19.6121128,0.706759273 19.3802988,0.397910792 19.0909091,-7.70938868e-13 C8,43 11.2604698,38.6153445 6,68 C5.45195126,71.061366 6.94665518,76.7969085 7.94753162,73.1990833 C7.29176795,72.1907911 6.80839052,69.1442839 7.15845593,67.1888404 C12.3462437,38.2101824 9.24692681,42.0741245 19.7978062,0.944264869 Z" id="Combined-Shape" fill="url(#linearGradient-5)"></path>
                <path d="M17.451465,41.4438708 C16.893753,44.5592153 19.2054171,49.7352281 20.2054171,45.7352281 C23.7508716,19.7352281 21.0201278,32.5457583 28.0201278,5.5457583 C25.1110369,1.5457583 28.0201278,6.5457583 25.1110369,2.5457583 C14.0201278,45.5457583 22.7119348,12.0592153 17.451465,41.4438708 Z" id="Path-9-Copy" fill="url(#linearGradient-2)" transform="translate(22.692989, 24.868802) rotate(25.000000) translate(-22.692989, -24.868802) "></path>
                <path d="M34.4143393,6.1389439 C34.3842092,5.99187279 34.352344,5.8322673 34.3186105,5.65916494 C6.09424797,39.9431791 28.123725,13.2673808 10.9376282,37.6757522 C9.14398927,40.2231489 9.02647297,45.7554514 11.5003926,42.8723509 C10.2945035,42.9000978 10.6522224,38.915222 12.0960842,36.8645927 C29.0614709,12.7696822 7.81205712,38.4552843 34.4143393,6.1389439 Z" id="Combined-Shape" fill="url(#linearGradient-6)"></path>
            </g>
        </g>
    </g>
</svg>