<?xml version="1.0" encoding="UTF-8" standalone="no"?>
<svg
   xmlns:dc="http://purl.org/dc/elements/1.1/"
   xmlns:cc="http://creativecommons.org/ns#"
   xmlns:rdf="http://www.w3.org/1999/02/22-rdf-syntax-ns#"
   xmlns:svg="http://www.w3.org/2000/svg"
   xmlns="http://www.w3.org/2000/svg"
   xmlns:sodipodi="http://sodipodi.sourceforge.net/DTD/sodipodi-0.dtd"
   xmlns:inkscape="http://www.inkscape.org/namespaces/inkscape"
   width="29px"
   height="90px"
   viewBox="0 0 29 90"
   version="1.1"
   id="svg17161"
   inkscape:version="0.91 r13725"
   sodipodi:docname="sesame_oil.svg">
  <metadata
     id="metadata17182">
    <rdf:RDF>
      <cc:Work
         rdf:about="">
        <dc:format>image/svg+xml</dc:format>
        <dc:type
           rdf:resource="http://purl.org/dc/dcmitype/StillImage" />
      </cc:Work>
    </rdf:RDF>
  </metadata>
  <sodipodi:namedview
     pagecolor="#ffffff"
     bordercolor="#666666"
     borderopacity="1"
     objecttolerance="10"
     gridtolerance="10"
     guidetolerance="10"
     inkscape:pageopacity="0"
     inkscape:pageshadow="2"
     inkscape:window-width="732"
     inkscape:window-height="480"
     id="namedview17180"
     showgrid="false"
     inkscape:zoom="2.6222222"
     inkscape:cx="14.5"
     inkscape:cy="45"
     inkscape:window-x="0"
     inkscape:window-y="0"
     inkscape:window-maximized="0"
     inkscape:current-layer="svg17161" />
  <!-- Generator: Sketch 42 (36781) - http://www.bohemiancoding.com/sketch -->
  <title
     id="title17163">sesame_oil</title>
  <desc
     id="desc17165">Created with Sketch.</desc>
  <defs
     id="defs17167" />
  <g
     id="Page-1"
     style="fill:none;fill-rule:evenodd;stroke:none;stroke-width:1">
    <g
       id="sesame_oil"
       transform="translate(0.9831,0)">
      <rect
         id="Rectangle-8"
         x="5.6043954"
         y="0"
         width="16.483517"
         height="13.846154"
         style="fill:#fef153" />
      <path
         d="m 13.846154,89.90992 0,-76.063766 -7.5353864,0 c 0,0 0.4221484,4.438131 0.3425176,4.670825 -0.079631,0.232694 -0.3046878,0.452075 -0.3046878,0.452075 -2.2862349,3.084053 -3.6649366,8.61197 -3.0689978,12.385065 l 0.5820551,3.685193 c 0.5954681,3.770115 0.5836462,9.888226 -0.027456,13.658527 0,0 -4.71629939,27.203565 -3.68874672,37.212476 4.79519002,4.670771 13.70049502,3.99962 13.70070202,3.999605 0.0011,7.9e-5 8.905741,0.670943 13.700702,-3.999605 1.027553,-10.008911 -3.688747,-37.212476 -3.688747,-37.212476 -0.611102,-3.770301 -0.622924,-9.888412 -0.02746,-13.658527 l 0.582055,-3.685193 c 0.595939,-3.773095 -0.782763,-9.301012 -3.068998,-12.385065 0,0 -0.225057,-0.219381 -0.304687,-0.452075 -0.07963,-0.232694 0.342517,-4.670825 0.342517,-4.670825 l -7.535386,0 0,76.063766 z"
         id="Combined-Shape"
         inkscape:connector-curvature="0"
         style="fill:#eff6fd" />
      <path
         d="m 14.010989,89.252537 0,-74.417372 -6.7282044,0 c 0,0 0.3769284,4.34165 0.3058275,4.569285 -0.071101,0.227636 -0.4840838,0.763603 -0.4840838,0.763603 -1.9202028,2.82826 -3.0962128,7.854411 -2.6083875,11.238342 l 0.680048,4.717335 c 0.487475,3.3815 0.4777778,8.859536 -0.022442,12.230108 0,0 -4.29333932,27.18755 -3.3758569,36.978876 4.2814629,4.569156 12.2326471,3.91986 12.2330991,3.919823 2.62e-4,2.2e-5 7.951585,0.649388 12.233099,-3.919823 C 27.16157,75.541388 22.868231,48.353838 22.868231,48.353838 22.368011,44.983266 22.358314,39.50523 22.845789,36.12373 l 0.680048,-4.717335 c 0.487825,-3.383931 -0.688185,-8.410082 -2.608387,-11.238342 0,0 -0.412983,-0.535967 -0.484084,-0.763603 -0.0711,-0.227635 0.305827,-4.569285 0.305827,-4.569285 l -6.728204,0 0,74.417372 z"
         id="Combined-Shape-Copy-3"
         inkscape:connector-curvature="0"
         style="fill:#a56328" />
      <path
         d="m 13.846154,41.868132 0,28.680258 C 8.5314132,70.479682 6.5934066,67.081341 6.5934066,63.296703 l -4.9965093,0.312282 c 1.052535,-8.077428 2.237301,-14.911146 2.237301,-14.911146 0.3055667,-1.885246 0.4612981,-4.357503 0.466193,-6.829707 l 9.5457627,0 z m 9.545762,0 c 0.0049,2.472204 0.160627,4.944461 0.466193,6.829707 0,0 1.182736,6.822004 2.234594,14.890372 l -4.664132,-0.291508 c 0,3.82351 -1.978022,7.252748 -7.417582,7.252748 -0.0553,0 -0.110247,-3.55e-4 -0.164835,-0.0011 l 0,-28.680258 9.545762,0 z"
         id="path17174"
         inkscape:connector-curvature="0"
         style="fill:#312e15" />
      <path
         d="m 13.891928,43.186813 0,25.999036 C 8.5978149,69.123449 7.6289526,66.042859 7.6289526,62.6121 L 1.6349949,62.898116 C 2.6488706,55.871428 3.772886,50.00929 3.772886,50.00929 4.1084862,48.125091 4.2792847,45.655839 4.2840223,43.186813 l 9.6079057,0 z m 9.607905,0 c 0.0047,2.469026 0.175536,4.938278 0.511137,6.822477 0,0 1.122326,5.853332 2.135605,12.872988 L 20.484532,62.6121 c 0,3.466064 -0.988905,6.574713 -6.427789,6.574713 -0.0554,0 -0.110336,-3.22e-4 -0.164815,-9.64e-4 l 0,-25.999036 9.607905,0 z"
         id="Combined-Shape-Copy-4"
         inkscape:connector-curvature="0"
         style="fill:#c4bb86" />
      <path
         d="m 13.904193,68.135686 0,-23.948873 -8.8505035,0 c -0.00419,2.275208 -0.1615218,4.549204 -0.4705984,6.284488 0,0 -1.0353808,5.399878 -1.969307,11.872474 l 5.5213021,-0.263462 c 0,3.160225 0.8924624,5.997894 5.7691068,6.055373 z M 25.192495,62.329185 C 24.259119,55.863067 23.225294,50.471301 23.225294,50.471301 22.916217,48.736017 22.758888,46.462021 22.754695,44.186813 l -8.850502,0 0,23.948873 c 0.05018,5.91e-4 0.100788,8.88e-4 0.151818,8.88e-4 5.009999,0 5.920924,-2.863516 5.920924,-6.056261 l 5.21556,0.248872 z"
         id="Combined-Shape-Copy-7"
         inkscape:connector-curvature="0"
         style="fill:#312e15" />
      <rect
         id="Rectangle-10"
         x="5.2857141"
         y="54.395603"
         width="17.459999"
         height="0.65934068"
         style="fill:#ffffff" />
      <path
         d="m 6.4903924,53.633776 c 0.555374,0 0.8935627,-0.263725 0.8935627,-0.719815 0,-0.769456 -1.1510825,-0.601913 -1.1510825,-0.79738 0,-0.05274 0.034129,-0.09308 0.158235,-0.09308 0.1954669,0 0.4281655,0.06826 0.6081191,0.204775 l 0.335086,-0.443679 C 7.0985114,51.592233 6.7944519,51.496051 6.4562632,51.496051 c -0.5677846,0 -0.8594335,0.335086 -0.8594335,0.685685 0,0.815997 1.1541851,0.614325 1.1541851,0.812894 0,0.08067 -0.1116953,0.111696 -0.2295959,0.111696 -0.2792384,0 -0.511937,-0.117901 -0.6670694,-0.266828 l -0.3257781,0.465397 c 0.2202881,0.19857 0.5212449,0.328881 0.961821,0.328881 z m 1.8181518,0 c -0.4684998,0 -0.8346123,-0.294752 -0.8346123,-0.788073 0,-0.434371 0.3319833,-0.78497 0.8159964,-0.78497 0.4405761,0 0.7787648,0.31647 0.7787648,0.843921 l 0,0.114798 -1.0176687,0 c 0.031027,0.09618 0.1396192,0.189261 0.3226755,0.189261 0.083771,0 0.2699303,-0.04033 0.3443939,-0.10549 l 0.229596,0.344394 c -0.1489271,0.127209 -0.4157549,0.186159 -0.6391456,0.186159 z m 0.229596,-0.968026 c -0.015513,-0.06516 -0.068258,-0.179954 -0.2482119,-0.179954 -0.1706456,0 -0.2264933,0.111695 -0.2451092,0.179954 l 0.4933211,0 z m 1.3310361,0.968026 c 0.4436787,0 0.7105067,-0.217186 0.7105067,-0.51504 0,-0.623632 -0.8501259,-0.4685 -0.8501259,-0.592606 0,-0.04033 0.05895,-0.06516 0.1396192,-0.06516 0.1737487,0 0.3474967,0.07757 0.4405757,0.155132 l 0.204775,-0.36301 c -0.173748,-0.114798 -0.397139,-0.192364 -0.6484534,-0.192364 -0.4343707,0 -0.670172,0.235801 -0.670172,0.505732 0,0.626735 0.8501254,0.443679 0.8501254,0.5864 0,0.03723 -0.03413,0.06516 -0.1489269,0.06516 -0.167543,0 -0.4219601,-0.09618 -0.5398608,-0.189262 L 9.1338487,53.40418 c 0.1613377,0.133414 0.4591919,0.229596 0.7353276,0.229596 z m 2.3362937,-0.03723 -0.558476,0 0,-0.142722 c -0.08377,0.10549 -0.266828,0.179954 -0.452987,0.179954 -0.223391,0 -0.515039,-0.15203 -0.515039,-0.493321 0,-0.372318 0.291648,-0.477808 0.515039,-0.477808 0.195467,0 0.372318,0.06205 0.452987,0.16444 l 0,-0.155132 c 0,-0.10549 -0.09618,-0.186159 -0.279239,-0.186159 -0.139619,0 -0.297854,0.05585 -0.415754,0.145824 l -0.189262,-0.344393 c 0.201672,-0.161338 0.48091,-0.226494 0.707404,-0.226494 0.372318,0 0.735327,0.130311 0.735327,0.629838 l 0,0.905973 z m -0.778764,-0.325778 c 0.08687,0 0.183056,-0.02792 0.220288,-0.08067 l 0,-0.08377 c -0.03723,-0.05275 -0.133414,-0.08067 -0.220288,-0.08067 -0.09308,0 -0.195467,0.03103 -0.195467,0.124106 0,0.09308 0.102387,0.121003 0.195467,0.121003 z m 3.56184,0.325778 0,-1.085927 c 0,-0.310265 -0.186159,-0.449884 -0.462295,-0.449884 -0.242006,0 -0.437473,0.133414 -0.524347,0.263725 -0.06826,-0.186159 -0.220288,-0.263725 -0.431268,-0.263725 -0.242007,0 -0.431268,0.124106 -0.496424,0.207878 l 0,-0.170646 -0.558477,0 0,1.498579 0.558477,0 0,-0.924589 c 0.03723,-0.04344 0.10549,-0.117901 0.226493,-0.117901 0.127209,0 0.170646,0.07757 0.170646,0.167543 l 0,0.874947 0.558477,0 0,-0.924589 c 0.03723,-0.04344 0.10549,-0.117901 0.229596,-0.117901 0.124105,0 0.170645,0.07757 0.170645,0.167543 l 0,0.874947 0.558477,0 z m 1.04249,0.03723 c -0.4685,0 -0.834613,-0.294752 -0.834613,-0.788073 0,-0.434371 0.331984,-0.78497 0.815997,-0.78497 0.440576,0 0.778764,0.31647 0.778764,0.843921 l 0,0.114798 -1.017668,0 c 0.03103,0.09618 0.139619,0.189261 0.322675,0.189261 0.08377,0 0.269931,-0.04033 0.344394,-0.10549 l 0.229596,0.344394 c -0.148927,0.127209 -0.415755,0.186159 -0.639145,0.186159 z m 0.229596,-0.968026 c -0.01551,-0.06516 -0.06826,-0.179954 -0.248212,-0.179954 -0.170646,0 -0.226494,0.111695 -0.245109,0.179954 l 0.493321,0 z m 2.547274,0.968026 c -0.639146,0 -1.132467,-0.434371 -1.132467,-1.070414 0,-0.636043 0.493321,-1.070413 1.132467,-1.070413 0.639145,0 1.132466,0.43437 1.132466,1.070413 0,0.636043 -0.493321,1.070414 -1.132466,1.070414 z m 0,-0.552272 c 0.300957,0 0.496424,-0.229596 0.496424,-0.518142 0,-0.288546 -0.195467,-0.518142 -0.496424,-0.518142 -0.300957,0 -0.496424,0.229596 -0.496424,0.518142 0,0.288546 0.195467,0.518142 0.496424,0.518142 z m 1.622685,-1.092132 c 0.173748,0 0.313367,-0.139619 0.313367,-0.313367 0,-0.173748 -0.139619,-0.313368 -0.313367,-0.313368 -0.173749,0 -0.313368,0.13962 -0.313368,0.313368 0,0.173748 0.139619,0.313367 0.313368,0.313367 z m 0.279238,1.607172 0,-1.498579 -0.558476,0 0,1.498579 0.558476,0 z m 0.868742,0 0,-2.069466 -0.558477,0 0,2.069466 0.558477,0 z"
         id="Sesame-Oil"
         inkscape:connector-curvature="0"
         style="fill:#2e9c30" />
    </g>
  </g>
</svg>
