<?xml version="1.0" encoding="UTF-8" standalone="no"?>
<svg
   xmlns:dc="http://purl.org/dc/elements/1.1/"
   xmlns:cc="http://creativecommons.org/ns#"
   xmlns:rdf="http://www.w3.org/1999/02/22-rdf-syntax-ns#"
   xmlns:svg="http://www.w3.org/2000/svg"
   xmlns="http://www.w3.org/2000/svg"
   xmlns:xlink="http://www.w3.org/1999/xlink"
   xmlns:sodipodi="http://sodipodi.sourceforge.net/DTD/sodipodi-0.dtd"
   xmlns:inkscape="http://www.inkscape.org/namespaces/inkscape"
   width="30px"
   height="66px"
   viewBox="0 0 30 66"
   version="1.1"
   id="svg17724"
   inkscape:version="0.91 r13725"
   sodipodi:docname="soy_sauce.svg">
  <metadata
     id="metadata17753">
    <rdf:RDF>
      <cc:Work
         rdf:about="">
        <dc:format>image/svg+xml</dc:format>
        <dc:type
           rdf:resource="http://purl.org/dc/dcmitype/StillImage" />
      </cc:Work>
    </rdf:RDF>
  </metadata>
  <sodipodi:namedview
     pagecolor="#ffffff"
     bordercolor="#666666"
     borderopacity="1"
     objecttolerance="10"
     gridtolerance="10"
     guidetolerance="10"
     inkscape:pageopacity="0"
     inkscape:pageshadow="2"
     inkscape:window-width="732"
     inkscape:window-height="480"
     id="namedview17751"
     showgrid="false"
     inkscape:zoom="3.5757576"
     inkscape:cx="15"
     inkscape:cy="55.372881"
     inkscape:window-x="0"
     inkscape:window-y="0"
     inkscape:window-maximized="0"
     inkscape:current-layer="svg17724" />
  <!-- Generator: Sketch 42 (36781) - http://www.bohemiancoding.com/sketch -->
  <title
     id="title17726">soy_sauce</title>
  <desc
     id="desc17728">Created with Sketch.</desc>
  <defs
     id="defs17730">
    <polygon
       id="path-1"
       points="15.375 33.75 18.75 35.625 18.75 39.375 15.375 41.25 12 39.375 12 35.625" />
    <mask
       id="mask-2"
       maskContentUnits="userSpaceOnUse"
       maskUnits="objectBoundingBox"
       x="-2"
       y="-2"
       width="10.75"
       height="11.5">
      <rect
         x="10"
         y="31.75"
         width="10.75"
         height="11.5"
         fill="white"
         id="rect17734" />
      <use
         xlink:href="#path-1"
         fill="black"
         id="use17736" />
    </mask>
    <polygon
       id="path-3"
       points="15.525 35.25 17.55 36.375 17.55 38.625 15.525 39.75 13.5 38.625 13.5 36.375" />
    <mask
       id="mask-4"
       maskContentUnits="userSpaceOnUse"
       maskUnits="objectBoundingBox"
       x="0"
       y="0"
       width="4.05"
       height="4.5"
       fill="white">
      <use
         xlink:href="#path-3"
         id="use17740" />
    </mask>
  </defs>
  <g
     id="Page-1"
     transform="translate(0,2)"
     style="fill:none;fill-rule:evenodd;stroke:none;stroke-width:1">
    <g
       id="soy_sauce">
      <path
         d="m 15.552632,0 0,7.5 c 0,0 -6.061121,0 -8.20034,0 C 7.352292,3.75 4.5,0 4.5,0 l 11.052632,0 z m 0,0 L 25.5,0 c 0,0 -2.947368,3.75 -2.947368,7.5 -2.210527,0 -7,0 -7,0 l 0,-7.5 z"
         id="Combined-Shape"
         inkscape:connector-curvature="0"
         style="fill:#e5423b" />
      <path
         d="m 14.662596,7.5 5.865039,0 c 0,21 12.463207,36.75 8.797558,55.5 -1.46626,3 -14.662597,3 -14.662597,3 l 0,-58.5 z m 0,0 0,58.5 c 0,0 -12.6157307,0 -14.01747862,-3 C -2.8592524,44.25 9.0556048,28.5 9.0556048,7.5 l 5.6069912,0 z"
         id="path17745"
         inkscape:connector-curvature="0"
         style="fill:#f0f7fe" />
      <path
         d="m 22.251101,24.75 c 3.212316,13.089684 8.914469,24.616098 6.357832,37.676696 -1.392947,2.846351 -13.929466,2.846351 -13.929466,2.846351 l 0,-40.523047 7.571634,0 z m -7.571634,0 0,40.523047 c 0,0 -11.984945,0 -13.3166055,-2.846351 C -1.0812902,49.366098 4.3699824,37.839684 7.4409647,24.75 l 7.2385023,0 z"
         id="Combined-Shape-Copy-2"
         inkscape:connector-curvature="0"
         style="fill:#0f081a" />
      <use
         id="Polygon"
         mask="url(#mask-2)"
         xlink:href="#path-1"
         style="stroke:#f39f32;stroke-width:4;stroke-linecap:square"
         x="0"
         y="0"
         width="100%"
         height="100%" />
      <use
         id="Polygon-Copy"
         mask="url(#mask-4)"
         xlink:href="#path-3"
         style="stroke:#f39f32;stroke-width:2;stroke-linecap:square"
         x="0"
         y="0"
         width="100%"
         height="100%" />
      <path
         d="m 7.1625,48.045 c 0.67125,0 1.08,-0.31875 1.08,-0.87 0,-0.93 -1.39125,-0.7275 -1.39125,-0.96375 0,-0.06375 0.04125,-0.1125 0.19125,-0.1125 0.23625,0 0.5175,0.0825 0.735,0.2475 L 8.1825,45.81 C 7.8975,45.5775 7.53,45.46125 7.12125,45.46125 c -0.68625,0 -1.03875,0.405 -1.03875,0.82875 0,0.98625 1.395,0.7425 1.395,0.9825 0,0.0975 -0.135,0.135 -0.2775,0.135 -0.3375,0 -0.61875,-0.1425 -0.80625,-0.3225 L 6,47.6475 c 0.26625,0.24 0.63,0.3975 1.1625,0.3975 z m 2.205,0 c -0.64125,0 -1.01625,-0.44625 -1.01625,-0.9525 0,-0.50625 0.375,-0.94875 1.01625,-0.94875 0.645,0 1.02,0.4425 1.02,0.94875 0,0.50625 -0.375,0.9525 -1.02,0.9525 z m 0,-0.59625 c 0.21,0 0.32625,-0.15375 0.32625,-0.35625 0,-0.19875 -0.11625,-0.3525 -0.32625,-0.3525 -0.20625,0 -0.3225,0.15375 -0.3225,0.3525 0,0.2025 0.11625,0.35625 0.3225,0.35625 z M 10.62,48.705 c 0.06375,0.01875 0.21375,0.03 0.2625,0.03 0.3825,-0.01125 0.6825,-0.09 0.84375,-0.51 l 0.7875,-2.03625 -0.7125,0 -0.34875,1.035 -0.345,-1.035 -0.7125,0 0.7125,1.84125 -0.015,0.0375 c -0.0225,0.04875 -0.105,0.07125 -0.23625,0.07125 -0.045,0 -0.10125,-0.01125 -0.1425,-0.03375 l -0.09375,0.6 z m 3.9675,-0.66 c 0.67125,0 1.08,-0.31875 1.08,-0.87 0,-0.93 -1.39125,-0.7275 -1.39125,-0.96375 0,-0.06375 0.04125,-0.1125 0.19125,-0.1125 0.23625,0 0.5175,0.0825 0.735,0.2475 L 15.6075,45.81 c -0.285,-0.2325 -0.6525,-0.34875 -1.06125,-0.34875 -0.68625,0 -1.03875,0.405 -1.03875,0.82875 0,0.98625 1.395,0.7425 1.395,0.9825 0,0.0975 -0.135,0.135 -0.2775,0.135 -0.3375,0 -0.61875,-0.1425 -0.80625,-0.3225 L 13.425,47.6475 c 0.26625,0.24 0.63,0.3975 1.1625,0.3975 z M 17.62125,48 l -0.675,0 0,-0.1725 c -0.10125,0.1275 -0.3225,0.2175 -0.5475,0.2175 -0.27,0 -0.6225,-0.18375 -0.6225,-0.59625 0,-0.45 0.3525,-0.5775 0.6225,-0.5775 0.23625,0 0.45,0.075 0.5475,0.19875 l 0,-0.1875 c 0,-0.1275 -0.11625,-0.225 -0.3375,-0.225 -0.16875,0 -0.36,0.0675 -0.5025,0.17625 L 15.8775,46.4175 c 0.24375,-0.195 0.58125,-0.27375 0.855,-0.27375 0.45,0 0.88875,0.1575 0.88875,0.76125 l 0,1.095 z M 16.68,47.60625 c 0.105,0 0.22125,-0.03375 0.26625,-0.0975 l 0,-0.10125 C 16.90125,47.34375 16.785,47.31 16.68,47.31 c -0.1125,0 -0.23625,0.0375 -0.23625,0.15 0,0.1125 0.12375,0.14625 0.23625,0.14625 z M 19.89375,48 l 0,-1.81125 -0.675,0 0,1.1175 c -0.05625,0.06375 -0.135,0.1425 -0.285,0.1425 -0.165,0 -0.2625,-0.07125 -0.2625,-0.255 l 0,-1.005 -0.675,0 0,1.29375 c 0,0.31125 0.18,0.5625 0.6,0.5625 0.31875,0 0.5175,-0.13125 0.6225,-0.2475 l 0,0.2025 0.675,0 z m 1.2675,0.045 c 0.4125,0 0.6675,-0.19125 0.76875,-0.34125 l -0.435,-0.4125 c -0.05625,0.0825 -0.16125,0.1575 -0.30375,0.1575 C 21,47.44875 20.835,47.325 20.835,47.0925 20.835,46.86 21,46.74 21.19125,46.74 c 0.1425,0 0.2475,0.0675 0.30375,0.15375 L 21.93,46.485 c -0.10125,-0.15375 -0.35625,-0.34125 -0.76875,-0.34125 -0.57375,0 -1.01625,0.375 -1.01625,0.94875 0,0.5775 0.4425,0.9525 1.01625,0.9525 z m 1.875,0 c -0.56625,0 -1.00875,-0.35625 -1.00875,-0.9525 0,-0.525 0.40125,-0.94875 0.98625,-0.94875 0.5325,0 0.94125,0.3825 0.94125,1.02 l 0,0.13875 -1.23,0 c 0.0375,0.11625 0.16875,0.22875 0.39,0.22875 0.10125,0 0.32625,-0.04875 0.41625,-0.1275 l 0.2775,0.41625 c -0.18,0.15375 -0.5025,0.225 -0.7725,0.225 z m 0.2775,-1.17 c -0.01875,-0.07875 -0.0825,-0.2175 -0.3,-0.2175 -0.20625,0 -0.27375,0.135 -0.29625,0.2175 l 0.59625,0 z"
         id="Soy-Sauce"
         inkscape:connector-curvature="0"
         style="fill:#f39f32" />
    </g>
  </g>
</svg>
