<?xml version="1.0" encoding="UTF-8"?>
<svg width="210px" height="205px" viewBox="0 0 210 205" version="1.1" xmlns="http://www.w3.org/2000/svg" xmlns:xlink="http://www.w3.org/1999/xlink">
    <!-- Generator: Sketch 42 (36781) - http://www.bohemiancoding.com/sketch -->
    <title>Tomato</title>
    <desc>Created with Sketch.</desc>
    <defs>
        <path d="M88.0351562,18.8945312 C82.2278646,23.9661458 62.908962,34.4083322 70.6132812,34.109375 L67.3046875,45.2421875 C76.6154354,44.8808947 84.0155656,38.977655 92.5585938,35.2578125 C100.34026,31.8694853 95.1010637,57.8044088 102.367188,50.3320312 C127,25 101.854823,41.025163 136.429688,42.7539062 C138.861825,42.8755131 136.732385,37.801578 136.074219,35.4570312 C135.145519,32.1487814 134.156129,28.5545494 131.753906,26.0976562 C128.822885,23.0999307 118.203104,18.8376829 113.402344,18.7421875 C105.799345,18.5909507 88.0351562,18.8945312 88.0351562,18.8945312 Z" id="path-1"></path>
        <filter x="-50%" y="-50%" width="200%" height="200%" filterUnits="objectBoundingBox" id="filter-2">
            <feOffset dx="1" dy="1" in="SourceAlpha" result="shadowOffsetOuter1"></feOffset>
            <feColorMatrix values="0 0 0 0 0.119733333   0 0 0 0 0.2   0 0 0 0 0.028  0 0 0 1 0" type="matrix" in="shadowOffsetOuter1"></feColorMatrix>
        </filter>
    </defs>
    <g id="Page-1" stroke="none" stroke-width="1" fill="none" fill-rule="evenodd">
        <g id="Tomato" transform="translate(0.008450, 0.000000)">
            <path d="M105,204.135577 C162.989899,204.135577 210,160.086087 210,105.748288 C210,56.629484 180.514668,32.5145178 145.373514,29.1548326 C130.816326,27.7630864 120,37.4671437 106.856146,37.4671437 C93.7122919,37.4671437 78.789522,30.0261344 67,30.0261344 C39.0101013,30.0261344 0,51.4104894 0,105.748288 C0,160.086087 47.0101013,204.135577 105,204.135577 Z" id="Oval-19" fill="#F03500"></path>
            <path d="M23.5509058,167.84492 C42.8042031,189.990967 72.1392553,204.135577 105,204.135577 C162.989899,204.135577 210,160.086087 210,105.748288 C210,76.773176 199.739685,56.4989073 184.110611,44.0533677 C193.968679,56.4324264 200,73.533049 200,95.7482883 C200,150.086087 152.989899,194.135577 95,194.135577 C67.4023705,194.135577 42.2914971,184.159042 23.5509058,167.84492 L23.5509058,167.84492 Z" id="Combined-Shape" fill="#C22A00"></path>
            <path d="M157.732671,118.041803 C147.072518,138.041803 113.417738,164.757414 116.158073,169.041803 C119.356119,174.041803 154.074398,149.93914 155.991143,148.041803 C163.062748,141.041803 171.590871,134.041803 178.641681,113.041803 C180.714746,106.867425 183.555337,52.8906717 176.507621,62.0418035 C172.656886,67.0418035 163.198483,107.787145 157.732671,118.041803 Z" id="Path-2" fill="#F4582D" transform="translate(148.500000, 115.361488) rotate(-8.000000) translate(-148.500000, -115.361488) "></path>
            <path d="M48.1562865,68.0949014 C39.9561684,76.8120031 14.0678762,88.4561378 16.1758261,90.3235106 C18.6358615,92.502786 45.34223,81.9975176 46.8166491,81.1705539 C52.2563455,78.1195683 58.81644,75.0685827 64.2401403,65.915626 C65.8348058,63.2244919 68.0198754,39.6984495 62.5985554,43.6870168 C59.6364518,45.8662922 52.3607572,63.6253562 48.1562865,68.0949014 Z" id="Path-2-Copy" fill="#F4582D" transform="translate(41.054232, 66.926672) scale(-1, -1) rotate(-8.000000) translate(-41.054232, -66.926672) "></path>
            <path d="M108.651571,1.84022124 C106.769341,6.3803959 104.397982,10.7692264 103.004882,15.4607452 C102.133722,18.3945364 99.8358452,22.1897163 101.911974,24.5370444 C103.848054,26.7260286 113.190693,24.5370444 111.032549,24.5370444 C110.067625,24.5370444 102.056629,14.4636391 112.936463,3.5979695 C114.406019,2.13032679 120.638523,1.74016876 118.695913,0.876294772 C115.995665,-0.324498749 112.791899,1.77271939 109.839891,2.22093169 L108.651571,1.84022124 Z" id="Path-4" fill="#1D3006"></path>
            <g id="Path-3">
                <use fill="black" fill-opacity="1" filter="url(#filter-2)" xlink:href="#path-1"></use>
                <use fill="#33560B" fill-rule="evenodd" xlink:href="#path-1"></use>
            </g>
        </g>
    </g>
</svg>