<?xml version="1.0" encoding="UTF-8" standalone="no"?>
<svg
   xmlns:dc="http://purl.org/dc/elements/1.1/"
   xmlns:cc="http://creativecommons.org/ns#"
   xmlns:rdf="http://www.w3.org/1999/02/22-rdf-syntax-ns#"
   xmlns:svg="http://www.w3.org/2000/svg"
   xmlns="http://www.w3.org/2000/svg"
   xmlns:xlink="http://www.w3.org/1999/xlink"
   xmlns:sodipodi="http://sodipodi.sourceforge.net/DTD/sodipodi-0.dtd"
   xmlns:inkscape="http://www.inkscape.org/namespaces/inkscape"
   width="210px"
   height="205px"
   viewBox="0 0 210 205"
   version="1.1"
   id="svg2"
   inkscape:version="0.91 r13725"
   sodipodi:docname="tomato.svg">
  <metadata
     id="metadata30">
    <rdf:RDF>
      <cc:Work
         rdf:about="">
        <dc:format>image/svg+xml</dc:format>
        <dc:type
           rdf:resource="http://purl.org/dc/dcmitype/StillImage" />
      </cc:Work>
    </rdf:RDF>
  </metadata>
  <sodipodi:namedview
     pagecolor="#ffffff"
     bordercolor="#666666"
     borderopacity="1"
     objecttolerance="10"
     gridtolerance="10"
     guidetolerance="10"
     inkscape:pageopacity="0"
     inkscape:pageshadow="2"
     inkscape:window-width="1920"
     inkscape:window-height="1027"
     id="namedview28"
     showgrid="false"
     inkscape:zoom="1.1512195"
     inkscape:cx="105"
     inkscape:cy="102.5"
     inkscape:window-x="-8"
     inkscape:window-y="-8"
     inkscape:window-maximized="1"
     inkscape:current-layer="svg2" />
  <!-- Generator: Sketch 42 (36781) - http://www.bohemiancoding.com/sketch -->
  <title
     id="title4">tomato</title>
  <desc
     id="desc6">Created with Sketch.</desc>
  <defs
     id="defs8">
    <path
       d="M88.0351562,18.8945312 C82.2278646,23.9661458 62.908962,34.4083322 70.6132812,34.109375 L67.3046875,45.2421875 C76.6154354,44.8808947 84.0155656,38.977655 92.5585938,35.2578125 C100.34026,31.8694853 95.1010637,57.8044088 102.367188,50.3320312 C127,25 101.854823,41.025163 136.429688,42.7539062 C138.861825,42.8755131 136.732385,37.801578 136.074219,35.4570312 C135.145519,32.1487814 134.156129,28.5545494 131.753906,26.0976562 C128.822885,23.0999307 118.203104,18.8376829 113.402344,18.7421875 C105.799345,18.5909507 88.0351562,18.8945312 88.0351562,18.8945312 Z"
       id="path-1" />
    <filter
       x="-50%"
       y="-50%"
       width="200%"
       height="200%"
       filterUnits="objectBoundingBox"
       id="filter-2">
      <feOffset
         dx="1"
         dy="1"
         in="SourceAlpha"
         result="shadowOffsetOuter1"
         id="feOffset12" />
      <feColorMatrix
         values="0 0 0 0 0.119733333   0 0 0 0 0.2   0 0 0 0 0.028  0 0 0 1 0"
         type="matrix"
         in="shadowOffsetOuter1"
         id="feColorMatrix14" />
    </filter>
  </defs>
  <g
     id="Page-1"
     transform="matrix(0.74404676,0,0,0.74404676,1.7394509,29.664415)"
     style="fill:none;fill-rule:evenodd;stroke:none;stroke-width:1">
    <g
       id="tomato"
       transform="translate(0.00845,0)">
      <path
         d="m 105,204.13558 c 57.9899,0 105,-44.04949 105,-98.38729 C 210,56.629484 180.51467,32.514518 145.37351,29.154833 130.81633,27.763086 120,37.467144 106.85615,37.467144 c -13.143858,0 -28.066628,-7.44101 -39.85615,-7.44101 -27.989899,0 -67,21.384355 -67,75.722156 0,54.3378 47.010101,98.38729 105,98.38729 z"
         id="Oval-19"
         inkscape:connector-curvature="0"
         style="fill:#f03500" />
      <path
         d="M 23.550906,167.84492 C 42.804203,189.99097 72.139255,204.13558 105,204.13558 c 57.9899,0 105,-44.04949 105,-98.38729 C 210,76.773176 199.73968,56.498907 184.11061,44.053368 193.96868,56.432426 200,73.533049 200,95.748288 c 0,54.337802 -47.0101,98.387292 -105,98.387292 -27.597629,0 -52.708503,-9.97654 -71.449094,-26.29066 l 0,0 z"
         id="Combined-Shape"
         inkscape:connector-curvature="0"
         style="fill:#c22a00" />
      <path
         d="m 157.73267,118.0418 c -10.66015,20 -44.31493,46.71561 -41.5746,51 3.19805,5 37.91633,-19.10266 39.83307,-21 7.07161,-7 15.59973,-14 22.65054,-35 2.07307,-6.17438 4.91366,-60.151128 -2.13406,-50.999997 -3.85073,5 -13.30914,45.745337 -18.77495,55.999997 z"
         id="Path-2"
         transform="matrix(0.99026807,-0.1391731,0.1391731,0.99026807,-14.610024,21.789896)"
         inkscape:connector-curvature="0"
         style="fill:#f4582d" />
      <path
         d="m 48.156286,68.094901 c -8.200118,8.717102 -34.08841,20.361237 -31.98046,22.22861 2.460035,2.179275 29.166404,-8.325993 30.640823,-9.152957 C 52.256346,78.119568 58.81644,75.068583 64.24014,65.915626 65.834806,63.224492 68.019875,39.69845 62.598555,43.687017 59.636452,45.866292 52.360757,63.625356 48.156286,68.094901 Z"
         id="Path-2-Copy"
         transform="matrix(-0.99026807,0.1391731,-0.1391731,-0.99026807,91.02332,127.48837)"
         inkscape:connector-curvature="0"
         style="fill:#f4582d" />
      <path
         d="m 108.65157,1.8402212 c -1.88223,4.5401747 -4.25359,8.9290048 -5.64669,13.6205238 -0.87116,2.933791 -3.169035,6.728971 -1.09291,9.076299 1.93608,2.188985 11.27872,0 9.12058,0 -0.96492,0 -8.97592,-10.073405 1.90391,-20.9390745 1.46956,-1.4676427 7.70206,-1.8578007 5.75945,-2.72167473 -2.70024,-1.20079352 -5.90401,0.89642463 -8.85602,1.34463693 l -1.18832,-0.3807105 z"
         id="Path-4"
         inkscape:connector-curvature="0"
         style="fill:#1d3006" />
      <g
         id="Path-3">
        <use
           xlink:href="#path-1"
           id="use24"
           style="fill:#000000;fill-opacity:1;filter:url(#filter-2)"
           x="0"
           y="0"
           width="100%"
           height="100%" />
        <use
           xlink:href="#path-1"
           id="use26"
           style="fill:#33560b;fill-rule:evenodd"
           x="0"
           y="0"
           width="100%"
           height="100%" />
      </g>
    </g>
  </g>
</svg>
