<?xml version="1.0" encoding="UTF-8"?>
<svg width="60px" height="130px" viewBox="0 0 60 130" version="1.1" xmlns="http://www.w3.org/2000/svg" xmlns:xlink="http://www.w3.org/1999/xlink">
    <!-- Generator: Sketch 42 (36781) - http://www.bohemiancoding.com/sketch -->
    <title>vegetable_oil</title>
    <desc>Created with Sketch.</desc>
    <defs></defs>
    <g id="Page-1" stroke="none" stroke-width="1" fill="none" fill-rule="evenodd">
        <g id="vegetable_oil">
            <path d="M20.4324324,5.95419847 L39.5675676,5.95419847 C44.3098293,10.1047578 49.5617095,13.4991654 49.5617095,13.4991654 C50.1321562,13.8785328 50.5945946,14.6934182 50.5945946,15.3195436 L50.5945946,17.0266056 C50.5945946,17.6526052 50.2215522,18.5519421 49.76866,19.0372027 C49.76866,19.0372027 46.9689594,21.9078707 46.7027027,22.9856586 C45.791757,26.6731017 49.1353175,45.1610692 49.1353175,45.1610692 C49.4038959,46.7097112 50.5426335,48.9475621 51.6782563,50.1589127 L58.766143,57.7194472 C59.4475834,58.4463288 60,59.7964009 60,60.7371496 L60,123.470821 C60,127.076787 56.6605033,130 52.5393421,130 L7.46065791,130 C3.33949665,130 0,127.076787 0,123.470821 L0,60.7371496 C0,59.7964009 0.552416608,58.4463288 1.23385703,57.7194472 L8.32174369,50.1589127 C9.45736653,48.9475621 10.5961041,46.7097112 10.8646825,45.1610692 C10.8646825,45.1610692 14.208243,26.6731017 13.2972973,22.9856586 C13.0310406,21.9078707 10.23134,19.0372027 10.23134,19.0372027 C9.7784478,18.5519421 9.40540541,17.6526052 9.40540541,17.0266056 L9.40540541,15.3195436 C9.40540541,14.6934182 9.86784382,13.8785328 10.4382905,13.4991654 C10.4382905,13.4991654 15.6901707,10.1047578 20.4324324,5.95419847 Z" id="Combined-Shape" fill="#EFF6FD" opacity="0.636945199"></path>
            <path d="M46.7962099,14.8854962 C47.2957362,15.2553143 47.7006822,16.0496877 47.7006822,16.6600525 L47.7006822,18.3241449 C47.7006822,18.9343872 44.5258016,22.0901743 44.2926472,23.1408325 C43.4949542,26.7354566 46.4228288,45.7504184 46.4228288,45.7504184 C46.6580163,47.2600785 47.6551811,49.4415991 48.6496184,50.622458 C48.6496184,50.622458 57.0688424,60.0173551 57.0688424,60.9344235 L57.0688424,122.088986 C57.0688424,125.604184 53.012451,128.453815 49.4036503,128.453815 L9.92934307,128.453815 C6.3205424,128.453815 2.26415094,125.604184 2.26415094,122.088986 L2.26415094,60.9344235 C2.26415094,60.0173551 10.6833749,50.622458 10.6833749,50.622458 C11.6778122,49.4415991 12.6749771,47.2600785 12.9101646,45.7504184 C12.9101646,45.7504184 15.8380392,26.7354566 15.0403462,23.1408325 C14.8071917,22.0901743 11.6323111,18.9343872 11.6323111,18.3241449 L11.6323111,16.6600525 C11.6323111,16.0496877 12.0372572,15.2553143 12.5367835,14.8854962 L46.7962099,14.8854962 Z" id="Combined-Shape-Copy" fill="#F3EA50"></path>
            <rect id="Rectangle-16" fill="#FFFFFF" x="16.9811321" y="0" width="27.1698113" height="6.94656489"></rect>
            <rect id="Rectangle-17" fill="#181F26" opacity="0.150000006" x="36.2264151" y="24.8091603" width="6.79245283" height="30.7633588" rx="3.39622642"></rect>
            <rect id="Rectangle-17-Copy" fill="#181F26" opacity="0.150000006" x="16.9811321" y="24.8091603" width="6.79245283" height="30.7633588" rx="3.39622642"></rect>
            <rect id="Rectangle-17-Copy-2" fill="#181F26" opacity="0.150000006" x="27.1698113" y="24.8091603" width="6.79245283" height="30.7633588" rx="3.39622642"></rect>
            <rect id="Rectangle-18" fill="#F6FBFF" x="0" y="62.519084" width="60" height="59.5419847"></rect>
            <path d="M60,86.9950203 L60,123.053435 L0,123.053435 L0,86.9950203 C7.81428265,92.7367479 18.375712,96.259542 30,96.259542 C41.624288,96.259542 52.1857174,92.7367479 60,86.9950203 Z" id="Combined-Shape-Copy-43" fill="#B5D8FC"></path>
            <path d="M60,105.524064 L60,122.061069 L0,122.061069 L0,105.524064 C7.81428265,99.7823361 18.375712,96.259542 30,96.259542 C41.624288,96.259542 52.1857174,99.7823361 60,105.524064 Z" id="Combined-Shape" fill="#71B5FA"></path>
            <path d="M10.5892532,74.6964825 L12.8840606,67.4518078 C13.1409016,67.411892 13.4005305,67.3819556 13.662955,67.3619977 C13.9253796,67.3420399 14.2017587,67.3320611 14.4921008,67.3320611 C14.6819398,67.3320611 14.9164433,67.3445346 15.1956183,67.3694819 C15.4747934,67.3944293 15.7204637,67.4218709 15.9326368,67.4518078 L12.0800405,78.1541681 C11.7896984,78.1940839 11.5189027,78.2240203 11.2676451,78.2439782 C11.0163876,78.263936 10.773509,78.2739148 10.5390019,78.2739148 C10.3156619,78.2739148 10.0867418,78.263936 9.85223476,78.2439782 C9.61772772,78.2240203 9.33855687,78.1940839 9.01471382,78.1541681 L5.17886792,67.4518078 C5.36870695,67.4218709 5.61996072,67.3944293 5.93263677,67.3694819 C6.24531282,67.3445346 6.54681734,67.3320611 6.83715938,67.3320611 C7.07166642,67.3320611 7.3285036,67.3445346 7.60767864,67.3694819 C7.88685369,67.3944293 8.13252404,67.4218709 8.34469707,67.4518078 L10.5892532,74.6964825 Z M18.2944458,75.1155959 C18.4172828,75.5247325 18.6322444,75.8141174 18.9393369,75.9837594 C19.2464295,76.1534014 19.6512272,76.2382211 20.1537423,76.2382211 C20.4775853,76.2382211 20.8405075,76.2032953 21.2425195,76.1334428 C21.6445316,76.0635902 22.0409542,75.9588129 22.4317992,75.8191077 C22.5881373,76.0785602 22.724931,76.3879027 22.8421845,76.7471445 C22.959438,77.1063864 23.0236473,77.4805911 23.0348143,77.8697698 C22.0409512,78.1990748 21.0247693,78.3637249 19.9862381,78.3637249 C19.182214,78.3637249 18.492662,78.2639369 17.9175614,78.0643581 C17.3424608,77.8647793 16.8734538,77.5878679 16.5105262,77.2336155 C16.1475987,76.8793631 15.8795946,76.4577592 15.7065061,75.9687911 C15.5334176,75.479823 15.4468746,74.9459576 15.4468746,74.3671791 C15.4468746,73.7983795 15.5362093,73.2645141 15.7148813,72.7655671 C15.8935534,72.2666201 16.1615574,71.8325427 16.5189014,71.4633219 C16.8762455,71.0941011 17.3229188,70.8022214 17.8589349,70.5876742 C18.394951,70.373127 19.0202937,70.265855 19.7349818,70.265855 C20.3268329,70.265855 20.8544658,70.3556641 21.3178964,70.535285 C21.781327,70.714906 22.1749579,70.961881 22.4988009,71.2762177 C22.822644,71.5905543 23.071106,71.9697484 23.2441946,72.4138112 C23.4172831,72.8578741 23.503826,73.3393507 23.503826,73.8582557 C23.503826,74.1276871 23.4898675,74.3696727 23.46195,74.58422 C23.4340325,74.7987672 23.4089071,74.9758907 23.3865731,75.1155959 L18.2944458,75.1155959 Z M19.6344793,72.1668337 C19.2771353,72.1668337 18.9700473,72.2666216 18.7132063,72.4662004 C18.4563652,72.6657792 18.305613,72.9751217 18.260945,73.3942372 L20.941012,73.3942372 C20.918678,73.0449743 20.7986345,72.7530947 20.580878,72.5185896 C20.3631214,72.2840845 20.0476584,72.1668337 19.6344793,72.1668337 Z M28.9142113,78.3637249 C28.1101872,78.3637249 27.4262186,78.2564529 26.862285,78.0419056 C26.2983514,77.8273584 25.8377195,77.5354788 25.4803755,77.166258 C25.1230314,76.7970372 24.8634025,76.3629597 24.701481,75.8640127 C24.5395595,75.3650657 24.4585999,74.8312004 24.4585999,74.2624007 C24.4585999,73.713559 24.5563097,73.1946619 24.7517322,72.7056938 C24.9471548,72.2167257 25.2374925,71.7926271 25.622754,71.4333852 C26.0080156,71.0741433 26.4853977,70.7897478 27.0549148,70.58019 C27.6244319,70.3706323 28.2832751,70.265855 29.0314642,70.265855 C29.4223093,70.265855 29.8522324,70.3057701 30.3212465,70.3856017 C30.7902606,70.4654332 31.3039349,70.6051363 31.862285,70.8047151 C31.851118,70.9743571 31.8287843,71.1340177 31.7952833,71.2837018 C31.7617823,71.4333859 31.7199067,71.5855625 31.6696552,71.7402361 C31.6194037,71.8949097 31.5579861,72.0595597 31.4854006,72.2341912 C31.4128151,72.4088226 31.3262721,72.6059038 31.2257691,72.8254405 C30.846091,72.6857353 30.4943358,72.5834527 30.1704927,72.5185896 C29.8466497,72.4537265 29.5674788,72.4212954 29.3329718,72.4212954 C28.9644607,72.4212954 28.6517894,72.4711893 28.3949483,72.5709787 C28.1381073,72.6707681 27.9315209,72.8054818 27.7751828,72.9751238 C27.6188448,73.1447658 27.5043848,73.3418469 27.4317992,73.5663731 C27.3592137,73.7908993 27.3229215,74.0229062 27.3229215,74.2624007 C27.3229215,74.9309898 27.4848406,75.4224452 27.8086837,75.7367819 C28.1325267,76.0511185 28.6071172,76.2082844 29.2324693,76.2082844 L29.5339768,76.2082844 L29.5339768,74.007939 C29.8131518,73.9580443 30.0616139,73.9231185 30.2793704,73.9031607 C30.497127,73.8832028 30.7065051,73.873224 30.9075111,73.873224 C31.2983562,73.873224 31.7617798,73.9181286 32.2977959,74.007939 L32.2977959,77.8098964 C31.9739528,77.9196648 31.5216961,78.0394103 30.941012,78.1691365 C30.3603279,78.2988627 29.6847344,78.3637249 28.9142113,78.3637249 Z M37.8924358,78.3637249 C37.0884116,78.3637249 36.4044431,78.2564529 35.8405095,78.0419056 C35.2765759,77.8273584 34.815944,77.5354788 34.4585999,77.166258 C34.1012559,76.7970372 33.841627,76.3629597 33.6797054,75.8640127 C33.5177839,75.3650657 33.4368244,74.8312004 33.4368244,74.2624007 C33.4368244,73.713559 33.5345342,73.1946619 33.7299567,72.7056938 C33.9253792,72.2167257 34.2157169,71.7926271 34.6009785,71.4333852 C34.98624,71.0741433 35.4636222,70.7897478 36.0331393,70.58019 C36.6026564,70.3706323 37.2614996,70.265855 38.0096887,70.265855 C38.4005338,70.265855 38.8304569,70.3057701 39.2994709,70.3856017 C39.768485,70.4654332 40.2821594,70.6051363 40.8405095,70.8047151 C40.8293425,70.9743571 40.8070088,71.1340177 40.7735078,71.2837018 C40.7400068,71.4333859 40.6981312,71.5855625 40.6478796,71.7402361 C40.5976281,71.8949097 40.5362106,72.0595597 40.463625,72.2341912 C40.3910395,72.4088226 40.3044966,72.6059038 40.2039936,72.8254405 C39.8243155,72.6857353 39.4725602,72.5834527 39.1487172,72.5185896 C38.8248741,72.4537265 38.5457033,72.4212954 38.3111962,72.4212954 C37.9426852,72.4212954 37.6300138,72.4711893 37.3731728,72.5709787 C37.1163317,72.6707681 36.9097453,72.8054818 36.7534073,72.9751238 C36.5970693,73.1447658 36.4826092,73.3418469 36.4100237,73.5663731 C36.3374382,73.7908993 36.301146,74.0229062 36.301146,74.2624007 C36.301146,74.9309898 36.4630651,75.4224452 36.7869081,75.7367819 C37.1107512,76.0511185 37.5853416,76.2082844 38.2106937,76.2082844 L38.5122013,76.2082844 L38.5122013,74.007939 C38.7913763,73.9580443 39.0398384,73.9231185 39.2575949,73.9031607 C39.4753514,73.8832028 39.6847296,73.873224 39.8857356,73.873224 C40.2765807,73.873224 40.7400043,73.9181286 41.2760204,74.007939 L41.2760204,77.8098964 C40.9521773,77.9196648 40.4999205,78.0394103 39.9192364,78.1691365 C39.3385523,78.2988627 38.6629589,78.3637249 37.8924358,78.3637249 Z M45.6646301,78.1691365 C45.374288,78.2090522 45.1118674,78.2389886 44.8773604,78.2589465 C44.6428534,78.2789044 44.4306835,78.2888832 44.2408445,78.2888832 C44.0510054,78.2888832 43.8388356,78.2789044 43.6043286,78.2589465 C43.3698215,78.2389886 43.1129843,78.2090522 42.8338093,78.1691365 L42.8338093,70.445475 C43.0794833,70.3955803 43.322362,70.3606545 43.5624525,70.3406966 C43.8025431,70.3207388 44.0342549,70.31076 44.2575949,70.31076 C44.4697679,70.31076 44.698688,70.3207388 44.9443621,70.3406966 C45.1900361,70.3606545 45.430123,70.3955803 45.6646301,70.445475 L45.6646301,78.1691365 Z M49.9694877,75.1155959 C50.0923247,75.5247325 50.3072863,75.8141174 50.6143788,75.9837594 C50.9214714,76.1534014 51.3262691,76.2382211 51.8287842,76.2382211 C52.1526272,76.2382211 52.5155493,76.2032953 52.9175614,76.1334428 C53.3195735,76.0635902 53.7159961,75.9588129 54.1068411,75.8191077 C54.2631791,76.0785602 54.3999729,76.3879027 54.5172264,76.7471445 C54.6344799,77.1063864 54.6986892,77.4805911 54.7098562,77.8697698 C53.7159931,78.1990748 52.6998111,78.3637249 51.66128,78.3637249 C50.8572559,78.3637249 50.1677039,78.2639369 49.5926033,78.0643581 C49.0175027,77.8647793 48.5484956,77.5878679 48.1855681,77.2336155 C47.8226405,76.8793631 47.5546365,76.4577592 47.381548,75.9687911 C47.2084595,75.479823 47.1219165,74.9459576 47.1219165,74.3671791 C47.1219165,73.7983795 47.2112512,73.2645141 47.3899232,72.7655671 C47.5685952,72.2666201 47.8365992,71.8325427 48.1939433,71.4633219 C48.5512874,71.0941011 48.9979607,70.8022214 49.5339768,70.5876742 C50.0699929,70.373127 50.6953356,70.265855 51.4100237,70.265855 C52.0018748,70.265855 52.5295077,70.3556641 52.9929383,70.535285 C53.4563688,70.714906 53.8499998,70.961881 54.1738428,71.2762177 C54.4976858,71.5905543 54.7461479,71.9697484 54.9192364,72.4138112 C55.092325,72.8578741 55.1788679,73.3393507 55.1788679,73.8582557 C55.1788679,74.1276871 55.1649094,74.3696727 55.1369919,74.58422 C55.1090744,74.7987672 55.083949,74.9758907 55.061615,75.1155959 L49.9694877,75.1155959 Z M51.3095212,72.1668337 C50.9521771,72.1668337 50.6450892,72.2666216 50.3882482,72.4662004 C50.1314071,72.6657792 49.9806549,72.9751217 49.9359869,73.3942372 L52.6160539,73.3942372 C52.5937199,73.0449743 52.4736764,72.7530947 52.2559199,72.5185896 C52.0381633,72.2840845 51.7227003,72.1668337 51.3095212,72.1668337 Z M19.0733403,87.808745 C19.0733403,87.0104298 19.1766335,86.2695045 19.383223,85.5859471 C19.5898126,84.9023896 19.9080673,84.3111463 20.3379969,83.8121992 C20.7679265,83.3132522 21.3151013,82.9215847 21.9795379,82.6371848 C22.6439745,82.352785 23.4340281,82.2105873 24.3497222,82.2105873 C25.2654163,82.2105873 26.0526781,82.352785 26.7115312,82.6371848 C27.3703843,82.9215847 27.9147675,83.3132522 28.3446971,83.8121992 C28.7746266,84.3111463 29.0928814,84.9023896 29.2994709,85.5859471 C29.5060605,86.2695045 29.6093537,87.0104298 29.6093537,87.808745 C29.6093537,88.6070603 29.5060605,89.3429961 29.2994709,90.0165746 C29.0928814,90.6901531 28.7746266,91.2739124 28.3446971,91.7678699 C27.9147675,92.2618275 27.3703843,92.646011 26.7115312,92.9204318 C26.0526781,93.1948527 25.2654163,93.3320611 24.3497222,93.3320611 C23.4340281,93.3320611 22.6439745,93.1948527 21.9795379,92.9204318 C21.3151013,92.646011 20.7679265,92.2618275 20.3379969,91.7678699 C19.9080673,91.2739124 19.5898126,90.6901531 19.383223,90.0165746 C19.1766335,89.3429961 19.0733403,88.6070603 19.0733403,87.808745 Z M26.4937758,87.808745 C26.4937758,85.6333359 25.7846818,84.5456477 24.3664726,84.5456477 C22.9147624,84.5456477 22.1889182,85.6333359 22.1889182,87.808745 C22.1889182,88.8964495 22.3647958,89.7072263 22.7165564,90.2410996 C23.0683169,90.774973 23.6127001,91.0419056 24.3497222,91.0419056 C25.7790984,91.0419056 26.4937758,89.9641962 26.4937758,87.808745 Z M34.0649651,93.1374727 C33.774623,93.1773885 33.5122024,93.2073248 33.2776954,93.2272827 C33.0431884,93.2472406 32.8310185,93.2572194 32.6411795,93.2572194 C32.4513405,93.2572194 32.2391706,93.2472406 32.0046636,93.2272827 C31.7701565,93.2073248 31.5133193,93.1773885 31.2341443,93.1374727 L31.2341443,85.4138112 C31.4798183,85.3639165 31.722697,85.3289907 31.9627875,85.3090329 C32.2028781,85.289075 32.4345899,85.2790962 32.6579299,85.2790962 C32.8701029,85.2790962 33.099023,85.289075 33.3446971,85.3090329 C33.5903711,85.3289907 33.830458,85.3639165 34.0649651,85.4138112 L34.0649651,93.1374727 Z M38.7718327,91.0419056 L41.9376619,91.0419056 C41.9934969,91.2414844 42.0297891,91.4260921 42.0465396,91.5957341 C42.0632901,91.7653761 42.0716652,91.9300261 42.0716652,92.0896892 C42.0716652,92.2493522 42.0632901,92.416497 42.0465396,92.5911284 C42.0297891,92.7657599 41.9934969,92.9528622 41.9376619,93.152441 L35.941012,93.152441 L35.9577624,85.4138112 C36.2034364,85.3639165 36.4463151,85.3289907 36.6864056,85.3090329 C36.9264961,85.289075 37.158208,85.2790962 37.381548,85.2790962 C37.593721,85.2790962 37.8226411,85.289075 38.0683152,85.3090329 C38.3139892,85.3289907 38.5540761,85.3639165 38.7885832,85.4138112 L38.7718327,91.0419056 Z" id="Veggie-Oil" fill="#7ED321"></path>
        </g>
    </g>
</svg>